<?xml version="1.0" standalone="no"?>
<!DOCTYPE svg PUBLIC "-//W3C//DTD SVG 1.1//EN" "http://www.w3.org/Graphics/SVG/1.1/DTD/svg11.dtd" >
<svg>
<metadata>
Created by FontForge 20090622 at Tue Jun  7 06:53:18 2016
 By deploy user
Copyright (c) 2014 by monocromo. All rights reserved.
</metadata>
<defs>
<font id="OpificioNeue" horiz-adv-x="190" >
  <font-face 
    font-family="Opificio Neue"
    font-weight="400"
    font-stretch="normal"
    units-per-em="1000"
    panose-1="2 0 5 6 0 0 0 2 0 4"
    ascent="800"
    descent="-200"
    x-height="500"
    cap-height="700"
    bbox="-85 -264 1082 1016"
    underline-thickness="50"
    underline-position="-50"
    unicode-range="U+0020-U+FB06"
  />
<missing-glyph horiz-adv-x="522" 
d="M462 462v-410l-52 -52l-51 51v238l-98 -98l-98 99v-238l-52 -52l-51 52v408l40 40l162 -162l162 162zM161 53v239l-49 48v-336zM460 53v406l-160 -162l-200 200l-36 -36l197 -203v-64l149 149v-340z" />
    <glyph glyph-name=".notdef" horiz-adv-x="522" 
d="M462 462v-410l-52 -52l-51 51v238l-98 -98l-98 99v-238l-52 -52l-51 52v408l40 40l162 -162l162 162zM161 53v239l-49 48v-336zM460 53v406l-160 -162l-200 200l-36 -36l197 -203v-64l149 149v-340z" />
    <glyph glyph-name="C" unicode="C" horiz-adv-x="822" 
d="M762 174q-26 -49 -65 -88q-52 -52 -119 -80q-70 -29 -145 -29t-145 29q-68 28 -119 80q-52 51 -80 119q-29 70 -29 145t29 145q28 67 80 119q51 51 119 80q70 29 145 29t145 -29q67 -29 119 -80q39 -39 65 -88h-82q-8 11 -16 20t-17 18q-43 44 -98 66.5t-116 22.5
t-116 -22.5t-98 -66.5q-44 -43 -66.5 -98t-22.5 -116t22.5 -116t66.5 -98q43 -44 98 -66.5t116 -22.5t116 22.5t98 66.5q9 9 17 18t16 20h82z" />
    <glyph glyph-name="O" unicode="O" horiz-adv-x="866" 
d="M433 -23q-75 0 -145 29q-68 28 -119 80q-52 51 -80 119q-29 70 -29 145t29 145q28 67 80 119q51 51 119 80q70 29 145 29t145 -29q67 -29 119 -80q51 -52 80 -119q29 -70 29 -145t-29 -145q-29 -68 -80 -119q-52 -52 -119 -80q-70 -29 -145 -29zM433 653
q-61 0 -116 -22.5t-98 -66.5q-44 -43 -66.5 -98t-22.5 -116t22.5 -116t66.5 -98q43 -44 98 -66.5t116 -22.5t116 22.5t98 66.5q44 43 66.5 98t22.5 116t-22.5 116t-66.5 98q-43 44 -98 66.5t-116 22.5z" />
    <glyph glyph-name="D" unicode="D" horiz-adv-x="705" 
d="M60 0v700h235q73 0 136 -28q62 -25 112 -75q48 -48 75 -111q27 -65 27 -136q0 -72 -27 -136q-27 -63 -75 -111q-50 -50 -112 -75q-63 -28 -136 -28h-235zM295 70q57 0 107.5 21t90.5 61t61 90.5t21 107.5t-21 107.5t-61 90.5t-90.5 61t-107.5 21h-165v-560h165z" />
    <glyph glyph-name="E" unicode="E" horiz-adv-x="586" 
d="M526 630h-396v-287h326v-70h-326v-203h396v-70h-466v700h466v-70v0z" />
    <glyph glyph-name="F" unicode="F" horiz-adv-x="586" 
d="M130 630v-287h326v-70h-326v-273h-70v700h466v-70h-396z" />
    <glyph glyph-name="G" unicode="G" horiz-adv-x="866" 
d="M806 343q0 -71 -29 -138q-14 -34 -34 -63.5t-46 -55.5q-51 -51 -118 -80q-70 -29 -146 -29q-75 0 -145 29q-67 29 -118 80q-53 51 -80 119q-30 69 -30 145t30 145q27 68 80 119q51 51 118 80q70 29 145 29q76 0 146 -29q67 -29 118 -80q38 -38 66 -88h-83q-7 11 -15 20
t-17 18q-43 44 -98.5 66.5t-116.5 22.5t-116 -22.5t-98 -66.5q-43 -43 -66 -98t-23 -116t23 -116t66 -98q43 -44 98 -66.5t116 -22.5t116.5 22.5t98.5 66.5q29 29 48.5 64t30.5 73h-294v70h373v0z" />
    <glyph glyph-name="M" unicode="M" horiz-adv-x="708" 
d="M571 700h77v-700h-70v584l-224 -339l-224 339v-584h-70v700h77l217 -328l217 328v0z" />
    <glyph glyph-name="N" unicode="N" horiz-adv-x="646" 
d="M516 700h70v-700h-70l-386 584v-584h-70v700h77l379 -572v572v0z" />
    <glyph glyph-name="K" unicode="K" horiz-adv-x="587" 
d="M437 0l-262 326l-45 -55v-271h-70v700h70v-318l260 318h90l-260 -318l307 -382h-90v0z" />
    <glyph glyph-name="L" unicode="L" horiz-adv-x="586" 
d="M60 700h70v-630h396v-70h-466v700z" />
    <glyph glyph-name="P" unicode="P" horiz-adv-x="584" 
d="M506 589q8 -18 13 -41t5 -62q0 -41 -5 -62.5t-13 -39.5q-19 -38 -49 -62t-69 -36.5t-84 -12.5h-174v-273h-70v700h244q45 0 84 -12.5t69 -36.5t49 -62zM413 377q11 10 20 26q8 14 14.5 34t6.5 49q0 43 -10.5 68.5t-30.5 41.5q-42 34 -109 34h-174v-287h174q67 0 109 34z
" />
    <glyph glyph-name="J" unicode="J" horiz-adv-x="590" 
d="M295 -23q-48 0 -90.5 17.5t-75.5 51.5q-34 33 -51.5 75.5t-17.5 90.5h70q0 -34 13 -64t35.5 -52.5t52.5 -35.5t64 -13t64 13t52.5 35.5t35.5 52.5t13 64v418h-329v70h399v-488q0 -48 -18 -90.5t-51 -75.5q-33 -34 -75.5 -51.5t-90.5 -17.5z" />
    <glyph glyph-name="Q" unicode="Q" horiz-adv-x="866" 
d="M777 495q15 -35 22 -71t7 -74t-7 -74t-22 -71q-29 -68 -80 -119q-26 -26 -55 -45.5t-62 -33.5q8 -20 25.5 -32.5t40.5 -12.5v-70q-46 0 -82 26t-51 67q-20 -4 -40 -6t-40 -2q-75 0 -145 29q-66 28 -119 80q-52 52 -79 119q-30 69 -30 145t30 145q27 67 79 119
q53 52 119 80q70 29 145 29q76 0 146 -29q67 -29 118 -80q51 -52 80 -119zM648 136q43 43 65.5 98t22.5 116t-22.5 116t-65.5 98q-44 44 -99 66.5t-116 22.5t-116 -22.5t-98 -66.5q-43 -43 -66 -98t-23 -116t23 -116t66 -98q43 -44 98 -66.5t116 -22.5q37 0 68 7
q-7 22 -25.5 36t-42.5 14v70q48 0 84 -27t50 -69q23 11 43 25.5t38 32.5z" />
    <glyph glyph-name="at" unicode="@" horiz-adv-x="865" 
d="M776 495q29 -70 29 -145v-245q0 -27 -10 -50t-27.5 -40.5t-41 -27.5t-50.5 -10t-50 10t-40.5 27.5t-27.5 40.5t-10 50v100q-24 -19 -53.5 -29.5t-61.5 -10.5q-38 0 -72 14.5t-59 39.5t-39.5 59t-14.5 72t14.5 72t39.5 59t59 39.5t72 14.5t72 -14.5t59 -39.5t39.5 -59
t14.5 -72v-245q0 -24 17 -41t41 -17q25 0 42 17t17 41v245q0 61 -22.5 116t-65.5 98q-43 44 -98 66.5t-116 22.5t-116 -22.5t-98 -66.5q-44 -43 -66.5 -98t-22.5 -116t22.5 -116t66.5 -98q43 -44 98 -66.5t116 -22.5v-70q-75 0 -145 29q-68 28 -119 80q-52 51 -80 119
q-29 70 -29 145t29 145q28 67 80 119q51 51 119 80q70 29 145 29t145 -29q67 -29 118 -80q51 -52 80 -119zM433 235q24 0 44.5 9t36.5 25t25 36.5t9 44.5t-9 44.5t-25 36.5t-36.5 25t-44.5 9t-44.5 -9t-36.5 -25t-25 -36.5t-9 -44.5t9 -44.5t25 -36.5t36.5 -25t44.5 -9z" />
    <glyph glyph-name="R" unicode="R" horiz-adv-x="584" 
d="M454 144q0 56 -35 91q-38 35 -106 38h-183v-273h-70v700h244q45 0 84 -12.5t69 -36.5t49 -62q8 -18 13 -41t5 -62q0 -41 -5 -62.5t-13 -39.5q-19 -38 -49 -62l-9.5 -7.5t-9.5 -6.5q8 -5 15 -10.5l14 -11.5q46 -45 55 -110q1 -8 1.5 -16t0.5 -16v-144h-70v144zM413 377
q11 10 20 26q8 14 14.5 34t6.5 49q0 43 -10.5 68.5t-30.5 41.5q-42 34 -109 34h-174v-287h174q67 0 109 34z" />
    <glyph glyph-name="s" unicode="s" horiz-adv-x="477" 
d="M246 -23q-10 0 -24 1t-30 5t-33 10.5t-33 17.5q-11 8 -23 20t-21.5 28.5t-15.5 38t-6 49.5h70q0 -53 36 -78q31 -22 80 -22q18 0 36.5 4.5t32.5 14t23 24t9 34.5q0 22 -12 38t-31 28t-43 21t-48 16.5t-45 15t-35 17.5q-58 40 -58 110q0 36 14 64.5t37 49t53 31.5t63 11
q39 0 68.5 -12t49.5 -31.5t30 -44t10 -49.5h-70q-1 18 -9 30.5t-20.5 20.5t-28 12t-30.5 4q-45 0 -71 -23.5t-26 -62.5q0 -35 26 -51.5t83 -33.5l57.5 -20t52.5 -30q53 -42 53 -111q0 -36 -15 -63t-39 -46t-55 -28.5t-62 -9.5z" />
    <glyph glyph-name="T" unicode="T" horiz-adv-x="586" 
d="M60 630v70h466v-70h-198v-630h-70v630h-198z" />
    <glyph glyph-name="U" unicode="U" horiz-adv-x="590" 
d="M60 700h70v-488q0 -34 13 -64t35.5 -52.5t52.5 -35.5t64 -13t64 13t52.5 35.5t35.5 52.5t13 64v488h70v-488q0 -48 -18 -90.5t-51 -75.5q-33 -34 -75.5 -51.5t-90.5 -17.5t-90.5 17.5t-75.5 51.5q-34 33 -51.5 75.5t-17.5 90.5v488z" />
    <glyph glyph-name="V" unicode="V" horiz-adv-x="644" 
d="M511 700h73l-225 -700h-73l-226 700h74l189 -586z" />
    <glyph glyph-name="X" unicode="X" horiz-adv-x="572" 
d="M325 351l187 -351h-78l-148 277l-148 -277h-78l186 351l-186 349h80l146 -275l146 275h80z" />
    <glyph glyph-name="W" unicode="W" horiz-adv-x="708" 
d="M571 0l-217 328l-217 -328h-77v700h70v-584l224 339l224 -339v584h70v-700h-77z" />
    <glyph glyph-name="Y" unicode="Y" horiz-adv-x="656" 
d="M293 273l-233 427h80l188 -357l188 357h80l-233 -427v-273h-70v273z" />
    <glyph glyph-name="Z" unicode="Z" horiz-adv-x="572" 
d="M60 630v70h452l-337 -630h337v-70h-452l335 630h-335z" />
    <glyph glyph-name="S" unicode="S" horiz-adv-x="596" 
d="M309 -23q-54 2 -99.5 17t-78.5 43t-51.5 69.5t-19.5 96.5h70q7 -83 55.5 -119.5t123.5 -36.5q30 0 58.5 7.5t50 22.5t35 38.5t13.5 55.5q0 37 -16.5 61t-43.5 40.5t-61.5 28l-70 23.5t-70 26t-61.5 35.5t-43.5 53.5t-16.5 79q0 48 18.5 86t49 64.5t70.5 40.5t83 14
q40 0 77.5 -13t66.5 -36t46.5 -56.5t17.5 -73.5h-70q-2 28 -14.5 48.5t-32 34t-43.5 20t-48 6.5q-31 0 -58.5 -9.5t-48 -26.5t-32.5 -42.5t-12 -56.5q0 -34 16 -56t42 -37.5t59 -26.5l68 -22t68.5 -25t60.5 -36q69 -56 69 -144q0 -48 -19.5 -84.5t-52 -60.5t-73 -36.5
t-82.5 -12.5z" />
    <glyph glyph-name="seven" unicode="7" horiz-adv-x="589" 
d="M145 0h-85l345 630h-345v70h469z" />
    <glyph glyph-name="bracketleft" unicode="[" horiz-adv-x="295" 
d="M60 858h175v-70h-105v-878h105v-70h-175v1018z" />
    <glyph glyph-name="bracketright" unicode="]" horiz-adv-x="295" 
d="M235 -160h-175v70h105v878h-105v70h175v-1018z" />
    <glyph glyph-name="a" unicode="a" horiz-adv-x="666" 
d="M526 444q39 -39 59.5 -89t20.5 -105v-250h-70v75q-20 -28 -44 -46.5t-50.5 -30t-54.5 -16.5t-54 -5q-55 0 -105 21t-88 59q-39 39 -59.5 89t-20.5 104q0 55 20.5 105t59.5 89q38 38 88 59t105 21t105 -21t88 -59zM333 47q42 0 79 16t64.5 43.5t43.5 64.5t16 79t-16 79.5
t-43.5 65t-64.5 43.5t-79 16t-79 -16t-64.5 -43.5t-43.5 -65t-16 -79.5t16 -79t43.5 -64.5t64.5 -43.5t79 -16z" />
    <glyph glyph-name="zero" unicode="0" horiz-adv-x="868" 
d="M60 350q0 76 29.5 144.5t80.5 119.5t119 80.5t145 28.5q77 1 145 -28.5t119 -80.5t80.5 -119.5t29.5 -144.5q0 -77 -29.5 -145t-80.5 -118.5t-119 -80t-145 -29.5q-77 -1 -145 28.5t-119 80.5t-80.5 119t-29.5 145zM130 350q0 -62 24 -117.5t65.5 -97t97 -65.5t117.5 -24
t117 24t96.5 65.5t65.5 97t24 117.5t-24 117t-65.5 96.5t-96.5 65.5t-117 24t-117.5 -24t-97 -65.5t-65.5 -96.5t-24 -117z" />
    <glyph glyph-name="o" unicode="o" horiz-adv-x="667" 
d="M333 -23q-55 0 -104.5 21t-88.5 59q-38 39 -59 89t-21 104q0 55 21 105t59 89q39 38 88.5 59t104.5 21t105 -21t89 -59q38 -39 59 -89t21 -105q0 -54 -21 -104t-59 -89q-39 -38 -89 -59t-105 -21zM333 454q-42 0 -79 -16t-64.5 -43.5t-43.5 -65t-16 -79.5t16 -79
t43.5 -64.5t64.5 -43.5t79 -16t79 16t65 43.5t44 64.5t16 79t-16 79.5t-44 65t-65 43.5t-79 16z" />
    <glyph glyph-name="p" unicode="p" horiz-adv-x="666" 
d="M140 444q38 38 88 59t105 21t105 -21t88 -59q39 -39 59.5 -89t20.5 -105q0 -54 -20.5 -104t-59.5 -89q-38 -38 -88 -59t-105 -21t-105 21t-88 59q-7 7 -10 11v-282h-70v464q0 55 20.5 105t59.5 89zM333 47q42 0 79 16t64.5 43.5t43.5 64.5t16 79t-16 79.5t-43.5 65
t-64.5 43.5t-79 16t-79 -16t-64.5 -43.5t-43.5 -65t-16 -79.5t16 -79t43.5 -64.5t64.5 -43.5t79 -16z" />
    <glyph glyph-name="q" unicode="q" horiz-adv-x="666" 
d="M526 444q39 -39 59.5 -89t20.5 -105v-464h-70v282q-3 -4 -10 -11q-38 -38 -88 -59t-105 -21t-105 21t-88 59q-39 39 -59.5 89t-20.5 104q0 55 20.5 105t59.5 89q38 38 88 59t105 21t105 -21t88 -59zM333 47q42 0 79 16t64.5 43.5t43.5 64.5t16 79t-16 79.5t-43.5 65
t-64.5 43.5t-79 16t-79 -16t-64.5 -43.5t-43.5 -65t-16 -79.5t16 -79t43.5 -64.5t64.5 -43.5t79 -16z" />
    <glyph glyph-name="b" unicode="b" horiz-adv-x="666" 
d="M140 57q-39 39 -59.5 89t-20.5 105v449h70v-267q3 4 10 11q38 38 88 59t105 21t105 -21t88 -59q39 -39 59.5 -89t20.5 -104q0 -55 -20.5 -105t-59.5 -89q-38 -38 -88 -59t-105 -21t-105 21t-88 59zM333 454q-42 0 -79 -16t-64.5 -43.5t-43.5 -64.5t-16 -79t16 -79.5
t43.5 -65t64.5 -43.5t79 -16t79 16t64.5 43.5t43.5 65t16 79.5t-16 79t-43.5 64.5t-64.5 43.5t-79 16z" />
    <glyph glyph-name="d" unicode="d" horiz-adv-x="666" 
d="M526 57q-38 -38 -88 -59t-105 -21t-105 21t-88 59q-39 39 -59.5 89t-20.5 105q0 54 20.5 104t59.5 89q38 38 88 59t105 21t105 -21t88 -59q7 -7 10 -11v267h70v-449q0 -55 -20.5 -105t-59.5 -89zM333 454q-42 0 -79 -16t-64.5 -43.5t-43.5 -64.5t-16 -79t16 -79.5
t43.5 -65t64.5 -43.5t79 -16t79 16t64.5 43.5t43.5 65t16 79.5t-16 79t-43.5 64.5t-64.5 43.5t-79 16z" />
    <glyph glyph-name="backslash" unicode="\" horiz-adv-x="422" 
d="M60 700h74l228 -700h-74z" />
    <glyph glyph-name="slash" unicode="/" horiz-adv-x="422" 
d="M134 0h-74l228 700h74z" />
    <glyph glyph-name="c" unicode="c" horiz-adv-x="648" 
d="M588 151q-21 -53 -62 -94q-38 -38 -88 -59t-105 -21t-105 21t-88 59q-39 39 -59.5 89t-20.5 104q0 55 20.5 105t59.5 89q38 38 88 59t105 21t105 -21t88 -59q41 -41 62 -94h-78q-26 47 -73 75.5t-104 28.5q-42 0 -79 -16t-64.5 -43.5t-43.5 -65t-16 -79.5t16 -79
t43.5 -64.5t64.5 -43.5t79 -16q57 0 104 28.5t73 75.5h78z" />
    <glyph glyph-name="g" unicode="g" horiz-adv-x="666" 
d="M606 39q0 -55 -20.5 -105t-59.5 -88q-38 -39 -88 -59.5t-105 -20.5t-104.5 20.5t-88.5 59.5q-10 9 -18 19.5l-16 21.5l57 40q28 -42 72 -66.5t98 -24.5q42 0 79 16t64.5 43.5t43.5 64.5t16 79v29q-46 -47 -97 -69t-106 -22t-105 21t-88 59q-39 39 -59.5 89t-20.5 104
q0 55 20.5 105t59.5 89q38 38 88 59t105 21q27 0 56 -6t56 -17t50.5 -28.5t40.5 -39.5l12 67h58v-461zM333 47q42 0 79 16t64.5 43.5t43.5 64.5t16 79t-16 79.5t-43.5 65t-64.5 43.5t-79 16t-79 -16t-64.5 -43.5t-43.5 -65t-16 -79.5t16 -79t43.5 -64.5t64.5 -43.5t79 -16z
" />
    <glyph glyph-name="f" unicode="f" horiz-adv-x="373" 
d="M313 248h-132v-248h-70v248h-51v70h51v183q0 49 14 90t40 70.5t63.5 45.5t84.5 16v-70q-35 0 -60 -12.5t-41 -33.5t-23.5 -48.5t-7.5 -57.5v-183h132v-70z" />
    <glyph glyph-name="r" unicode="r" horiz-adv-x="396" 
d="M336 426q-26 8 -52 8q-32 0 -60 -12t-49 -33t-33 -49t-12 -60v-280h-70v500h58l17 -52q31 27 69 41.5t80 14.5q14 0 26.5 -1.5t25.5 -3.5v-73z" />
    <glyph glyph-name="h" unicode="h" horiz-adv-x="569" 
d="M443 461q32 -32 49 -73t17 -86v-302h-70v302q0 32 -12.5 60t-33.5 49t-49 33t-60 12t-60 -12t-49 -33t-33 -49t-12 -60v-302h-70v700h70v-235q31 30 70.5 45.5t83.5 15.5q45 0 86 -16.5t73 -48.5z" />
    <glyph glyph-name="m" unicode="m" horiz-adv-x="949" 
d="M819 302q0 32 -12.5 60t-33.5 49t-49 33t-60 12q-31 0 -59 -11.5t-49 -32.5t-33.5 -49t-13.5 -61v-302h-70v302q-2 33 -14.5 61t-33.5 49t-48.5 32.5t-58.5 11.5q-32 0 -60 -12t-49 -33t-33 -49t-12 -60v-302h-70v500h58l12 -35q31 30 70.5 45.5t83.5 15.5q45 0 86 -16.5
t73 -48.5q17 -17 31 -39q14 22 31 39q32 32 73 48.5t86 16.5t86 -16.5t73 -48.5t49 -73t17 -86v-302h-70v302z" />
    <glyph glyph-name="n" unicode="n" horiz-adv-x="569" 
d="M443 461q32 -32 49 -73t17 -86v-302h-70v302q0 32 -12.5 60t-33.5 49t-49 33t-60 12t-60 -12t-49 -33t-33 -49t-12 -60v-302h-70v500h58l12 -45q32 35 71 53t83 18q45 0 86 -16.5t73 -48.5z" />
    <glyph glyph-name="k" unicode="k" horiz-adv-x="466" 
d="M317 0l-176 234l-11 -15v-219h-70v700h70v-364l124 164h88l-157 -207l221 -293h-89v0z" />
    <glyph glyph-name="l" unicode="l" 
d="M60 700h70v-700h-70v700z" />
    <glyph glyph-name="j" unicode="j" 
d="M60 500h70v-512q0 -50 -14 -90.5t-40 -70t-63.5 -45.5t-84.5 -16v70q35 0 60 12.5t41 33.5t23.5 48.5t7.5 57.5v512zM53 695q0 18 12 30.5t30 12.5t30.5 -12.5t12.5 -30.5t-12.5 -30t-30.5 -12t-30 12t-12 30z" />
    <glyph glyph-name="t" unicode="t" horiz-adv-x="372" 
d="M60 430v70h51v200h70v-200h131v-70h-131v-430h-70v430h-51z" />
    <glyph glyph-name="u" unicode="u" horiz-adv-x="570" 
d="M126 42q-32 32 -49 73t-17 86v299h70v-299q0 -32 12.5 -60t33.5 -49t49 -33t60 -12t60 12t49 33t33.5 49t12.5 60v299h70v-299q0 -45 -17 -86t-49 -73t-73 -48.5t-86 -16.5t-86 16.5t-73 48.5z" />
    <glyph glyph-name="v" unicode="v" horiz-adv-x="633" 
d="M60 500h77l179 -412l180 412h77l-218 -500h-77z" />
    <glyph glyph-name="y" unicode="y" horiz-adv-x="570" 
d="M440 38q-32 -29 -71.5 -45t-83.5 -16q-45 0 -86 16.5t-73 48.5t-49 73t-17 86v299h70v-299q0 -32 12.5 -60t33.5 -49t49 -33t60 -12q31 0 58.5 11.5t48.5 31.5t33.5 46.5t14.5 57.5v306h70v-512q0 -50 -14 -90.5t-40 -70t-63.5 -45.5t-84.5 -16v70q35 0 60 12.5t41 33.5
t23.5 48.5t7.5 57.5v50z" />
    <glyph glyph-name="x" unicode="x" horiz-adv-x="466" 
d="M140 0h-80l132 250l-132 250h81l92 -173l92 173h81l-133 -250l133 -250h-80l-93 174z" />
    <glyph glyph-name="z" unicode="z" horiz-adv-x="466" 
d="M60 0l228 430h-228v70h346l-229 -430h229v-70h-346z" />
    <glyph glyph-name="e" unicode="e" horiz-adv-x="666" 
d="M130 248q0 -42 16.5 -78.5t44 -63.5t64 -43t78.5 -16q57 0 104 28.5t73 75.5h78q-21 -53 -62 -94q-39 -38 -88.5 -59t-104.5 -21t-105 21t-88 59q-39 39 -59.5 88.5t-20.5 104.5t20.5 105t59.5 88q38 39 88 60t105 21t104.5 -21t88.5 -60q39 -38 59.5 -89t20.5 -106h-476
zM333 454q-33 0 -63 -10t-55 -28t-44 -43t-30 -55h383q-22 60 -73.5 98t-117.5 38z" />
    <glyph glyph-name="w" unicode="w" horiz-adv-x="950" 
d="M506 42q-17 17 -31 39q-14 -22 -31 -39q-32 -32 -73 -48.5t-86 -16.5t-86 16.5t-73 48.5t-49 73t-17 86v299h70v-299q0 -32 12.5 -60t33.5 -49t49 -33t60 -12q31 0 58.5 11.5t48.5 31.5t33.5 46.5t14.5 57.5v306h70v-306q1 -31 13.5 -57.5t33.5 -46.5t49 -31.5t59 -11.5
q32 0 60 12t49 33t33.5 49t12.5 60v299h70v-299q0 -45 -17 -86t-49 -73t-73 -48.5t-86 -16.5t-86 16.5t-73 48.5z" />
    <glyph glyph-name="period" unicode="." horiz-adv-x="205" 
d="M60 42q0 18 12 30.5t30 12.5t30.5 -12.5t12.5 -30.5t-12.5 -30t-30.5 -12t-30 12t-12 30z" />
    <glyph glyph-name="question" unicode="?" horiz-adv-x="593" 
d="M210 150q1 36 12 64t29.5 50t44 39t55.5 31q26 13 46.5 27t35 30.5t22.5 37t8 48.5q0 40 -13 72.5t-36 55.5t-55 35.5t-70 12.5q-30 0 -58.5 -8.5t-51 -24.5t-36 -40.5t-13.5 -55.5h-70q2 48 21.5 85t51 62.5t72 38.5t84.5 13q56 0 101.5 -18.5t77 -51.5t48.5 -78t17 -98
q0 -40 -11.5 -71t-32 -56t-48 -44t-59.5 -34q-21 -11 -40 -22t-32.5 -25.5t-21.5 -32.5t-8 -42h-70zM210 35q0 14 10.5 24.5t24.5 10.5t24.5 -10.5t10.5 -24.5t-10.5 -24.5t-24.5 -10.5t-24.5 10.5t-10.5 24.5z" />
    <glyph glyph-name="one" unicode="1" horiz-adv-x="291" 
d="M231 700v-700h-70v630h-101v70h171z" />
    <glyph glyph-name="two" unicode="2" horiz-adv-x="586" 
d="M452 658q32 -32 48.5 -73t16.5 -84t-16 -83.5t-49 -72.5l-290 -275h364v-70h-466v70l343 323q22 22 33.5 50.5t11.5 57.5t-11.5 57t-33.5 50q-23 22 -51 33.5t-56.5 11.5t-56.5 -11t-51 -34q-21 -21 -32 -47.5t-13 -54.5h-70q1 42 17 81t48 71q33 33 73.5 49t83.5 16
t83.5 -16t73.5 -49z" />
    <glyph glyph-name="four" unicode="4" horiz-adv-x="586" 
d="M444 196h82v-70h-82v-126h-70v126h-314l139 574h72l-122 -504h225v123h70v-123z" />
    <glyph glyph-name="six" unicode="6" horiz-adv-x="666" 
d="M140 57q-39 39 -59.5 89t-20.5 105v211q0 55 20.5 99t59.5 82q38 39 88 59.5t105 20.5q66 0 126 -31.5t101 -89.5l-57 -41q-28 42 -72 67t-98 25q-42 0 -79 -14t-64.5 -39.5t-43.5 -60.5t-16 -77v-29q46 47 97 69t106 22t105 -21t88 -59q39 -39 59.5 -89t20.5 -104
q0 -55 -20.5 -105t-59.5 -89q-38 -38 -88 -59t-105 -21t-105 21t-88 59zM333 454q-42 0 -79 -16t-64.5 -43.5t-43.5 -64.5t-16 -79t16 -79.5t43.5 -65t64.5 -43.5t79 -16t79 16t64.5 43.5t43.5 65t16 79.5t-16 79t-43.5 64.5t-64.5 43.5t-79 16z" />
    <glyph glyph-name="nine" unicode="9" horiz-adv-x="666" 
d="M526 643q39 -39 59.5 -89t20.5 -105v-211q0 -55 -20.5 -99t-59.5 -82q-38 -39 -88 -59.5t-105 -20.5q-66 0 -126 31.5t-101 89.5l57 41q28 -42 72 -67t98 -25q42 0 79 14t64.5 39.5t43.5 60.5t16 77v29q-46 -47 -97 -69t-106 -22t-105 21t-88 59q-39 39 -59.5 89
t-20.5 104q0 55 20.5 105t59.5 89q38 38 88 59t105 21t105 -21t88 -59zM333 246q42 0 79 16t64.5 43.5t43.5 64.5t16 79t-16 79.5t-43.5 65t-64.5 43.5t-79 16t-79 -16t-64.5 -43.5t-43.5 -65t-16 -79.5t16 -79t43.5 -64.5t64.5 -43.5t79 -16z" />
    <glyph glyph-name="five" unicode="5" horiz-adv-x="670" 
d="M193 485q68 41 142 40q57 0 107 -21.5t87.5 -59t59 -87.5t21.5 -107t-21.5 -107t-59 -87.5t-87.5 -59t-107 -21.5q-43 0 -82 12.5t-72 34.5t-58.5 53t-41.5 68q-21 49 -21 106h70q0 -43 16 -79q24 -55 74.5 -90t114.5 -35q42 0 79.5 16t65.5 44t44 65.5t16 79.5t-16 79.5
t-44 65.5t-66.5 44t-83.5 16q-48 0 -90 -16.5t-67 -50.5h-70l62 312h348v-70h-292z" />
    <glyph glyph-name="eight" unicode="8" horiz-adv-x="624" 
d="M490 407q36 -36 55 -81.5t19 -96.5t-19 -96.5t-55 -81.5q-35 -36 -81 -55t-97 -19t-96.5 19t-81.5 55q-35 36 -54.5 81.5t-19.5 96.5t19.5 96.5t54.5 81.5q32 32 69 49q-22 21 -34.5 50t-12.5 61t12.5 60.5t33.5 49.5t49.5 33.5t60.5 12.5t60.5 -12.5t50 -33.5t34 -49.5
t12.5 -60.5t-12.5 -61t-34.5 -50q37 -18 68 -49zM226 567q0 -18 7 -33.5t18.5 -27t27 -18.5t33.5 -7t34 7t27.5 18.5t18.5 27t7 33.5q0 36 -25.5 61t-61.5 25q-18 0 -33.5 -6.5t-27 -18.5t-18.5 -27.5t-7 -33.5zM312 47q37 0 70.5 14.5t58 39t39 57.5t14.5 71
q0 37 -14.5 70.5t-39 58t-58 39t-70.5 14.5q-38 0 -71 -14.5t-57.5 -39t-39 -58t-14.5 -70.5q0 -38 14.5 -71t39 -57.5t57.5 -39t71 -14.5z" />
    <glyph glyph-name="comma" unicode="," horiz-adv-x="206" 
d="M92 0q-14 3 -23 15t-9 27q0 17 12.5 30t30.5 13t30.5 -13t12.5 -30q0 -3 -0.5 -7t-3.5 -15l-8.5 -31.5l-15.5 -55.5h-33z" />
    <glyph glyph-name="colon" unicode=":" horiz-adv-x="205" 
d="M60 42q0 18 12 30.5t30 12.5t30.5 -12.5t12.5 -30.5t-12.5 -30t-30.5 -12t-30 12t-12 30zM60 457q0 18 12 30.5t30 12.5t30.5 -12.5t12.5 -30.5t-12.5 -30t-30.5 -12t-30 12t-12 30z" />
    <glyph glyph-name="semicolon" unicode=";" horiz-adv-x="206" 
d="M60 457q0 18 12 30.5t30 12.5t30.5 -12.5t12.5 -30.5t-12.5 -30t-30.5 -12t-30 12t-12 30zM92 0q-14 3 -23 15t-9 27q0 17 12.5 30t30.5 13t30.5 -13t12.5 -30q0 -3 -0.5 -7t-3.5 -15l-8.5 -31.5l-15.5 -55.5h-33z" />
    <glyph glyph-name="three" unicode="3" horiz-adv-x="670" 
d="M543 700v-1l1 1v-70l-139 -114q10 -2 19 -5.5t18 -7.5q37 -16 68 -41.5t53 -58t34.5 -71.5t12.5 -82q0 -57 -21.5 -107t-59 -87.5t-87.5 -59t-107 -21.5q-43 0 -82 12.5t-72 34.5t-58.5 53t-41.5 68q-21 49 -21 106h70q0 -43 16 -79q24 -55 74.5 -90t114.5 -35
q42 0 79.5 16t65.5 44t44 65.5t16 79.5q0 29 -9.5 59.5t-28 57t-47 46.5t-66.5 29q-54 9 -100 2v75l151 111h-340v70h443z" />
    <glyph glyph-name="plus" unicode="+" horiz-adv-x="462" 
d="M266 112h-70v136h-136v70h136v136h70v-136h136v-70h-136v-136z" />
    <glyph glyph-name="asterisk" unicode="*" horiz-adv-x="294" 
d="M128 641v59h37v-59l51 29l18 -33l-50 -28l50 -28l-18 -31l-51 28v-58h-37v58l-50 -28l-18 31l49 28l-49 28l18 33z" />
    <glyph glyph-name="exclam" unicode="!" 
d="M60 700h70v-500h-70v500zM60 12q0 14 10.5 24.5t24.5 10.5t24.5 -10.5t10.5 -24.5t-10.5 -24.5t-24.5 -10.5t-24.5 10.5t-10.5 24.5z" />
    <glyph glyph-name="hyphen" unicode="-" horiz-adv-x="462" 
d="M60 248v70h342v-70h-342z" />
    <glyph glyph-name="quotesingle" unicode="'" 
d="M60 700h70l-10 -163h-50z" />
    <glyph glyph-name="quotedblleft" unicode="&#x201c;" horiz-adv-x="298" 
d="M60 700h70l-10 -163h-50zM168 700h70l-10 -163h-50z" />
    <glyph glyph-name="quotedblright" unicode="&#x201d;" horiz-adv-x="298" 
d="M60 700h70l-10 -163h-50zM168 700h70l-10 -163h-50z" />
    <glyph glyph-name="braceleft" unicode="{" horiz-adv-x="348" 
d="M195 302q14 -30 14 -64v-251q0 -16 6.5 -30t17.5 -24t25 -16t30 -6v-71q-30 0 -57.5 11.5t-47.5 31t-32 46.5t-12 58v251q0 16 -6.5 30t-17.5 24t-25 16t-30 6v72q16 0 30 6t25 16t17.5 24t6.5 30v249q0 31 12 58t32 46.5t47.5 31t57.5 11.5v-71q-16 0 -30 -6t-25 -16
t-17.5 -24t-6.5 -30v-249q0 -34 -14 -64q-15 -28 -38 -48q23 -20 38 -48z" />
    <glyph glyph-name="braceright" unicode="}" horiz-adv-x="348" 
d="M153 302q15 28 38 48q-23 20 -38 48q-14 30 -14 64v249q0 16 -6.5 30t-17.5 24t-25 16t-30 6v71q30 0 57.5 -11.5t47.5 -31t32 -46.5t12 -58v-249q0 -16 6.5 -30t17.5 -24t25 -16t30 -6v-72q-16 0 -30 -6t-25 -16t-17.5 -24t-6.5 -30v-251q0 -31 -12 -58t-32 -46.5
t-47.5 -31t-57.5 -11.5v71q16 0 30 6t25 16t17.5 24t6.5 30v251q0 34 14 64z" />
    <glyph glyph-name="bar" unicode="|" 
d="M60 874h70v-1048h-70v1048z" />
    <glyph glyph-name="equal" unicode="=" horiz-adv-x="598" 
d="M60 178v70h478v-70h-478zM60 318v70h478v-70h-478z" />
    <glyph glyph-name="less" unicode="&#x3c;" horiz-adv-x="517" 
d="M60 244v77l397 173v-77l-309 -135l309 -134v-77z" />
    <glyph glyph-name="greater" unicode="&#x3e;" horiz-adv-x="517" 
d="M60 71v77l309 134l-309 135v77l397 -173v-77z" />
    <glyph glyph-name="asciicircum" unicode="^" horiz-adv-x="371" 
d="M147 700h77l87 -200h-77l-49 112l-48 -112h-77z" />
    <glyph glyph-name="underscore" unicode="_" horiz-adv-x="624" 
d="M60 0v70h504v-70h-504z" />
    <glyph glyph-name="grave" unicode="`" horiz-adv-x="257" 
d="M60 792h74l63 -200h-74z" />
    <glyph glyph-name="copyright" unicode="&#xa9;" horiz-adv-x="867" 
d="M434 -23q-76 0 -146 29q-67 29 -118 80q-26 26 -46 56t-34 63q-30 69 -30 145t30 145q14 34 34 63.5t46 55.5q51 51 118 80t146 29q38 0 74 -7t71 -22q67 -29 118 -80q53 -51 80 -119q30 -69 30 -145t-30 -145q-27 -66 -80 -119q-51 -51 -118 -80q-70 -29 -145 -29z
M434 653q-61 0 -116.5 -22.5t-98.5 -65.5q-43 -44 -66 -99t-23 -116t23 -116t66 -98t98.5 -66t116.5 -23t116 23t98 66t66 98t23 116t-23 116t-66 99q-43 43 -98 65.5t-116 22.5zM610 282q-21 -53 -68.5 -86.5t-107.5 -33.5q-39 0 -73.5 14.5t-60 40t-40.5 60t-15 73.5
t15 73.5t40.5 60t60 40.5t73.5 15q30 0 57 -9t50 -25t40.5 -38t27.5 -48h-79q-16 23 -41.5 36.5t-54.5 13.5q-25 0 -46.5 -9.5t-37.5 -25.5t-25.5 -37.5t-9.5 -46.5q0 -24 9.5 -45.5t25.5 -37.5t37.5 -25.5t46.5 -9.5q30 0 55 13.5t42 36.5h79z" />
    <glyph glyph-name="multiply" unicode="&#xd7;" horiz-adv-x="412" 
d="M302 428l50 -50l-97 -96l97 -96l-50 -49l-96 96l-96 -96l-50 49l97 96l-97 96l50 50l96 -96z" />
    <glyph glyph-name="acute" unicode="&#xb4;" horiz-adv-x="257" 
d="M134 592h-74l63 200h74z" />
    <glyph glyph-name="parenleft" unicode="(" horiz-adv-x="334" 
d="M60 349q0 53 6 105t19 103q20 83 54 160q15 33 29 59t25 44t18 27.5t8 10.5l55 -43q-12 -15 -23 -34q-21 -34 -49 -95q-32 -71 -50 -147q-11 -47 -16.5 -94.5t-5.5 -95.5t5.5 -95.5t16.5 -94.5q18 -76 50 -147q14 -31 26 -54.5t23 -40.5q11 -19 23 -34l-55 -43
q-1 1 -8 10.5t-18 27.5t-25 44t-29 59q-34 77 -54 160q-13 51 -19 103t-6 105z" />
    <glyph glyph-name="parenright" unicode=")" horiz-adv-x="334" 
d="M274 349q0 -53 -6 -105t-19 -103q-20 -83 -54 -160q-15 -33 -29 -59t-25 -44t-18 -27.5t-8 -10.5l-55 43l22 34l23 40.5t27 54.5q32 71 50 147q11 47 16.5 94.5t5.5 95.5t-5.5 95.5t-16.5 94.5q-18 76 -50 147q-14 30 -27 54l-23 41l-22 34l55 43q1 -1 8 -10.5t18 -27.5
t25 -44t29 -59q34 -77 54 -160q13 -51 19 -103t6 -105z" />
    <glyph glyph-name="fraction" unicode="&#x2044;" horiz-adv-x="422" 
d="M134 0h-74l228 700h74z" />
    <glyph glyph-name="quotesinglbase" unicode="&#x201a;" 
d="M60 0h70l-10 -163h-50z" />
    <glyph glyph-name="quotedblbase" unicode="&#x201e;" horiz-adv-x="298" 
d="M60 0h70l-10 -163h-50zM168 0h70l-10 -163h-50z" />
    <glyph glyph-name="dieresis" unicode="&#xa8;" horiz-adv-x="365" 
d="M60 648q0 18 12 30.5t30 12.5t30.5 -12.5t12.5 -30.5t-12.5 -30t-30.5 -12t-30 12t-12 30zM220 648q0 18 12 30.5t30 12.5t30.5 -12.5t12.5 -30.5t-12.5 -30t-30.5 -12t-30 12t-12 30z" />
    <glyph glyph-name="periodcentered" unicode="&#xb7;" horiz-adv-x="205" 
d="M60 307q0 18 12 30.5t30 12.5t30.5 -12.5t12.5 -30.5t-12.5 -30t-30.5 -12t-30 12t-12 30z" />
    <glyph glyph-name="quotedbl" unicode="&#x22;" horiz-adv-x="298" 
d="M60 700h70l-10 -163h-50zM168 700h70l-10 -163h-50z" />
    <glyph glyph-name="quoteleft" unicode="&#x2018;" horiz-adv-x="206" 
d="M114 686q14 -3 23 -15t9 -27q0 -17 -12.5 -30t-30.5 -13t-30.5 13t-12.5 30q0 3 0.5 7t3.5 15l8.5 31.5l15.5 55.5h33z" />
    <glyph glyph-name="registered" unicode="&#xae;" horiz-adv-x="866" 
d="M777 496q29 -70 29 -145q0 -76 -29 -146q-29 -67 -80 -118q-26 -26 -55.5 -46t-63.5 -34q-69 -30 -145 -30t-145 30q-34 14 -63.5 34t-55.5 46q-51 51 -80 118q-29 70 -29 146q0 75 29 145q29 67 80 118q51 53 119 80q69 30 145 30t145 -30q68 -27 119 -80
q51 -51 80 -118zM647 136q44 43 66.5 98.5t22.5 116.5t-22.5 116t-66.5 98q-43 43 -98 66t-116 23t-116 -23t-98 -66q-44 -43 -66.5 -98t-22.5 -116t22.5 -116.5t66.5 -98.5q43 -43 98 -66t116 -23t116 23t98 66zM580 416q0 -28 -8 -50t-28 -40q10 -12 17 -24q11 -21 13 -39
t2 -20v-70h-70v69q0 22 -14.5 36.5t-37.5 14.5h-76v-120h-70v370h144q26 0 49 -9.5t40.5 -26.5t28 -40.5t10.5 -50.5zM378 363h76q23 0 39.5 13.5t16.5 39.5t-16.5 41.5t-42.5 15.5h-73v-110z" />
    <glyph glyph-name="dagger" unicode="&#x2020;" horiz-adv-x="461" 
d="M401 500v-70h-136v-645h-70v645h-135v70h135v324h70v-324h136z" />
    <glyph glyph-name="daggerdbl" unicode="&#x2021;" horiz-adv-x="596" 
d="M536 500v-70h-204v-140h204v-70h-204v-435h-70v435h-202v70h202v140h-202v70h202v324h70v-324h204z" />
    <glyph glyph-name="bullet" unicode="&#x2022;" horiz-adv-x="291" 
d="M60 299q0 37 24.5 61.5t60.5 24.5q37 0 61.5 -24.5t24.5 -61.5q0 -36 -24.5 -60.5t-61.5 -24.5q-36 0 -60.5 24.5t-24.5 60.5z" />
    <glyph glyph-name="circumflex" unicode="&#x2c6;" horiz-adv-x="392" 
d="M240 722l92 -130h-76l-60 84l-61 -84h-75l91 130h89z" />
    <glyph glyph-name="mu" unicode="&#xb5;" horiz-adv-x="570" 
d="M60 500h70v-306q1 -31 13.5 -57.5t33.5 -46.5t49 -31.5t59 -11.5q32 0 60 12t49 33t33.5 49t12.5 60v299h70v-299q0 -45 -17 -86t-49 -73t-73 -48.5t-86 -16.5q-44 0 -83.5 16t-71.5 45v-272h-70v734z" />
    <glyph glyph-name="endash" unicode="&#x2013;" horiz-adv-x="534" 
d="M60 248v70h414v-70h-414z" />
    <glyph glyph-name="emdash" unicode="&#x2014;" horiz-adv-x="614" 
d="M60 248v70h494v-70h-494z" />
    <glyph glyph-name="tilde" unicode="&#x2dc;" horiz-adv-x="381" 
d="M321 648q-24 -42 -65.5 -53t-83.5 13q-15 10 -28 5t-22 -21l-62 37q24 42 65.5 53t83.5 -12q15 -9 28 -4.5t22 19.5z" />
    <glyph glyph-name="asciitilde" unicode="~" horiz-adv-x="563" 
d="M60 435h72v-49q0 -26 18.5 -44.5t44.5 -18.5q22 0 39 14.5t35 31.5t41.5 31.5t58.5 14.5q28 0 52.5 -10.5t42.5 -28.5t28.5 -42.5t10.5 -52.5v-49h-72v49q0 26 -18.5 44.5t-44.5 18.5q-22 0 -38.5 -14.5l-34.5 -31.5t-41.5 -31.5t-59.5 -14.5q-28 0 -52.5 10.5
t-42.5 28.5t-28.5 42.5t-10.5 52.5v49z" />
    <glyph glyph-name="guilsinglright" unicode="&#x203a;" horiz-adv-x="418" 
d="M358 249l-249 -249l-49 50l199 199l-199 199l49 50z" />
    <glyph glyph-name="guilsinglleft" unicode="&#x2039;" horiz-adv-x="418" 
d="M309 498l49 -50l-199 -199l199 -199l-49 -50l-249 249z" />
    <glyph glyph-name="guillemotright" unicode="&#xbb;" horiz-adv-x="668" 
d="M358 249l-249 -249l-49 50l199 199l-199 199l49 50zM608 249l-249 -249l-49 50l199 199l-199 199l49 50z" />
    <glyph glyph-name="guillemotleft" unicode="&#xab;" horiz-adv-x="668" 
d="M559 498l49 -50l-199 -199l199 -199l-49 -50l-249 249zM309 498l49 -50l-199 -199l199 -199l-49 -50l-249 249z" />
    <glyph glyph-name="quoteright" unicode="&#x2019;" 
d="M60 700h70l-10 -163h-50z" />
    <glyph glyph-name="questiondown" unicode="&#xbf;" horiz-adv-x="593" 
d="M280 550q0 -24 8 -42t21.5 -32.5t32.5 -25.5t40 -22q32 -15 59.5 -34t48 -44t32 -56t11.5 -71q0 -53 -17 -98t-48.5 -78t-77 -51.5t-101.5 -18.5q-44 0 -84.5 13t-72 38.5t-51 62.5t-21.5 85h70q0 -32 13.5 -56t36 -40t51 -24.5t58.5 -8.5q38 0 70 12.5t55 35.5t36 55.5
t13 72.5q0 28 -8 48.5t-22.5 37t-35 30t-46.5 27.5q-30 14 -55.5 31t-44 39t-29.5 50t-12 64h70zM210 665q0 14 10.5 24.5t24.5 10.5t24.5 -10.5t10.5 -24.5t-10.5 -24.5t-24.5 -10.5t-24.5 10.5t-10.5 24.5z" />
    <glyph glyph-name="caron" unicode="&#x2c7;" horiz-adv-x="371" 
d="M60 792h77l48 -112l49 112h77l-87 -200h-77z" />
    <glyph glyph-name="ampersand" unicode="&#x26;" horiz-adv-x="712" 
d="M266 -23q-83 2 -139 50q-31 30 -47.5 67.5t-19 78t8 80.5t34.5 73q20 29 46.5 53t55.5 45q-64 97 -64 160q0 42 14 66.5t28 38.5q15 14 32.5 21t33 10t27 3h16.5q4 0 15 -1t24.5 -5t28.5 -12t29 -21q35 -37 35 -94q0 -45 -27 -88q-30 -49 -94 -95q25 -32 55 -66.5
l66 -72.5l35.5 -37l34.5 -35l41 43.5l33 36.5l22.5 25.5l8.5 9.5l53 -46q-1 -1 -10 -11l-23 -26l-33.5 -37l-41.5 -44l73 -68t30 -26l-46 -53q0 1 -30.5 28l-75.5 70l-35 -34l-35 -32q-31 -26 -72.5 -40.5t-86.5 -14.5zM246 367q-25 -18 -47 -38.5t-39 -43.5
q-21 -30 -27 -66.5t2.5 -70t31 -60t58.5 -36.5q40 -11 83 -1.5t72 34.5q16 14 32 29.5l33 31.5l-35 35.5l-36 37.5l-70 77.5t-58 70.5zM282 653q-34 -2 -52.5 -19t-18.5 -50q0 -14 10 -43t42 -77q17 12 33.5 26t29 30t20.5 33.5t8 36.5q0 33 -21.5 48t-50.5 15z" />
    <glyph glyph-name="ogonek" unicode="&#x2db;" horiz-adv-x="295" 
d="M235 -264h-70q-21 0 -40.5 8t-33.5 22t-22.5 33t-8.5 41t8.5 41t22.5 33t33.5 22.5t40.5 8.5v55h70v-125h-70q-14 0 -24 -10.5t-10 -24.5t10 -24t24 -10h70v-70z" />
    <glyph glyph-name="cedilla" unicode="&#xb8;" horiz-adv-x="295" 
d="M60 -194h70q14 0 24 10t10 24t-10 24.5t-24 10.5h-70v125h70v-55q21 0 40.5 -8.5t33.5 -22.5t22.5 -33t8.5 -41t-8.5 -41t-22.5 -33t-33.5 -22t-40.5 -8h-70v70z" />
    <glyph glyph-name="dotaccent" unicode="&#x2d9;" horiz-adv-x="205" 
d="M60 648q0 18 12 30.5t30 12.5t30.5 -12.5t12.5 -30.5t-12.5 -30t-30.5 -12t-30 12t-12 30z" />
    <glyph glyph-name="thorn" unicode="&#xfe;" horiz-adv-x="666" 
d="M140 444q38 38 88 59t105 21t105 -21t88 -59q39 -39 59.5 -89t20.5 -105q0 -54 -20.5 -104t-59.5 -89q-38 -38 -88 -59t-105 -21t-105 21t-88 59l-10 11v-282h-70v928h70v-281zM333 47q42 0 79 16t64.5 43.5t43.5 64.5t16 79t-16 79.5t-43.5 65t-64.5 43.5t-79 16
t-79 -16t-64.5 -43.5t-43.5 -65t-16 -79.5t16 -79t43.5 -64.5t64.5 -43.5t79 -16z" />
    <glyph glyph-name="B" unicode="B" horiz-adv-x="584" 
d="M60 0v700h197q103 0 163 -55q29 -28 42 -62q14 -36 14 -75q0 -41 -16.5 -76t-47.5 -60q34 -16 55 -37q57 -55 57 -142q0 -23 -5 -43.5t-13 -38.5q-19 -38 -49 -62t-69 -36.5t-84 -12.5h-244zM372 594q-39 36 -115 36h-127v-238h127q28 0 54.5 7t47.5 21t34 36t13 52
q0 19 -6.5 42.5t-27.5 43.5zM130 322v-252h174q67 0 109 34q41 33 41 89q0 29 -9 51.5t-26 39.5q-40 38 -115 38h-174z" />
    <glyph glyph-name="I" unicode="I" 
d="M60 700h70v-700h-70v700z" />
    <glyph glyph-name="H" unicode="H" horiz-adv-x="586" 
d="M456 273h-326v-273h-70v700h70v-357h326v357h70v-700h-70v273z" />
    <glyph glyph-name="A" unicode="A" horiz-adv-x="644" 
d="M285 700h74l225 -700h-74l-88 273h-200l-88 -273h-74zM244 343h156l-78 243z" />
    <glyph glyph-name="numbersign" unicode="#" horiz-adv-x="629" 
d="M60 199v70h123l52 161h-100v70h123l65 200h74l-65 -200h86l65 200h74l-65 -200h77v-70h-100l-52 -161h77v-70h-100l-65 -199h-74l65 199h-86l-65 -199h-74l65 199h-100zM257 269h86l52 161h-86z" />
    <glyph glyph-name="dollar" unicode="$" horiz-adv-x="596" 
d="M269 874h70v-154q35 -5 66.5 -19.5t55 -37.5t37.5 -53t14 -66h-70q-3 45 -33.5 71.5t-69.5 34.5v-274q35 -11 68 -25t60 -36q69 -56 69 -144q0 -44 -16.5 -78t-44 -58t-63 -38t-73.5 -18v-153h-70v155q-93 12 -150 67t-59 155h70q5 -72 42 -108.5t97 -45.5v276
q-35 12 -68.5 26t-59.5 36t-42 53.5t-16 77.5q0 43 15 78t40.5 60.5t59 42t71.5 21.5v154zM466 171q0 28 -10 48.5t-27.5 35.5t-40.5 26.5t-49 20.5v-253q25 3 48.5 12t40.5 24t27.5 36.5t10.5 49.5zM153 518q0 -26 9 -44.5t24.5 -32.5t37 -24t45.5 -19v251
q-51 -9 -83.5 -43t-32.5 -88z" />
    <glyph glyph-name="percent" unicode="%" horiz-adv-x="720" 
d="M183 477q-26 0 -48 9.5t-39 26.5t-26.5 39t-9.5 48q0 25 9.5 47.5t26.5 39.5t39 26.5t48 9.5q25 0 47.5 -9.5t39.5 -26.5t26.5 -39.5t9.5 -47.5q0 -26 -9.5 -48t-26.5 -39t-39.5 -26.5t-47.5 -9.5zM183 653q-22 0 -37.5 -15.5t-15.5 -37.5t15.5 -37.5t37.5 -15.5
q23 0 38 15.5t15 37.5t-15 37.5t-38 15.5zM537 -23q-26 0 -48 9.5t-39 26.5t-26.5 39t-9.5 48q0 25 9.5 47.5t26.5 39.5t39 26.5t48 9.5q25 0 47.5 -9.5t39.5 -26.5t26.5 -39.5t9.5 -47.5q0 -26 -9.5 -48t-26.5 -39t-39.5 -26.5t-47.5 -9.5zM537 153q-22 0 -37.5 -15.5
t-15.5 -37.5t15.5 -37.5t37.5 -15.5t37.5 15.5t15.5 37.5t-15.5 37.5t-37.5 15.5zM305 0h-74l228 700h74z" />
    <glyph glyph-name="notequal" unicode="&#x2260;" horiz-adv-x="598" 
d="M60 178v70h190l23 70h-213v70h236l58 178h74l-58 -178h168v-70h-191l-23 -70h214v-70h-236l-58 -178h-74l58 178h-168z" />
    <glyph glyph-name="degree" unicode="&#xb0;" horiz-adv-x="366" 
d="M183 612q-26 0 -48 9.5t-39 26.5t-26.5 39t-9.5 48q0 25 9.5 47.5t26.5 39.5t39 26.5t48 9.5q25 0 47.5 -9.5t39.5 -26.5t26.5 -39.5t9.5 -47.5q0 -26 -9.5 -48t-26.5 -39t-39.5 -26.5t-47.5 -9.5zM183 788q-22 0 -37.5 -15.5t-15.5 -37.5t15.5 -37.5t37.5 -15.5
q23 0 38 15.5t15 37.5t-15 37.5t-38 15.5z" />
    <glyph glyph-name="ring" unicode="&#x2da;" horiz-adv-x="366" 
d="M183 570q-26 0 -48 9.5t-39 26.5t-26.5 39t-9.5 48q0 25 9.5 47.5t26.5 39.5t39 26.5t48 9.5q25 0 47.5 -9.5t39.5 -26.5t26.5 -39.5t9.5 -47.5q0 -26 -9.5 -48t-26.5 -39t-39.5 -26.5t-47.5 -9.5zM183 746q-22 0 -37.5 -15.5t-15.5 -37.5t15.5 -37.5t37.5 -15.5
q23 0 38 15.5t15 37.5t-15 37.5t-38 15.5z" />
    <glyph glyph-name="plusminus" unicode="&#xb1;" horiz-adv-x="462" 
d="M266 112h-70v136h-136v70h136v136h70v-136h136v-70h-136v-136zM61 70h341v-70h-341v70z" />
    <glyph glyph-name="hungarumlaut" unicode="&#x2dd;" horiz-adv-x="332" 
d="M94 755h70l-54 -163h-50zM202 755h70l-54 -163h-50z" />
    <glyph glyph-name="breve" unicode="&#x2d8;" horiz-adv-x="380" 
d="M190 570q-27 0 -50.5 10t-41 28t-28 41.5t-10.5 50.5h70q0 -25 17.5 -42.5t42.5 -17.5q26 0 43 17.5t17 42.5h70q0 -27 -10 -50.5t-28 -41.5t-41.5 -28t-50.5 -10z" />
    <glyph glyph-name="infinity" unicode="&#x221e;" horiz-adv-x="707" 
d="M595 376q25 -18 38.5 -42.5t13.5 -50.5q0 -27 -13.5 -51t-38.5 -42q-23 -16 -51.5 -24.5t-60.5 -8.5q-64 0 -111 33q-11 7 -18 15l-18 -15q-47 -33 -111 -33q-65 0 -112 33q-53 37 -53 93q0 26 13.5 50.5t39.5 42.5q47 33 112 33q64 0 111 -33l18 -15q7 7 18 15
q47 33 111 33q32 0 60.5 -8.5t51.5 -24.5zM225 227q42 0 68 18t26 38t-26 38t-68 18t-68.5 -18t-26.5 -38t26.5 -38t68.5 -18zM483 227q42 0 68 18t26 38t-26 38t-68 18t-68 -18t-26 -38t26 -38t68 -18z" />
    <glyph glyph-name="exclamdbl" unicode="&#x203c;" horiz-adv-x="376" 
d="M60 700h70v-500h-70v500zM60 12q0 14 10.5 24.5t24.5 10.5t24.5 -10.5t10.5 -24.5t-10.5 -24.5t-24.5 -10.5t-24.5 10.5t-10.5 24.5zM246 700h70v-500h-70v500zM246 12q0 14 10.5 24.5t24.5 10.5t24.5 -10.5t10.5 -24.5t-10.5 -24.5t-24.5 -10.5t-24.5 10.5t-10.5 24.5z
" />
    <glyph glyph-name="lessequal" unicode="&#x2264;" horiz-adv-x="517" 
d="M60 318v77l397 173v-77l-309 -135l309 -134v-77zM60 0v70h397v-70h-397z" />
    <glyph glyph-name="greaterequal" unicode="&#x2265;" horiz-adv-x="517" 
d="M60 145v77l309 134l-309 135v77l397 -173v-77zM60 0v70h397v-70h-397z" />
    <glyph glyph-name="exclamdown" unicode="&#xa1;" 
d="M60 0.0429688h70v499.969h-70v-499.969zM60 688.001q0 -13.999 10.5 -24.499q10.5 -10.499 24.5 -10.499t24.5 10.499q10.5 10.5 10.5 24.499t-10.5 24.498q-10.5 10.5 -24.5 10.5t-24.5 -10.5q-10.5 -10.499 -10.5 -24.498z" />
    <glyph glyph-name="perthousand" unicode="&#x2030;" horiz-adv-x="1030" 
d="M183 477q-26 0 -48 9.5t-39 26.5t-26.5 39t-9.5 48q0 25 9.5 47.5t26.5 39.5t39 26.5t48 9.5q25 0 47.5 -9.5t39.5 -26.5t26.5 -39.5t9.5 -47.5q0 -26 -9.5 -48t-26.5 -39t-39.5 -26.5t-47.5 -9.5zM183 653q-22 0 -37.5 -15.5t-15.5 -37.5t15.5 -37.5t37.5 -15.5
q23 0 38 15.5t15 37.5t-15 37.5t-38 15.5zM537 -23q-26 0 -48 9.5t-39 26.5t-26.5 39t-9.5 48q0 25 9.5 47.5t26.5 39.5t39 26.5t48 9.5q25 0 47.5 -9.5t39.5 -26.5t26.5 -39.5t9.5 -47.5q0 -26 -9.5 -48t-26.5 -39t-39.5 -26.5t-47.5 -9.5zM537 153q-22 0 -37.5 -15.5
t-15.5 -37.5t15.5 -37.5t37.5 -15.5t37.5 15.5t15.5 37.5t-15.5 37.5t-37.5 15.5zM847 -23q-26 0 -48 9.5t-39 26.5t-26.5 39t-9.5 48q0 25 9.5 47.5t26.5 39.5t39 26.5t48 9.5q25 0 47.5 -9.5t39.5 -26.5t26.5 -39.5t9.5 -47.5q0 -26 -9.5 -48t-26.5 -39t-39.5 -26.5
t-47.5 -9.5zM847 153q-22 0 -37.5 -15.5t-15.5 -37.5t15.5 -37.5t37.5 -15.5t37.5 15.5t15.5 37.5t-15.5 37.5t-37.5 15.5zM283 0h-74l228 700h74z" />
    <glyph glyph-name="paragraph" unicode="&#xb6;" horiz-adv-x="700" 
d="M60 486q0 99 58.5 156.5t161.5 57.5h360v-70h-98v-630h-70v630h-98v-630h-70v273q-115 0 -179.5 55t-64.5 158z" />
    <glyph glyph-name="divide" unicode="&#xf7;" horiz-adv-x="462" 
d="M60 215v70h342v-70h-342zM196 42q0 18 12 30.5t30 12.5t30.5 -12.5t12.5 -30.5t-12.5 -30t-30.5 -12t-30 12t-12 30zM196 457q0 18 12 30.5t30 12.5t30.5 -12.5t12.5 -30.5t-12.5 -30t-30.5 -12t-30 12t-12 30z" />
    <glyph glyph-name="onedotenleader" unicode="&#x2024;" 
d="M53 42q0 18 12 30.5t30 12.5t30.5 -12.5t12.5 -30.5t-12.5 -30t-30.5 -12t-30 12t-12 30z" />
    <glyph glyph-name="approxequal" unicode="&#x2248;" horiz-adv-x="673" 
d="M458 296q-30 0 -55.5 8t-45 17.5t-31 18t-12.5 10.5l-8 6t-21.5 12.5t-31.5 12t-38 5.5q-26 0 -45 -5.5t-33 -11.5q-16 -8 -27 -17l-50 49q2 2 12 10.5t30 18.5q50 26 113 26q30 0 55.5 -8t44.5 -17.5t30.5 -18t13.5 -9.5l8 -6t21.5 -13t31.5 -12.5t38 -5.5
q26 0 45.5 5.5t32.5 12t20 12l7 5.5l50 -49q-2 -2 -12 -10.5t-30 -18.5q-25 -14 -54 -20.5t-59 -6.5zM458 153q-30 0 -55.5 8t-45 17.5t-31 18t-12.5 9.5l-8 6t-21.5 13t-31.5 12.5t-38 5.5q-26 0 -45 -5.5t-33 -11.5q-16 -8 -27 -17l-50 49q2 1 12 9.5t30 19.5
q50 26 113 26q30 0 55.5 -8t44.5 -17.5t30.5 -18t13.5 -9.5l8 -6t21.5 -13t31.5 -12.5t38 -5.5q26 0 45.5 5.5t32.5 12t20 12l7 5.5l50 -49q-2 -2 -12 -10.5t-30 -19.5q-25 -13 -54 -19.5t-59 -6.5z" />
    <glyph glyph-name="logicalnot" unicode="&#xac;" horiz-adv-x="614" 
d="M60 300h494v-300h-70v230h-424v70z" />
    <glyph glyph-name="partialdiff" unicode="&#x2202;" horiz-adv-x="687" 
d="M608 251q-5 -35 -17 -69q-11 -29 -29.5 -62.5t-50.5 -62.5q-42 -38 -93.5 -59t-106.5 -21q-54 0 -101.5 21.5t-82 59t-52.5 87t-13 106.5q4 54 29.5 103.5t66 87t92.5 60t109 22.5q55 0 104 -22t91 -69q4 53 -8 94t-37.5 69t-61 42.5t-77.5 14.5q-54 0 -100 -25t-78 -67
l-54 41q46 58 109 89.5t129 31.5q52 0 99 -20t81.5 -55.5t53.5 -83t16 -102.5zM538 251q4 42 -9 79t-38.5 64.5t-61 43.5t-77.5 16t-80 -16t-68 -43.5t-49 -64.5t-23 -79t9 -79.5t38 -65t60.5 -43.5t77.5 -16t80.5 16t68.5 43.5t49 65t23 79.5z" />
    <glyph glyph-name="brokenbar" unicode="&#xa6;" 
d="M60 874h70v-413h-70v413zM60 -174v413h70v-413h-70z" />
    <glyph glyph-name="ordfeminine" unicode="&#xaa;" horiz-adv-x="503" 
d="M252 723q39 0 74 -15t61 -41t41 -61t15 -75v-182h-70v35q-25 -20 -55.5 -32t-65.5 -12q-40 0 -75 15t-61 41t-41 61t-15 74q0 40 15 75t41 61t61 41t75 15zM252 410q25 0 47 9.5t38.5 26t26 38.5t9.5 47t-9.5 47.5t-26 39t-38.5 26t-47 9.5t-47.5 -9.5t-39 -26t-26 -39
t-9.5 -47.5t9.5 -47t26 -38.5t39 -26t47.5 -9.5z" />
    <glyph glyph-name="ordmasculine" unicode="&#xba;" horiz-adv-x="503" 
d="M252 340q-40 0 -75 15t-61 41t-41 61t-15 74q0 40 15 75t41 61t61 41t75 15q39 0 74 -15t61 -41t41 -61t15 -75q0 -39 -15 -74t-41 -61t-61 -41t-74 -15zM252 653q-25 0 -47.5 -9.5t-39 -26t-26 -39t-9.5 -47.5t9.5 -47t26 -38.5t39 -26t47.5 -9.5t47 9.5t38.5 26
t26 38.5t9.5 47t-9.5 47.5t-26 39t-38.5 26t-47 9.5z" />
    <glyph glyph-name="zerosuperior" unicode="&#x2070;" horiz-adv-x="340" 
d="M60 612q0 23 8.5 43t23.5 35t35 24t42 9q23 0 43.5 -9t35.5 -24t23.5 -35t8.5 -43t-8.5 -42.5t-23.5 -34.5t-35.5 -23.5t-43.5 -8.5q-22 0 -42 7.5t-35 22t-23.5 34.5t-8.5 45zM80 612q0 -18 7 -34t19.5 -28.5t28.5 -19.5t34 -7q19 0 35.5 7t29 19.5t19.5 28.5t7 34
q0 38 -26.5 64t-64.5 26q-18 0 -34 -7t-28.5 -19t-19.5 -28.5t-7 -35.5z" />
    <glyph glyph-name="onesuperior" unicode="&#xb9;" horiz-adv-x="169" 
d="M109 700v-197h-20v177h-29v20h49v0z" />
    <glyph glyph-name="twosuperior" unicode="&#xb2;" horiz-adv-x="261" 
d="M157.753 703.319q9.68164 -9.69336 14.6738 -22.1123q4.99219 -12.4199 4.99219 -25.4453t-4.84082 -25.2939q-4.84082 -12.2676 -14.8252 -21.9609l-87.7393 -83.3027h110.128v-21.2041h-140.988v21.2041l103.774 97.8428q6.65625 6.66406 10.1357 15.2969
t3.47949 17.418q0 8.78418 -3.47949 17.2666q-3.47949 8.48145 -10.1357 15.1455q-6.95801 6.66406 -15.4297 10.1475t-17.0938 3.4834q-8.62305 0 -17.0947 -3.33203t-15.4297 -10.2988q-6.35352 -6.36133 -9.68164 -14.3887t-3.93359 -16.5088h-21.1787
q0.302734 12.7227 5.14355 24.5361t14.5225 21.5068q9.98438 9.99707 22.2373 14.8438q12.2539 4.84668 25.2637 4.84668t25.2627 -4.84668t22.2373 -14.8438z" />
    <glyph glyph-name="threesuperior" unicode="&#xb3;" horiz-adv-x="269" 
d="M169.118 700.21v-0.271484l0.270508 0.271484v-19.0205l-37.6602 -30.9775q2.70996 -0.543945 5.14844 -1.49414q2.4375 -0.951172 4.87598 -2.03809q10.0254 -4.34766 18.4238 -11.2773q8.39941 -6.92871 14.3594 -15.7598q5.96094 -8.83105 9.34766 -19.4287
t3.38672 -22.2822q0 -15.4883 -5.8252 -29.0742q-5.8252 -13.5869 -15.9854 -23.7764q-10.1602 -10.1904 -23.707 -16.0322q-13.5459 -5.8418 -28.9893 -5.8418q-11.6504 0 -22.2168 3.39648t-19.5078 9.375q-8.94043 5.97754 -15.8496 14.4014
q-6.90918 8.42285 -11.2441 18.4775q-5.68945 13.3145 -5.68945 28.8027h18.9658q0 -11.6836 4.33496 -21.4668q6.50195 -14.9443 20.1846 -24.4551t31.0225 -9.51074q11.3789 0 21.5391 4.34766t17.7461 11.9561t11.9209 17.7988q4.33496 10.1895 4.33496 21.6016
q0 7.88086 -2.57324 16.168q-2.57422 8.28809 -7.58691 15.4893q-5.01172 7.2002 -12.7334 12.6348t-18.0176 7.87988q-14.6299 2.44629 -27.0938 0.543945v20.3799l40.9111 30.1621h-92.1172v19.0205h120.024z" />
    <glyph glyph-name="foursuperior" unicode="&#x2074;" horiz-adv-x="251" 
d="M146.82 558.161h23.0527v-19.7002h-23.0527v-35.4609h-19.6787v35.4609h-88.2744l39.0771 161.542h20.2412l-34.2979 -141.842h63.2539v34.6162h19.6787v-34.6162z" />
    <glyph glyph-name="fivesuperior" unicode="&#x2075;" horiz-adv-x="269" 
d="M74.29 641.788q18.4238 11.1416 38.4736 10.8691q15.4434 0 28.9893 -5.8418q13.5469 -5.84277 23.707 -16.0322t15.9854 -23.7764q5.8252 -13.5859 5.8252 -29.0752q0 -15.4883 -5.8252 -29.0742q-5.8252 -13.5869 -15.9854 -23.7764
q-10.1602 -10.1904 -23.707 -16.0322q-13.5459 -5.8418 -28.9893 -5.8418q-11.6504 0 -22.2168 3.39648t-19.5078 9.375q-8.94043 5.97754 -15.8496 14.4014q-6.90918 8.42285 -11.2441 18.4775q-5.68945 13.3145 -5.68945 28.8027h18.9658q0 -11.6836 4.33496 -21.4668
q6.50195 -14.9443 20.1846 -24.4551t31.0225 -9.51074q11.3789 0 21.5391 4.34766t17.7461 11.9561t11.9209 17.7988q4.33496 10.1895 4.33496 21.6016q0 11.4131 -4.33496 21.6025q-4.33496 10.1904 -11.9209 17.7988t-18.0176 11.9561q-10.4307 4.34766 -22.623 4.34766
q-13.0049 0 -24.3838 -4.4834t-18.1523 -13.7227h-18.9658l16.7979 84.7793h94.2852v-19.0205h-79.1123z" />
    <glyph glyph-name="sixsuperior" unicode="&#x2076;" horiz-adv-x="281" 
d="M62.2803 526.811q-11.499 11.502 -17.5439 26.248t-6.04492 30.9668v62.2285q0 16.2207 6.04492 29.1973t17.5439 24.1836q11.2051 11.502 25.9482 17.5479t30.96 6.0459q19.4609 0 37.1523 -9.29004q17.6924 -9.29004 29.7812 -26.3955l-16.8066 -12.0918
q-8.25684 12.3867 -21.2305 19.7598t-28.8965 7.37305q-12.3838 0 -23.2939 -4.12891t-19.0186 -11.6494t-12.8262 -17.8428t-4.71777 -22.709v-8.55273q13.5635 13.8613 28.6016 20.3496t31.2549 6.48828q16.2178 0 30.9609 -6.19336t25.9473 -17.4004
q11.5 -11.502 17.5439 -26.248q6.04492 -14.7461 6.04492 -30.6719q0 -16.2207 -6.04492 -30.9668q-6.04395 -14.7461 -17.5439 -26.248q-11.2041 -11.207 -25.9473 -17.4004t-30.9609 -6.19336q-16.2168 0 -30.96 6.19336t-25.9482 17.4004zM119.188 643.895
q-12.3838 0 -23.2939 -4.71875t-19.0186 -12.8291t-12.8262 -19.0225t-4.71777 -23.2988t4.71777 -23.4463t12.8262 -19.1699t19.0186 -12.8291t23.2939 -4.71875q12.3848 0 23.2939 4.71875q10.9102 4.71875 19.0186 12.8291t12.8271 19.1699
q4.7168 11.0596 4.7168 23.4463t-4.7168 23.2988q-4.71875 10.9121 -12.8271 19.0225t-19.0186 12.8291q-10.9092 4.71875 -23.2939 4.71875z" />
    <glyph glyph-name="sevensuperior" unicode="&#x2077;" horiz-adv-x="252" 
d="M62.8076 503h-23.9219l97.0947 177.303h-97.0947v19.7002h131.992z" />
    <glyph glyph-name="eightsuperior" unicode="&#x2078;" horiz-adv-x="268" 
d="M164.884 630.486q10.5713 -10.5684 16.1504 -23.9268q5.5791 -13.3574 5.5791 -28.3301t-5.5791 -28.3301q-5.5791 -13.3584 -16.1504 -23.9268q-10.2773 -10.5693 -23.7852 -16.1465q-13.5068 -5.57812 -28.4834 -5.57812q-14.9756 0 -28.3359 5.57812
q-13.3604 5.57715 -23.9316 16.1465q-10.2773 10.5684 -16.0029 23.9268q-5.72656 13.3574 -5.72656 28.3301t5.72656 28.3301q5.72559 13.3584 16.0029 23.9268q9.39648 9.39453 20.2617 14.3857q-6.46094 6.16504 -10.1309 14.6787q-3.6709 8.51367 -3.6709 17.9082
t3.6709 17.7617q3.66992 8.36719 9.83691 14.5322q6.16602 6.16504 14.5352 9.83496q8.36816 3.66992 17.7646 3.66992t17.7656 -3.66992t14.6816 -9.83496q6.31348 -6.16504 9.98438 -14.5322q3.66992 -8.36719 3.66992 -17.7617t-3.66992 -17.9082
q-3.6709 -8.51367 -10.1309 -14.6787q10.8652 -5.28418 19.9678 -14.3857zM87.3623 677.459q0 -5.28418 2.05566 -9.83496q2.05566 -4.5498 5.43262 -7.92578q3.37695 -3.37695 7.92773 -5.43164q4.55176 -2.05469 9.83691 -2.05469q5.28613 0 9.98438 2.05469
t8.0752 5.43164q3.37695 3.37598 5.43262 7.92578q2.05469 4.55078 2.05469 9.83496q0 10.5693 -7.4873 17.9082q-7.48828 7.33984 -18.0596 7.33984q-5.28516 0 -9.83691 -1.9082q-4.55078 -1.9082 -7.92773 -5.43164q-3.37695 -3.52246 -5.43262 -8.07324
q-2.05566 -4.5498 -2.05566 -9.83496zM112.615 524.798q10.8652 0 20.7021 4.25684q9.83691 4.25781 17.0312 11.4502t11.4521 16.8809q4.25781 9.6875 4.25781 20.8438q0 10.8623 -4.25781 20.6973t-11.4521 17.0273q-7.19434 7.19336 -17.0312 11.4502t-20.7021 4.25684
q-11.1582 0 -20.8477 -4.25684q-9.69043 -4.25684 -16.8848 -11.4502q-7.19434 -7.19238 -11.4521 -17.0273t-4.25781 -20.6973q0 -11.1562 4.25781 -20.8438q4.25781 -9.68848 11.4521 -16.8809t16.8848 -11.4502q9.68945 -4.25684 20.8477 -4.25684z" />
    <glyph glyph-name="ninesuperior" unicode="&#x2079;" horiz-adv-x="281" 
d="M158.729 699.193q11.4971 -11.5 17.54 -26.2432q6.04395 -14.7432 6.04395 -30.96v-62.2158q0 -16.2178 -6.04395 -29.1914q-6.04297 -12.9736 -17.54 -24.1787q-11.2031 -11.499 -25.9434 -17.5439q-14.7393 -6.04492 -30.9531 -6.04492q-19.457 0 -37.1455 9.28809
q-17.6875 9.28809 -29.7744 26.3906l16.8037 12.0889q8.25391 -12.3838 21.2256 -19.7559q12.9707 -7.37109 28.8906 -7.37109q12.3809 0 23.2891 4.12793q10.9072 4.12793 19.0146 11.6465q8.10645 7.51953 12.8232 17.8398t4.7168 22.7041v8.55078
q-13.5605 -13.8584 -28.5957 -20.3457q-15.0342 -6.48633 -31.248 -6.48633q-16.2148 0 -30.9541 6.19141q-14.7402 6.19238 -25.9424 17.3975q-11.4971 11.499 -17.541 26.2422q-6.04297 14.7432 -6.04297 30.666q0 16.2168 6.04297 30.96q6.04395 14.7432 17.541 26.2432
q11.2021 11.2041 25.9424 17.3965q14.7393 6.19238 30.9541 6.19238q16.2139 0 30.9531 -6.19238q14.7402 -6.19238 25.9434 -17.3965zM101.832 582.133q12.3809 0 23.2891 4.71777q10.9072 4.71777 19.0146 12.8271q8.10645 8.1084 12.8232 19.0186
q4.7168 10.9092 4.7168 23.2939q0 12.3838 -4.7168 23.4414q-4.7168 11.0566 -12.8232 19.166q-8.10742 8.1084 -19.0146 12.8262q-10.9082 4.71777 -23.2891 4.71777q-12.3818 0 -23.2891 -4.71777q-10.9082 -4.71777 -19.0146 -12.8262
q-8.10742 -8.10938 -12.8242 -19.166q-4.7168 -11.0576 -4.7168 -23.4414q0 -12.3848 4.7168 -23.2939q4.7168 -10.9102 12.8242 -19.0186q8.10645 -8.10938 19.0146 -12.8271q10.9072 -4.71777 23.2891 -4.71777z" />
    <glyph glyph-name="parenleftsuperior" unicode="&#x207d;" horiz-adv-x="171" 
d="M35.3008 599.673q0 12.8584 1.42969 25.4746q1.42969 12.6152 4.52832 24.9893q4.76758 20.1367 12.8711 38.8184q3.5752 8.00586 6.91113 14.3145q3.33691 6.30762 5.95898 10.6748t4.29004 6.67188q1.66895 2.30469 1.90723 2.54688l13.1084 -10.4316
q-2.86035 -3.63965 -5.48145 -8.24902q-5.00586 -8.24902 -11.6787 -23.0488q-7.62695 -17.2256 -11.917 -35.6641q-2.62207 -11.4033 -3.93359 -22.9277q-1.31055 -11.5234 -1.31055 -23.1689t1.31055 -23.1699q1.31152 -11.5244 3.93359 -22.9268
q4.29004 -18.4395 11.917 -35.665q3.33691 -7.52051 6.19629 -13.2227q2.86035 -5.70117 5.48242 -9.8252q2.62109 -4.61035 5.48145 -8.24902l-13.1084 -10.4326q-0.238281 0.242188 -1.90723 2.54785q-1.66797 2.30469 -4.29004 6.67188
q-2.62207 4.36621 -5.95898 10.6748q-3.33594 6.30762 -6.91113 14.3145q-8.10352 18.6807 -12.8711 38.8184q-3.09863 12.373 -4.52832 24.9893t-1.42969 25.4746z" />
    <glyph glyph-name="parenrightsuperior" unicode="&#x207e;" horiz-adv-x="171" 
d="M69.7031 599.673q0 12.8584 -1.42969 25.4746q-1.42969 12.6152 -4.52734 24.9893q-4.76562 20.1367 -12.8672 38.8184q-3.57422 8.00586 -6.91016 14.3145q-3.33594 6.30762 -5.95703 10.6748t-4.28906 6.67188t-1.90625 2.54688l-13.1055 -10.4316
q2.85938 -3.63965 5.48047 -8.24902q5.00391 -8.24902 11.6758 -23.0488q7.625 -17.2256 11.9141 -35.6641q2.62109 -11.4033 3.93164 -22.9277q1.31055 -11.5234 1.31055 -23.1689t-1.31055 -23.1699t-3.93164 -22.9268q-4.28906 -18.4395 -11.9141 -35.665
q-3.33594 -7.52051 -6.19531 -13.2227q-2.85938 -5.70117 -5.48047 -9.8252q-2.62109 -4.61035 -5.48047 -8.24902l13.1055 -10.4326q0.238281 0.242188 1.90625 2.54785q1.66797 2.30469 4.28906 6.67188q2.62109 4.36621 5.95703 10.6748q3.33594 6.30762 6.91016 14.3145
q8.10156 18.6807 12.8672 38.8184q3.09766 12.373 4.52734 24.9893t1.42969 25.4746z" />
    <glyph glyph-name="zeroinferior" unicode="&#x2080;" horiz-adv-x="340" 
d="M60 109q0 23 8.5 43t23.5 35t35 24t42 9q23 0 43.5 -9t35.5 -24t23.5 -35t8.5 -43t-8.5 -42.5t-23.5 -34.5t-35.5 -23.5t-43.5 -8.5q-22 0 -42 7.5t-35 22t-23.5 34.5t-8.5 45zM80 109q0 -18 7 -34t19.5 -28.5t28.5 -19.5t34 -7q19 0 35.5 7t29 19.5t19.5 28.5t7 34
q0 38 -26.5 64t-64.5 26q-18 0 -34 -7t-28.5 -19t-19.5 -28.5t-7 -35.5z" />
    <glyph glyph-name="oneinferior" unicode="&#x2081;" horiz-adv-x="169" 
d="M109 197v-197h-20v177h-29v20h49z" />
    <glyph glyph-name="twoinferior" unicode="&#x2082;" horiz-adv-x="261" 
d="M157.753 199.319q9.68164 -9.69336 14.6738 -22.1123q4.99219 -12.4199 4.99219 -25.4453t-4.84082 -25.2939q-4.84082 -12.2676 -14.8252 -21.9609l-87.7393 -83.3027h110.128v-21.2041h-140.988v21.2041l103.774 97.8428q6.65625 6.66406 10.1357 15.2969
t3.47949 17.418q0 8.78418 -3.47949 17.2666q-3.47949 8.48145 -10.1357 15.1455q-6.95801 6.66406 -15.4297 10.1475t-17.0938 3.4834q-8.62305 0 -17.0947 -3.33203t-15.4297 -10.2988q-6.35352 -6.36133 -9.68164 -14.3887t-3.93359 -16.5088h-21.1787
q0.302734 12.7227 5.14355 24.5361t14.5225 21.5068q9.98438 9.99707 22.2373 14.8438q12.2539 4.84668 25.2637 4.84668t25.2627 -4.84668t22.2373 -14.8438z" />
    <glyph glyph-name="threeinferior" unicode="&#x2083;" horiz-adv-x="269" 
d="M169.118 197.21v-0.271484l0.270508 0.271484v-19.0205l-37.6602 -30.9775q2.70996 -0.543945 5.14844 -1.49414q2.4375 -0.951172 4.87598 -2.03809q10.0254 -4.34766 18.4238 -11.2773q8.39941 -6.92871 14.3594 -15.7598q5.96094 -8.83105 9.34766 -19.4287
t3.38672 -22.2822q0 -15.4883 -5.8252 -29.0742q-5.8252 -13.5869 -15.9854 -23.7764q-10.1602 -10.1904 -23.707 -16.0322q-13.5459 -5.8418 -28.9893 -5.8418q-11.6504 0 -22.2168 3.39648t-19.5078 9.375q-8.94043 5.97754 -15.8496 14.4014
q-6.90918 8.42285 -11.2441 18.4775q-5.68945 13.3145 -5.68945 28.8027h18.9658q0 -11.6836 4.33496 -21.4668q6.50195 -14.9443 20.1846 -24.4551t31.0225 -9.51074q11.3789 0 21.5391 4.34766t17.7461 11.9561t11.9209 17.7988q4.33496 10.1895 4.33496 21.6016
q0 7.88086 -2.57324 16.168q-2.57422 8.28809 -7.58691 15.4893q-5.01172 7.2002 -12.7334 12.6348t-18.0176 7.87988q-14.6299 2.44629 -27.0938 0.543945v20.3799l40.9111 30.1621h-92.1172v19.0205h120.024z" />
    <glyph glyph-name="fourinferior" unicode="&#x2084;" horiz-adv-x="251" 
d="M146.82 55.1611h23.0527v-19.7002h-23.0527v-35.4609h-19.6787v35.4609h-88.2744l39.0771 161.542h20.2412l-34.2979 -141.842h63.2539v34.6162h19.6787v-34.6162z" />
    <glyph glyph-name="fiveinferior" unicode="&#x2085;" horiz-adv-x="269" 
d="M74.29 138.788q18.4238 11.1416 38.4736 10.8691q15.4434 0 28.9893 -5.8418q13.5469 -5.84277 23.707 -16.0322t15.9854 -23.7764q5.8252 -13.5859 5.8252 -29.0752q0 -15.4883 -5.8252 -29.0742q-5.8252 -13.5869 -15.9854 -23.7764
q-10.1602 -10.1904 -23.707 -16.0322q-13.5459 -5.8418 -28.9893 -5.8418q-11.6504 0 -22.2168 3.39648t-19.5078 9.375q-8.94043 5.97754 -15.8496 14.4014q-6.90918 8.42285 -11.2441 18.4775q-5.68945 13.3145 -5.68945 28.8027h18.9658q0 -11.6836 4.33496 -21.4668
q6.50195 -14.9443 20.1846 -24.4551t31.0225 -9.51074q11.3789 0 21.5391 4.34766t17.7461 11.9561t11.9209 17.7988q4.33496 10.1895 4.33496 21.6016q0 11.4131 -4.33496 21.6025q-4.33496 10.1904 -11.9209 17.7988t-18.0176 11.9561q-10.4307 4.34766 -22.623 4.34766
q-13.0049 0 -24.3838 -4.4834t-18.1523 -13.7227h-18.9658l16.7979 84.7793h94.2852v-19.0205h-79.1123z" />
    <glyph glyph-name="sixinferior" unicode="&#x2086;" horiz-adv-x="281" 
d="M62.2803 23.8105q-11.499 11.502 -17.5439 26.248t-6.04492 30.9668v62.2285q0 16.2207 6.04492 29.1973t17.5439 24.1836q11.2051 11.502 25.9482 17.5479t30.96 6.0459q19.4609 0 37.1523 -9.29004q17.6924 -9.29004 29.7812 -26.3955l-16.8066 -12.0918
q-8.25684 12.3867 -21.2305 19.7598t-28.8965 7.37305q-12.3838 0 -23.2939 -4.12891t-19.0186 -11.6494t-12.8262 -17.8428t-4.71777 -22.709v-8.55273q13.5635 13.8613 28.6016 20.3496t31.2549 6.48828q16.2178 0 30.9609 -6.19336t25.9473 -17.4004
q11.5 -11.502 17.5439 -26.248q6.04492 -14.7461 6.04492 -30.6719q0 -16.2207 -6.04492 -30.9668q-6.04395 -14.7461 -17.5439 -26.248q-11.2041 -11.207 -25.9473 -17.4004t-30.9609 -6.19336q-16.2168 0 -30.96 6.19336t-25.9482 17.4004zM119.188 140.895
q-12.3838 0 -23.2939 -4.71875t-19.0186 -12.8291t-12.8262 -19.0225t-4.71777 -23.2988t4.71777 -23.4463t12.8262 -19.1699t19.0186 -12.8291t23.2939 -4.71875q12.3848 0 23.2939 4.71875q10.9102 4.71875 19.0186 12.8291t12.8271 19.1699
q4.7168 11.0596 4.7168 23.4463t-4.7168 23.2988q-4.71875 10.9121 -12.8271 19.0225t-19.0186 12.8291q-10.9092 4.71875 -23.2939 4.71875z" />
    <glyph glyph-name="seveninferior" unicode="&#x2087;" horiz-adv-x="252" 
d="M62.8076 0h-23.9219l97.0947 177.303h-97.0947v19.7002h131.992z" />
    <glyph glyph-name="eightinferior" unicode="&#x2088;" horiz-adv-x="268" 
d="M164.884 126.486q10.5713 -10.5684 16.1504 -23.9268q5.5791 -13.3574 5.5791 -28.3301t-5.5791 -28.3301q-5.5791 -13.3584 -16.1504 -23.9268q-10.2773 -10.5693 -23.7852 -16.1465q-13.5068 -5.57812 -28.4834 -5.57812q-14.9756 0 -28.3359 5.57812
q-13.3604 5.57715 -23.9316 16.1465q-10.2773 10.5684 -16.0029 23.9268q-5.72656 13.3574 -5.72656 28.3301t5.72656 28.3301q5.72559 13.3584 16.0029 23.9268q9.39648 9.39453 20.2617 14.3857q-6.46094 6.16504 -10.1309 14.6787q-3.6709 8.51367 -3.6709 17.9082
t3.6709 17.7617q3.66992 8.36719 9.83691 14.5322q6.16602 6.16504 14.5352 9.83496q8.36816 3.66992 17.7646 3.66992t17.7656 -3.66992t14.6816 -9.83496q6.31348 -6.16504 9.98438 -14.5322q3.66992 -8.36719 3.66992 -17.7617t-3.66992 -17.9082
q-3.6709 -8.51367 -10.1309 -14.6787q10.8652 -5.28418 19.9678 -14.3857zM87.3623 173.459q0 -5.28418 2.05566 -9.83496q2.05566 -4.5498 5.43262 -7.92578q3.37695 -3.37695 7.92773 -5.43164q4.55176 -2.05469 9.83691 -2.05469q5.28613 0 9.98438 2.05469
t8.0752 5.43164q3.37695 3.37598 5.43262 7.92578q2.05469 4.55078 2.05469 9.83496q0 10.5693 -7.4873 17.9082q-7.48828 7.33984 -18.0596 7.33984q-5.28516 0 -9.83691 -1.9082q-4.55078 -1.9082 -7.92773 -5.43164q-3.37695 -3.52246 -5.43262 -8.07324
q-2.05566 -4.5498 -2.05566 -9.83496zM112.615 20.7979q10.8652 0 20.7021 4.25684q9.83691 4.25781 17.0312 11.4502t11.4521 16.8809q4.25781 9.6875 4.25781 20.8438q0 10.8623 -4.25781 20.6973t-11.4521 17.0273q-7.19434 7.19336 -17.0312 11.4502t-20.7021 4.25684
q-11.1582 0 -20.8477 -4.25684q-9.69043 -4.25684 -16.8848 -11.4502q-7.19434 -7.19238 -11.4521 -17.0273t-4.25781 -20.6973q0 -11.1562 4.25781 -20.8438q4.25781 -9.68848 11.4521 -16.8809t16.8848 -11.4502q9.68945 -4.25684 20.8477 -4.25684z" />
    <glyph glyph-name="nineinferior" unicode="&#x2089;" horiz-adv-x="281" 
d="M158.729 196.193q11.4971 -11.5 17.54 -26.2432q6.04395 -14.7432 6.04395 -30.96v-62.2158q0 -16.2178 -6.04395 -29.1914q-6.04297 -12.9736 -17.54 -24.1787q-11.2031 -11.499 -25.9434 -17.5439q-14.7393 -6.04492 -30.9531 -6.04492q-19.457 0 -37.1455 9.28809
q-17.6875 9.28809 -29.7744 26.3906l16.8037 12.0889q8.25391 -12.3838 21.2256 -19.7559q12.9707 -7.37109 28.8906 -7.37109q12.3809 0 23.2891 4.12793q10.9072 4.12793 19.0146 11.6465q8.10645 7.51953 12.8232 17.8398t4.7168 22.7041v8.55078
q-13.5605 -13.8584 -28.5957 -20.3457q-15.0342 -6.48633 -31.248 -6.48633q-16.2148 0 -30.9541 6.19141q-14.7402 6.19238 -25.9424 17.3975q-11.4971 11.499 -17.541 26.2422q-6.04297 14.7432 -6.04297 30.666q0 16.2168 6.04297 30.96q6.04395 14.7432 17.541 26.2432
q11.2021 11.2041 25.9424 17.3965q14.7393 6.19238 30.9541 6.19238q16.2139 0 30.9531 -6.19238q14.7402 -6.19238 25.9434 -17.3965zM101.832 79.1328q12.3809 0 23.2891 4.71777q10.9072 4.71777 19.0146 12.8271q8.10645 8.1084 12.8232 19.0186
q4.7168 10.9092 4.7168 23.2939q0 12.3838 -4.7168 23.4414q-4.7168 11.0566 -12.8232 19.166q-8.10742 8.1084 -19.0146 12.8262q-10.9082 4.71777 -23.2891 4.71777q-12.3818 0 -23.2891 -4.71777q-10.9082 -4.71777 -19.0146 -12.8262
q-8.10742 -8.10938 -12.8242 -19.166q-4.7168 -11.0576 -4.7168 -23.4414q0 -12.3848 4.7168 -23.2939q4.7168 -10.9102 12.8242 -19.0186q8.10645 -8.10938 19.0146 -12.8271q10.9072 -4.71777 23.2891 -4.71777z" />
    <glyph glyph-name="parenleftinferior" unicode="&#x208d;" horiz-adv-x="171" 
d="M35.3008 100.673q0 12.8584 1.42969 25.4746q1.42969 12.6152 4.52832 24.9893q4.76758 20.1367 12.8711 38.8184q3.5752 8.00586 6.91113 14.3145q3.33691 6.30762 5.95898 10.6748t4.29004 6.67188q1.66895 2.30469 1.90723 2.54688l13.1084 -10.4316
q-2.86035 -3.63965 -5.48145 -8.24902q-5.00586 -8.24902 -11.6787 -23.0488q-7.62695 -17.2256 -11.917 -35.6641q-2.62207 -11.4033 -3.93359 -22.9277q-1.31055 -11.5234 -1.31055 -23.1689t1.31055 -23.1699q1.31152 -11.5244 3.93359 -22.9268
q4.29004 -18.4395 11.917 -35.665q3.33691 -7.52051 6.19629 -13.2227q2.86035 -5.70117 5.48242 -9.8252q2.62109 -4.61035 5.48145 -8.24902l-13.1084 -10.4326q-0.238281 0.242188 -1.90723 2.54785q-1.66797 2.30469 -4.29004 6.67188
q-2.62207 4.36621 -5.95898 10.6748q-3.33594 6.30762 -6.91113 14.3145q-8.10352 18.6807 -12.8711 38.8184q-3.09863 12.373 -4.52832 24.9893t-1.42969 25.4746z" />
    <glyph glyph-name="parenrightinferior" unicode="&#x208e;" horiz-adv-x="171" 
d="M69.7031 100.673q0 12.8584 -1.42969 25.4746q-1.42969 12.6152 -4.52734 24.9893q-4.76562 20.1367 -12.8672 38.8184q-3.57422 8.00586 -6.91016 14.3145q-3.33594 6.30762 -5.95703 10.6748t-4.28906 6.67188t-1.90625 2.54688l-13.1055 -10.4316
q2.85938 -3.63965 5.48047 -8.24902q5.00391 -8.24902 11.6758 -23.0488q7.625 -17.2256 11.9141 -35.6641q2.62109 -11.4033 3.93164 -22.9277q1.31055 -11.5234 1.31055 -23.1689t-1.31055 -23.1699t-3.93164 -22.9268q-4.28906 -18.4395 -11.9141 -35.665
q-3.33594 -7.52051 -6.19531 -13.2227q-2.85938 -5.70117 -5.48047 -9.8252q-2.62109 -4.61035 -5.48047 -8.24902l13.1055 -10.4326q0.238281 0.242188 1.90625 2.54785q1.66797 2.30469 4.28906 6.67188q2.62109 4.36621 5.95703 10.6748q3.33594 6.30762 6.91016 14.3145
q8.10156 18.6807 12.8672 38.8184q3.09766 12.373 4.52734 24.9893t1.42969 25.4746z" />
    <glyph glyph-name="onehalf" unicode="&#xbd;" horiz-adv-x="861" 
d="M234 0l228 700h44l-228 -700h-44zM162 281h-42v376h-60v42h102v-418zM758 380q19 -19 28.5 -42.5t9.5 -48.5t-9.5 -48.5t-28.5 -41.5l-168 -159h211v-40h-270v40l199 187q13 13 19 29.5t6 33t-6 32.5t-19 29q-26 26 -62 26.5t-63 -26.5q-12 -12 -18 -27t-8 -32h-40
q2 52 38 88q19 19 42.5 28t48 9t48 -9t42.5 -28z" />
    <glyph glyph-name="onequarter" unicode="&#xbc;" horiz-adv-x="865" 
d="M234 0l228 700h44l-228 -700h-44zM162 282h-42v376h-60v42h102v-418zM805 117v-42h-49v-75h-41v75h-188l83 343h43l-73 -301h135v73h41v-73h49z" />
    <glyph glyph-name="threequarters" unicode="&#xbe;" horiz-adv-x="973" 
d="M339 699v1v-40l-80 -66l11.5 -4l10.5 -4q43 -18 69.5 -57t26.5 -89q0 -33 -12.5 -61.5t-34 -50t-50 -34t-61.5 -12.5q-51 0 -89.5 27t-57.5 70q-12 28 -12 61h41q0 -12 2 -23.5t7 -22.5q14 -32 43 -52t66 -20q24 0 45.5 9.5t37.5 25.5t25.5 37.5t9.5 45.5
q0 34 -21.5 67.5t-65.5 43.5q-29 6 -58 1v43l87 65h-196v40h256v-1zM369 0l228 700h44l-228 -700h-44zM913 117v-42h-49v-75h-41v75h-188l83 343h43l-73 -301h135v73h41v-73h49z" />
    <glyph glyph-name="periodcentered" horiz-adv-x="291" 
d="M60 350q0 37 24.5 61.5t60.5 24.5q37 0 61.5 -24.5t24.5 -61.5q0 -36 -24.5 -60.5t-61.5 -24.5q-36 0 -60.5 24.5t-24.5 60.5z" />
    <glyph glyph-name="uni02C9" unicode="&#x2c9;" horiz-adv-x="462" 
d="M60 631v70h342v-70h-342z" />
    <glyph glyph-name="AE" unicode="&#xc6;" horiz-adv-x="847" 
d="M391 630v-287h326v-70h-326v-203h396v-70h-466v273h-99l-88 -273h-74l225 700h502v-70h-396zM321 343v240l-77 -240h77z" />
    <glyph glyph-name="Hbar" unicode="&#x126;" horiz-adv-x="671" 
d="M60 538h42v162h70v-162h326v162h70v-162h43v-70h-43v-468h-70v273h-326v-273h-70v468h-42v70zM498 343v125h-326v-125h326z" />
    <glyph glyph-name="IJ" unicode="&#x132;" horiz-adv-x="690" 
d="M60 700h70v-700h-70v700zM435 -23q-48 0 -90.5 17.5t-75.5 51.5q-34 33 -51.5 75.5t-17.5 90.5h70q0 -34 13 -64t35.5 -52.5t52.5 -35.5t64 -13t64 13t52.5 35.5t35.5 52.5t13 64v418h-329v70h399v-488q0 -48 -18 -90.5t-51 -75.5q-33 -34 -75.5 -51.5t-90.5 -17.5z" />
    <glyph glyph-name="Oslash" unicode="&#xd8;" horiz-adv-x="866" 
d="M433 -23q-75 0 -145 29q-68 28 -119 80q-52 51 -80 119q-29 70 -29 145t29 145q28 67 80 119q51 51 119 80q70 29 145 29t145 -29q67 -29 119 -80q51 -52 80 -119q29 -70 29 -145t-29 -145q-29 -68 -80 -119q-52 -52 -119 -80q-70 -29 -145 -29zM433 47q61 0 116 22.5
t98 66.5q44 43 66.5 98t22.5 116t-22.5 116t-66.5 98q-40 40 -88 62l-186 -573q28 -6 60 -6zM433 653q-61 0 -116 -22.5t-98 -66.5q-44 -43 -66.5 -98t-22.5 -116t22.5 -116t66.5 -98q40 -40 87 -62l187 573q-30 6 -60 6z" />
    <glyph glyph-name="OE" unicode="&#x152;" horiz-adv-x="831" 
d="M60 350q0 61 18.5 115.5t51.5 99.5t77.5 79t97.5 56h466v-70h-396v-287h326v-70h-326v-203h396v-70h-466q-55 13 -100 50t-77.5 86.5t-50 105.5t-17.5 108zM130 350q1 -45 13.5 -87t35.5 -77.5t55 -64t71 -46.5v550q-40 -20 -72 -49t-55 -64.5t-35.5 -76.5t-12.5 -85z
" />
    <glyph glyph-name="Tbar" unicode="&#x166;" horiz-adv-x="586" 
d="M95 482h163v148h-198v70h466v-70h-198v-148h163v-70h-163v-412h-70v412h-163v70z" />
    <glyph glyph-name="ae" unicode="&#xe6;" horiz-adv-x="1142" 
d="M606 248q0 -42 16.5 -78.5t44 -63.5t64 -43t78.5 -16q57 0 104 28.5t73 75.5h78q-21 -53 -62 -94q-39 -38 -88.5 -59t-104.5 -21t-105 21t-88 59q-3 2 -5.5 5t-4.5 5v-67h-70v68q-14 -21 -37.5 -38t-51.5 -28.5t-58 -18t-56 -6.5q-55 0 -105 21t-88 59q-39 39 -59.5 89
t-20.5 104q0 55 20.5 105t59.5 89q38 38 88 59t105 21t105 -21t88 -59q27 -27 45 -60q17 31 45 59q38 39 88 60t105 21t104.5 -21t88.5 -60q39 -38 59.5 -89t20.5 -106h-476zM333 47q41 0 77 15.5t63.5 42.5t44 64t18.5 81q0 42 -16 79.5t-43.5 65t-64.5 43.5t-79 16
t-79 -16t-64.5 -43.5t-43.5 -65t-16 -79.5t16 -79t43.5 -64.5t64.5 -43.5t79 -16zM811 454q-33 0 -63 -10t-55 -28t-44 -43t-30 -55h383q-22 60 -73.5 98t-117.5 38z" />
    <glyph glyph-name="dcroat" unicode="&#x111;" horiz-adv-x="732" 
d="M526 57q-38 -38 -88 -59t-105 -21t-105 21t-88 59q-39 39 -59.5 89t-20.5 105q0 54 20.5 104t59.5 89q38 38 88 59t105 21t106 -22t97 -69v150h-66v70h66v47h70v-47h66v-70h-66v-332q0 -55 -20.5 -105t-59.5 -89zM333 454q-42 0 -79 -16t-64.5 -43.5t-43.5 -64.5t-16 -79
t16 -79.5t43.5 -65t64.5 -43.5t79 -16t79 16t64.5 43.5t43.5 65t16 79.5t-16 79t-43.5 64.5t-64.5 43.5t-79 16z" />
    <glyph glyph-name="ff" unicode="&#xfb00;" horiz-adv-x="680" 
d="M620 248h-132v-248h-70v248h-237v-248h-70v248h-51v70h51v183q0 49 14 90t40 70.5t63.5 45.5t84.5 16v-70q-35 0 -60 -12.5t-41 -33.5t-23.5 -48.5t-7.5 -57.5v-183h237v183q0 49 14 90t40 70.5t63.5 45.5t84.5 16v-70q-35 0 -60 -12.5t-41 -33.5t-23.5 -48.5t-7.5 -57.5
v-183h132v-70z" />
    <glyph glyph-name="ffi" unicode="&#xfb03;" horiz-adv-x="855" 
d="M795 0h-70v248h-237v-248h-70v248h-237v-248h-70v248h-51v70h51v183q0 49 14 90t40 70.5t63.5 45.5t84.5 16v-70q-35 0 -60 -12.5t-41 -33.5t-23.5 -48.5t-7.5 -57.5v-183h237v183q0 49 14 90t40 70.5t63.5 45.5t84.5 16v-70q-35 0 -60 -12.5t-41 -33.5t-23.5 -48.5
t-7.5 -57.5v-183h307v-318z" />
    <glyph glyph-name="ffl" unicode="&#xfb04;" horiz-adv-x="855" 
d="M795 0h-70v248h-237v-248h-70v248h-237v-248h-70v248h-51v70h51v183q0 49 14 90t40 70.5t63.5 45.5t84.5 16v-70q-35 0 -60 -12.5t-41 -33.5t-23.5 -48.5t-7.5 -57.5v-183h237v183q0 49 14 90t40 70.5t63.5 45.5t84.5 16v-70q-35 0 -60 -12.5t-41 -33.5t-23.5 -48.5
t-7.5 -57.5v-183h237v382h70v-700z" />
    <glyph glyph-name="fi" unicode="&#xfb01;" horiz-adv-x="490" 
d="M430 0h-70v248h-179v-248h-70v248h-51v70h51v183q0 49 14 90t40 70.5t63.5 45.5t84.5 16v-70q-35 0 -60 -12.5t-41 -33.5t-23.5 -48.5t-7.5 -57.5v-183h249v-318z" />
    <glyph glyph-name="fl" unicode="&#xfb02;" horiz-adv-x="497" 
d="M313 248h-132v-248h-70v248h-51v70h51v183q0 49 14 90t40 70.5t63.5 45.5t84.5 16h124v-723h-70v653h-54q-35 0 -60 -12.5t-41 -33.5t-23.5 -48.5t-7.5 -57.5v-183h132v-70z" />
    <glyph glyph-name="hbar" unicode="&#x127;" horiz-adv-x="635" 
d="M509 461q32 -32 49 -73t17 -86v-302h-70v302q0 32 -12.5 60t-33.5 49t-49 33t-60 12t-60 -12t-49 -33t-33 -49t-12 -60v-302h-70v583h-66v70h66v47h70v-47h66v-70h-66v-118q31 30 70.5 45.5t83.5 15.5q45 0 86 -16.5t73 -48.5z" />
    <glyph glyph-name="lslash" unicode="&#x142;" horiz-adv-x="462" 
d="M195 700h70v-272l87 87l50 -49l-137 -137v-329h-70v259l-86 -86l-49 50l135 135v342z" />
    <glyph glyph-name="Lslash" unicode="&#x141;" horiz-adv-x="721" 
d="M195 700h70v-272l87 87l50 -49l-137 -137v-259h396v-70h-466v259l-86 -86l-49 50l135 135v342z" />
    <glyph glyph-name="Dcroat" unicode="&#x110;" horiz-adv-x="771" 
d="M126 0v273h-66v70h66v357h235q73 0 136 -28q62 -25 112 -75q48 -48 75 -111q27 -65 27 -136q0 -72 -27 -136q-27 -63 -75 -111q-50 -50 -112 -75q-63 -28 -136 -28h-235zM196 70h165q57 0 107.5 21t90.5 61t61 90.5t21 107.5t-21 107.5t-61 90.5t-90.5 61t-107.5 21h-165
v-287h66v-70h-66v-203z" />
    <glyph glyph-name="oe" unicode="&#x153;" horiz-adv-x="928" 
d="M392 248q0 -42 16.5 -78.5t44 -63.5t64 -43t78.5 -16q57 0 104 28.5t73 75.5h78q-21 -53 -62 -94q-39 -38 -88.5 -59t-104.5 -21q-35 0 -68 8.5t-63 24.5q-29 -15 -63 -24t-68 -9q-55 0 -104.5 21t-88.5 59q-38 39 -59 89t-21 104q0 55 21 105t59 89q39 38 88.5 59
t104.5 21q31 0 67.5 -9t65.5 -23q59 32 129 32q55 0 104.5 -21t88.5 -60q39 -38 59.5 -89t20.5 -106h-476zM333 454q-42 0 -79 -16t-64.5 -43.5t-43.5 -65t-16 -79.5t16 -79t43.5 -64.5t64.5 -43.5t79 -16q34 0 67 11q-38 39 -58 88.5t-20 103.5t19.5 103t57.5 87
q-16 5 -32.5 9.5t-33.5 4.5zM595 454q-33 0 -63 -10t-55 -28t-44 -43t-30 -55h383q-22 60 -73.5 98t-117.5 38z" />
    <glyph glyph-name="oslash" unicode="&#xf8;" horiz-adv-x="667" 
d="M333 -23q-55 0 -104.5 21t-88.5 59q-38 39 -59 89t-21 104q0 55 21 105t59 89q39 38 88.5 59t104.5 21t105 -21t89 -59q38 -39 59 -89t21 -105q0 -54 -21 -104t-59 -89q-39 -38 -89 -59t-105 -21zM333 454q-42 0 -79 -16t-64.5 -43.5t-43.5 -65t-16 -79.5t16 -79
t43.5 -64.5t64.5 -43.5t79 -16t79 16t65 43.5t44 64.5t16 79t-16 79.5t-44 65t-65 43.5t-79 16zM256 -99h-74l228 700h74z" />
    <glyph glyph-name="s_t" unicode="&#xfb06;" horiz-adv-x="776" 
d="M246 -23q-10 0 -24 1t-30 5t-33 10.5t-33 17.5q-11 8 -23 20t-21.5 28.5t-15.5 38t-6 49.5h70q0 -53 36 -78q31 -22 80 -22q18 0 36.5 4.5t32.5 14t23 24t9 34.5q0 22 -12 38t-31 28t-43 21t-48 16.5t-45 15t-35 17.5q-58 40 -58 110q0 36 14 64.5t37 49t53 31.5t63 11
h273v174h70v-174h131v-70h-131v-456h-70v456h-135q20 -32 20 -67h-70q-1 18 -9 30.5t-20.5 20.5t-28 12t-30.5 4q-45 0 -71 -23.5t-26 -62.5q0 -35 26 -51.5t83 -33.5l57.5 -20t52.5 -30q53 -42 53 -111q0 -36 -15 -63t-39 -46t-55 -28.5t-62 -9.5z" />
    <glyph glyph-name="tbar" unicode="&#x167;" horiz-adv-x="372" 
d="M60 430v70h51v200h70v-200h131v-70h-131v-112h131v-70h-131v-248h-70v248h-51v70h51v112h-51z" />
    <glyph glyph-name="nsuperior" unicode="&#x207f;" horiz-adv-x="502" 
d="M251 723q39 0 74 -15.5t61 -41.5t41 -61t15 -75v-187h-70v187q0 25 -9.5 47.5t-26 39t-38.5 26.5t-47 10t-47 -10t-38.5 -26.5t-26 -39t-9.5 -47.5v-187h-70v187v170h58l12 -22q25 20 55.5 32.5t65.5 12.5z" />
    <glyph glyph-name="currency" unicode="&#xa4;" horiz-adv-x="667" 
d="M607 124l-50 -49l-115 115q-23 -16 -50.5 -24.5t-57.5 -8.5q-31 0 -58.5 8.5t-50.5 24.5l-115 -116l-50 50l116 116q-16 23 -25 50.5t-9 57.5t9 57.5t25 50.5l-116 116l50 49l115 -115q23 16 50.5 24.5t58.5 8.5q30 0 57.5 -8.5t50.5 -24.5l115 115l50 -49l-116 -116
q16 -23 25 -50.5t9 -57.5t-9 -57.5t-25 -50.5zM212 348q0 -25 9.5 -47t26 -38.5t39 -26t47.5 -9.5t47 9.5t38.5 26t26 38.5t9.5 47t-9.5 47t-26 38.5t-38.5 26t-47 9.5t-47.5 -9.5t-39 -26t-26 -38.5t-9.5 -47z" />
    <glyph glyph-name="cent" unicode="&#xa2;" horiz-adv-x="648" 
d="M298 -21q-92 12 -158 78q-39 39 -59.5 89t-20.5 104q0 55 20.5 105t59.5 89q66 66 158 78v153h70v-153q92 -12 158 -78q41 -41 62 -94h-78q-23 39 -59.5 66t-82.5 35v-401q46 8 82.5 34.5t59.5 66.5h78q-21 -53 -62 -94q-66 -66 -158 -78v-153h-70v153zM130 250
q0 -38 12.5 -71.5t35 -60t53.5 -44.5t67 -24v401q-36 -6 -67 -24t-53.5 -45t-35 -60.5t-12.5 -71.5z" />
    <glyph glyph-name="Euro" unicode="&#x20ac;" horiz-adv-x="598" 
d="M60 383v70h118q6 21 15 42q22 50 57 92t79.5 72.5t97.5 47.5t111 17v-71q-47 0 -90 -13.5t-79.5 -38.5t-64.5 -59t-46 -75l-6 -14h286v-70h-303l1 -70h302v-70h-285l5 -11q18 -41 46 -75t64.5 -59t79.5 -38.5t90 -13.5v-70q-58 0 -111 17t-97.5 47.5t-79.5 72.5t-57 92
q-4 9 -7.5 18.5t-6.5 19.5h-119v70h105v70h-105z" />
    <glyph glyph-name="franc" unicode="&#x20a3;" horiz-adv-x="653" 
d="M197 109v-109h-70v109h-67v70h67v521h466v-70h-396v-287h326v-70h-326v-94h125v-70h-125z" />
    <glyph glyph-name="sterling" unicode="&#xa3;" horiz-adv-x="655" 
d="M402 248h-155q2 -77 -22 -130q34 4 70 -2.5t68 -31.5q23 -18 42 -28t37 -9q40 1 100 73l53 -45q-35 -40 -72.5 -69t-83.5 -29q-35 0 -64.5 16.5t-53.5 35.5q-21 16 -47 19.5t-52.5 -0.5t-51 -14t-42.5 -22l-35 61q25 10 41.5 30t26.5 44.5t13.5 50.5t2.5 50h-117v70h106
q-10 41 -25.5 79t-25 76t-7.5 77t27 81q15 26 37.5 44t48.5 28.5t54.5 15t56.5 4.5q118 0 179 -67q22 -24 33 -51t15.5 -49.5t4.5 -38.5v-17h-68q0 20 -4 39q-4 17 -11.5 36t-21.5 34q-41 44 -127 44q-103 0 -137 -58q-22 -36 -22 -68t11 -64.5t27 -67.5t26 -77h165v-70z
" />
    <glyph glyph-name="lira" unicode="&#x20a4;" horiz-adv-x="655" 
d="M60 369v70h65q-8 23 -13 46t-5 47t6.5 48.5t21.5 50.5t37.5 44t48.5 28.5t54.5 15t56.5 4.5q118 0 179 -67q22 -24 33 -51t15.5 -49.5t4.5 -38.5v-17h-68q0 20 -4 39q-4 17 -11.5 36t-21.5 34q-41 44 -127 44q-103 0 -137 -58q-13 -21 -17.5 -41t-4 -39t6 -38t13.5 -38
h209v-70h-180q9 -24 15 -51h165v-70h-155q2 -77 -22 -130q34 4 70 -2.5t68 -31.5q23 -18 42 -28t37 -9q40 1 100 73l53 -45q-35 -40 -72.5 -69t-83.5 -29q-35 0 -64.5 16.5t-53.5 35.5q-21 16 -47 19.5t-52.5 -0.5t-51 -14t-42.5 -22l-35 61q25 10 41.5 30t26.5 44.5
t13.5 50.5t2.5 50h-117v70h106q-6 25 -15 51h-91z" />
    <glyph glyph-name="yen" unicode="&#xa5;" horiz-adv-x="656" 
d="M129 63v70h164v70h-164v70h164l-233 427h80l188 -357l188 357h80l-233 -427h164v-70h-164v-70h164v-70h-164v-63h-70v63h-164z" />
    <glyph glyph-name="peseta" unicode="&#x20a7;" horiz-adv-x="581" 
d="M204 700q49 0 89.5 -14.5t69.5 -42t45 -67t16 -90.5q0 -67 -27.5 -116t-90.5 -77v-48h98q5 1 11 1.5t12 0.5q24 0 39 -7t23 -14q24 -21 24 -56h-70q0 5 -5.5 7t-10.5 2q-8 0 -14 -3.5t-6 -13.5t6.5 -12.5t17.5 -3.5q38 -3 64 -26t26 -61q0 -36 -27 -59t-65 -23
q-17 0 -33 5t-29 13q-36 25 -36 74h70q0 -22 28 -22q5 0 13.5 2t8.5 10q0 12 -9 14.5t-11 2.5q-37 0 -65.5 22t-28.5 64v13h-31v-175h-70v175h-51v70h51v29q-4 0 -9 -0.5t-16 -0.5h-30h-51v-273h-70v700h144zM204 343q32 0 59.5 9t47.5 27t31.5 44.5t11.5 62.5
q0 70 -38.5 107t-111.5 37h-74v-287h74z" />
    <glyph glyph-name="colonmonetary" unicode="&#x20a1;" horiz-adv-x="685" 
d="M515 503q44 -21 73 -59q29 -39 37 -94h-78q-16 50 -56 77l-119 -364q35 14 66 36.5t55 51.5h78q-34 -52 -87 -94q-65 -51 -136 -69l-29 -89h-74l25 78q-32 0 -59 7l-27 -85h-74l36 112q-29 20 -48 46q-29 39 -35.5 89t7.5 104q14 55 48 105t84 89q25 19 51 34t54 25
l31 96h74l-25 -77q7 1 14 1.5t15 0.5t16 -0.5t16 -1.5l25 77h74zM293 47l132 405q-7 1 -13.5 1.5t-13.5 0.5q-18 0 -34 -3l-130 -397q12 -4 26 -5.5t28 -1.5h5zM140 250q-13 -48 -3.5 -89t36.5 -69l107 330q-50 -27 -88 -72.5t-52 -99.5z" />
    <glyph glyph-name="florin" unicode="&#x192;" horiz-adv-x="373" 
d="M-21 -164q35 0 60 12.5t41 33.5t23.5 48.5t7.5 57.5v260h-51v70h51v183q0 49 14 90t40 70.5t63.5 45.5t84.5 16v-70q-35 0 -60 -12.5t-41 -33.5t-23.5 -48.5t-7.5 -57.5v-183h132v-70h-132v-260q0 -50 -14 -90.5t-40 -70t-63.5 -45.5t-84.5 -16v70z" />
    <glyph glyph-name="Thorn" unicode="&#xde;" horiz-adv-x="666" 
d="M140 544q38 38 88 59t105 21t105 -21t88 -59q39 -39 59.5 -89t20.5 -105q0 -54 -20.5 -104t-59.5 -89q-38 -38 -88 -59t-105 -21t-105 21t-88 59l-10 11v-168h-70v701h70v-168zM333 147q42 0 79 16t64.5 43.5t43.5 64.5t16 79t-16 79.5t-43.5 65t-64.5 43.5t-79 16
t-79 -16t-64.5 -43.5t-43.5 -65t-16 -79.5t16 -79t43.5 -64.5t64.5 -43.5t79 -16z" />
    <glyph glyph-name="eth" unicode="&#xf0;" horiz-adv-x="666" 
d="M333 454q-42 0 -79 -16t-64.5 -43.5t-43.5 -64.5t-16 -79t16 -79.5t43.5 -65t64.5 -43.5t79 -16t79 16t64.5 43.5t43.5 65t16 79.5t-16 79t-43.5 64.5t-64.5 43.5t-79 16zM526 57q-38 -38 -88 -59t-105 -21t-105 21t-88 59q-39 39 -59.5 89t-20.5 105q0 54 20.5 104
t59.5 89q38 38 88 59t105 21t106 -22t97 -69v29q0 60 -32 105t-83 68l-98 -98l-49 49l67 67q-22 0 -38 -2t-30 -7v72q14 3 29 5t31 2q36 0 69 -9l79 79l49 -49l-59 -59q15 -8 28.5 -19t26.5 -23q39 -38 59.5 -82t20.5 -99v-211q0 -55 -20.5 -105t-59.5 -89z" />
    <glyph glyph-name="Eng" unicode="&#x14a;" horiz-adv-x="646" 
d="M586 700v-712q0 -50 -14 -90.5t-40 -70t-63.5 -45.5t-84.5 -16v70q35 0 60 12.5t41 33.5t23.5 48.5t7.5 57.5v12l-386 584v-584h-70v700h77l379 -572v572h70z" />
    <glyph glyph-name="eng" unicode="&#x14b;" horiz-adv-x="569" 
d="M439 302q0 32 -12.5 60t-33.5 49t-49 33t-60 12t-60 -12t-49 -33t-33 -49t-12 -60v-302h-70v500h58l12 -35q31 30 70.5 45.5t83.5 15.5q45 0 86 -16.5t73 -48.5t49 -73t17 -86v-314q0 -50 -14 -90.5t-40 -70t-63.5 -45.5t-84.5 -16v70q35 0 60 12.5t41 33.5t23.5 48.5
t7.5 57.5v314z" />
    <glyph glyph-name="germandbls" unicode="&#xdf;" horiz-adv-x="584" 
d="M372 594q-39 36 -115 36h-127v-630h-70v700h197q103 0 163 -55q29 -28 42 -62q14 -36 14 -75q0 -41 -16.5 -76t-47.5 -60q34 -16 55 -37q57 -55 57 -142q0 -23 -5 -43.5t-13 -38.5q-19 -38 -49 -62t-69 -36.5t-84 -12.5h-47v70h47q67 0 109 34q41 33 41 89q0 29 -9 51.5
t-26 39.5q-40 38 -115 38h-47v70q28 0 54.5 7t47.5 21t34 36t13 52q0 19 -6.5 42.5t-27.5 43.5z" />
    <glyph glyph-name="longs" unicode="&#x17f;" horiz-adv-x="373" 
d="M181 0h-70v248h-51v70h51v183q0 49 14 90t40 70.5t63.5 45.5t84.5 16v-70q-35 0 -60 -12.5t-41 -33.5t-23.5 -48.5t-7.5 -57.5v-501z" />
    <glyph glyph-name="longs_t" unicode="&#xfb05;" horiz-adv-x="670" 
d="M181 0h-70v248h-51v70h51v183q0 49 14 90t40 70.5t63.5 45.5t84.5 16h166v-223h131v-70h-131v-430h-70v430h-51v70h51v153h-96q-35 0 -60 -12.5t-41 -33.5t-23.5 -48.5t-7.5 -57.5v-501z" />
    <glyph glyph-name="figuredash" unicode="&#x2012;" horiz-adv-x="462" 
d="M60 248v70h342v-70h-342z" />
    <glyph glyph-name="minus" unicode="&#x2212;" horiz-adv-x="614" 
d="M60 248v70h494v-70h-494z" />
    <glyph glyph-name="trademark" unicode="&#x2122;" horiz-adv-x="436" 
d="M60 680v20h134v-20h-57v-180h-20v180h-57zM355 700h21v-200h-19v167l-64 -98l-65 98v-167h-19v200h21l63 -95z" />
    <glyph glyph-name="uni00AD" unicode="&#xad;" horiz-adv-x="534" 
d="M60 248v70h414v-70h-414z" />
    <glyph glyph-name="section" unicode="&#xa7;" horiz-adv-x="580" 
d="M159 550q-16 13 -28.5 25.5l-23.5 24.5q-46 55 -46 110q0 7 1 18.5t5 26t11.5 30.5t20.5 31q26 29 63 44q40 18 96 18q33 0 59.5 -7.5t46 -18.5t34 -25t23.5 -27q20 -26 30.5 -59.5t10.5 -67.5h-70q0 17 -6 41t-21 45q-37 49 -107 49q-73 0 -106 -38q-15 -17 -18 -35.5
t-3 -24.5q0 -10 4.5 -25.5t24.5 -38.5q51 -59 175 -126q86 -47 131 -96q52 -55 53 -113q2 -52 -36 -100q-21 -30 -62 -61q32 -26 52 -50q46 -53 46 -110q0 -14 -6.5 -44t-31.5 -61q-26 -29 -63 -45q-42 -17 -96 -17q-33 0 -59.5 7t-46.5 18.5t-34 25t-24 27.5
q-19 26 -29.5 59.5t-10.5 67.5h70q0 -18 6 -42t21 -44q34 -49 107 -49t105 37q16 18 19 36t3 24q0 10 -4.5 26t-24.5 39q-49 56 -175 126q-86 47 -131 95q-52 56 -53 114q-2 52 36 100q11 15 26.5 30.5t35.5 29.5zM449 309q-1 35 -38 72.5t-109 76.5q-45 25 -83 49
q-17 -11 -33 -24.5t-28.5 -28t-20 -30.5t-6.5 -32q1 -35 38 -73t109 -76q45 -25 83 -49q16 11 32 24.5t28.5 28t20 30t7.5 32.5z" />
    <glyph glyph-name="afii61352" unicode="&#x2116;" horiz-adv-x="1096" 
d="M516 700h70v-700h-70l-386 584v-584h-70v700h77l379 -572v572zM845 148q-40 0 -75 15t-61 41t-41 61t-15 74q0 40 15 75t41 61t61 41t75 15q39 0 74 -15t61 -41t41 -61t15 -75q0 -39 -15 -74t-41 -61t-61 -41t-74 -15zM845 461q-25 0 -47.5 -9.5t-39 -26t-26 -39
t-9.5 -47.5t9.5 -47t26 -38.5t39 -26t47.5 -9.5t47 9.5t38.5 26t26 38.5t9.5 47t-9.5 47.5t-26 39t-38.5 26t-47 9.5zM653 106h383v-70h-383v70z" />
    <glyph glyph-name="uni2206" unicode="&#x2206;" horiz-adv-x="715" 
d="M357 521l-191 -451h383zM357 700l298 -700h-595z" />
    <glyph glyph-name="product" unicode="&#x220f;" horiz-adv-x="586" 
d="M456 630h-326v-804h-70v874h466v-874h-70v804z" />
    <glyph glyph-name="summation" unicode="&#x2211;" horiz-adv-x="587" 
d="M527 700v-70h-381l245 -333l-245 -333h381v-70h-467v71l244 332l-244 332v71h467v0z" />
    <glyph glyph-name="uni2215" unicode="&#x2215;" horiz-adv-x="422" 
d="M134 0h-74l228 700h74z" />
    <glyph glyph-name="radical" unicode="&#x221a;" horiz-adv-x="587" 
d="M264 -106l-131 380l-47 -18l-26 65l115 45l121 -349l159 683h72l-188 -806h-75v0z" />
    <glyph glyph-name="integral" unicode="&#x222b;" horiz-adv-x="322" 
d="M-72 -164q35 0 60 12.5t41 33.5t23.5 48.5t7.5 57.5v513q0 49 14 90t40 70.5t63.5 45.5t84.5 16v-70q-35 0 -60 -12.5t-41 -33.5t-23.5 -48.5t-7.5 -57.5v-513q0 -50 -14 -90.5t-40 -70t-63.5 -45.5t-84.5 -16v70z" />
    <glyph glyph-name="lozenge" unicode="&#x25ca;" horiz-adv-x="538" 
d="M269 563l-127 -213l127 -214l127 214zM269 700l209 -350l-209 -350l-209 350z" />
    <glyph glyph-name="litre" unicode="&#x2113;" horiz-adv-x="499" 
d="M248 -1q-70 38 -105 154q-2 5 -2.5 9.5t-2.5 9.5l-26 -11.5t-27 -10.5l-25 65l33 13.5t31 14.5q-5 36 -8 75.5t-3 81.5q0 100 18 169q8 30 19.5 55t25.5 44q21 27 49 41t59 14q27 0 50 -9.5t40 -28.5q34 -37 41 -102q7 -55 -3.5 -104t-33.5 -93q-37 -70 -100 -124
q-34 -29 -76 -55l4 -17.5l4 -16.5q28 -89 72 -113q22 -11 47 -7q32 5 72 31l38 -59q-54 -35 -100 -41q-24 -3 -47 0.5t-44 14.5zM284 653q-31 0 -53 -28q-8 -11 -16.5 -28t-15.5 -44t-11.5 -64.5t-4.5 -88.5q0 -64 6 -118q21 14 41 31q54 46 84 102q12 23 19 43.5t10 35.5
t3.5 24.5t0.5 10.5q1 18 -0.5 40t-8 40.5t-19.5 31t-35 12.5z" />
    <glyph glyph-name="tonos" unicode="&#x384;" horiz-adv-x="191" 
d="M60 751h71v-159h-71v159z" />
    <glyph glyph-name="anoteleia" unicode="&#x387;" 
d="M54 307q0 18 12 30.5t30 12.5t30.5 -12.5t12.5 -30.5t-12.5 -30t-30.5 -12t-30 12t-12 30z" />
    <glyph glyph-name="Alpha" unicode="&#x391;" horiz-adv-x="644" 
d="M285 700h74l225 -700h-74l-88 273h-200l-88 -273h-74zM244 343h156l-78 243z" />
    <glyph glyph-name="Beta" unicode="&#x392;" horiz-adv-x="584" 
d="M60 0v700h197q103 0 163 -55q29 -28 42 -62q14 -36 14 -75q0 -41 -16.5 -76t-47.5 -60q34 -16 55 -37q57 -55 57 -142q0 -23 -5 -43.5t-13 -38.5q-19 -38 -49 -62t-69 -36.5t-84 -12.5h-244zM372 594q-39 36 -115 36h-127v-238h127q28 0 54.5 7t47.5 21t34 36t13 52
q0 19 -6.5 42.5t-27.5 43.5zM130 322v-252h174q67 0 109 34q41 33 41 89q0 29 -9 51.5t-26 39.5q-40 38 -115 38h-174z" />
    <glyph glyph-name="Gamma" unicode="&#x393;" horiz-adv-x="586" 
d="M130 630v-630h-70v700h466v-70h-396z" />
    <glyph glyph-name="Delta" horiz-adv-x="715" 
d="M357 521l-191 -471h383zM357 700l298 -700h-595z" />
    <glyph glyph-name="Epsilon" unicode="&#x395;" horiz-adv-x="586" 
d="M526 630h-396v-287h326v-70h-326v-203h396v-70h-466v700h466v-70v0z" />
    <glyph glyph-name="Epsilontonos" unicode="&#x388;" horiz-adv-x="586" 
d="M-71 701h71v-159h-71v159zM526 630h-396v-287h326v-70h-326v-203h396v-70h-466v700h466v-70z" />
    <glyph glyph-name="Zeta" unicode="&#x396;" horiz-adv-x="572" 
d="M60 630v70h452l-337 -630h337v-70h-452l335 630h-335z" />
    <glyph glyph-name="Eta" unicode="&#x397;" horiz-adv-x="586" 
d="M456 273h-326v-273h-70v700h70v-357h326v357h70v-700h-70v273z" />
    <glyph glyph-name="Etatonos" unicode="&#x389;" horiz-adv-x="586" 
d="M-71 701h71v-159h-71v159zM456 273h-326v-273h-70v700h70v-357h326v357h70v-700h-70v273z" />
    <glyph glyph-name="Theta" unicode="&#x398;" horiz-adv-x="866" 
d="M433 -23q-75 0 -145 29q-68 28 -119 80q-52 51 -80 119q-29 70 -29 145t29 145q28 67 80 119q51 51 119 80q70 29 145 29t145 -29q67 -29 119 -80q51 -52 80 -119q29 -70 29 -145t-29 -145q-29 -68 -80 -119q-52 -52 -119 -80q-70 -29 -145 -29zM433 653
q-61 0 -116 -22.5t-98 -66.5q-44 -43 -66.5 -98t-22.5 -116t22.5 -116t66.5 -98q43 -44 98 -66.5t116 -22.5t116 22.5t98 66.5q44 43 66.5 98t22.5 116t-22.5 116t-66.5 98q-43 44 -98 66.5t-116 22.5zM262 315v70h342v-70h-342z" />
    <glyph glyph-name="Iota" unicode="&#x399;" 
d="M60 700h70v-700h-70v700z" />
    <glyph glyph-name="Iotadieresis" unicode="&#x3aa;" 
d="M60 700h70v-700h-70v700zM-27 848q0 18 12 30.5t30 12.5t30.5 -12.5t12.5 -30.5t-12.5 -30t-30.5 -12t-30 12t-12 30zM133 848q0 18 12 30.5t30 12.5t30.5 -12.5t12.5 -30.5t-12.5 -30t-30.5 -12t-30 12t-12 30z" />
    <glyph glyph-name="Iotatonos" unicode="&#x38a;" 
d="M-71 701h71v-159h-71v159zM60 700h70v-700h-70v700z" />
    <glyph glyph-name="Kappa" unicode="&#x39a;" horiz-adv-x="587" 
d="M437 0l-262 326l-45 -55v-271h-70v700h70v-318l260 318h90l-260 -318l307 -382h-90v0z" />
    <glyph glyph-name="Lambda" unicode="&#x39b;" horiz-adv-x="644" 
d="M511 0l-188 586l-189 -586h-74l226 700h73l225 -700h-73z" />
    <glyph glyph-name="Mu" unicode="&#x39c;" horiz-adv-x="708" 
d="M571 700h77v-700h-70v584l-224 -339l-224 339v-584h-70v700h77l217 -328l217 328v0z" />
    <glyph glyph-name="Nu" unicode="&#x39d;" horiz-adv-x="646" 
d="M516 700h70v-700h-70l-386 584v-584h-70v700h77l379 -572v572v0z" />
    <glyph glyph-name="Xi" unicode="&#x39e;" horiz-adv-x="544" 
d="M60 0v70h424v-70h-424zM60 631v70h424v-70h-424zM110 315v70h324v-70h-324z" />
    <glyph glyph-name="Omicron" unicode="&#x39f;" horiz-adv-x="866" 
d="M433 -23q-75 0 -145 29q-68 28 -119 80q-52 51 -80 119q-29 70 -29 145t29 145q28 67 80 119q51 51 119 80q70 29 145 29t145 -29q67 -29 119 -80q51 -52 80 -119q29 -70 29 -145t-29 -145q-29 -68 -80 -119q-52 -52 -119 -80q-70 -29 -145 -29zM433 653
q-61 0 -116 -22.5t-98 -66.5q-44 -43 -66.5 -98t-22.5 -116t22.5 -116t66.5 -98q43 -44 98 -66.5t116 -22.5t116 22.5t98 66.5q44 43 66.5 98t22.5 116t-22.5 116t-66.5 98q-43 44 -98 66.5t-116 22.5z" />
    <glyph glyph-name="Omicrontonos" unicode="&#x38c;" horiz-adv-x="866" 
d="M-71 701h71v-159h-71v159zM433 -23q-75 0 -145 29q-68 28 -119 80q-52 51 -80 119q-29 70 -29 145t29 145q28 67 80 119q51 51 119 80q70 29 145 29t145 -29q67 -29 119 -80q51 -52 80 -119q29 -70 29 -145t-29 -145q-29 -68 -80 -119q-52 -52 -119 -80q-70 -29 -145 -29
zM433 653q-61 0 -116 -22.5t-98 -66.5q-44 -43 -66.5 -98t-22.5 -116t22.5 -116t66.5 -98q43 -44 98 -66.5t116 -22.5t116 22.5t98 66.5q44 43 66.5 98t22.5 116t-22.5 116t-66.5 98q-43 44 -98 66.5t-116 22.5z" />
    <glyph glyph-name="Pi" unicode="&#x3a0;" horiz-adv-x="586" 
d="M456 630h-326v-630h-70v700h466v-700h-70v630z" />
    <glyph glyph-name="Rho" unicode="&#x3a1;" horiz-adv-x="584" 
d="M506 589q8 -18 13 -41t5 -62q0 -41 -5 -62.5t-13 -39.5q-19 -38 -49 -62t-69 -36.5t-84 -12.5h-174v-273h-70v700h244q45 0 84 -12.5t69 -36.5t49 -62zM413 377q11 10 20 26q8 14 14.5 34t6.5 49q0 43 -10.5 68.5t-30.5 41.5q-42 34 -109 34h-174v-287h174q67 0 109 34z
" />
    <glyph glyph-name="Sigma" unicode="&#x3a3;" horiz-adv-x="574" 
d="M514 0h-454l257 350l-257 350h454v-70h-316l206 -280l-206 -280h316v-70v0z" />
    <glyph glyph-name="Tau" unicode="&#x3a4;" horiz-adv-x="586" 
d="M60 630v70h466v-70h-198v-630h-70v630h-198z" />
    <glyph glyph-name="Upsilon" unicode="&#x3a5;" horiz-adv-x="656" 
d="M293 273l-233 427h80l188 -357l188 357h80l-233 -427v-273h-70v273z" />
    <glyph glyph-name="Upsilondieresis" unicode="&#x3ab;" horiz-adv-x="656" 
d="M293 273l-233 427h80l188 -357l188 357h80l-233 -427v-273h-70v273zM206 848q0 18 12 30.5t30 12.5t30.5 -12.5t12.5 -30.5t-12.5 -30t-30.5 -12t-30 12t-12 30zM366 848q0 18 12 30.5t30 12.5t30.5 -12.5t12.5 -30.5t-12.5 -30t-30.5 -12t-30 12t-12 30z" />
    <glyph glyph-name="Upsilontonos" unicode="&#x38e;" horiz-adv-x="630" 
d="M-71 701h71v-159h-71v159zM280 273l-233 427h80l188 -357l188 357h80l-233 -427v-273h-70v273z" />
    <glyph glyph-name="Phi" unicode="&#x3a6;" horiz-adv-x="866" 
d="M433 -23q-75 0 -145 29q-68 28 -119 80q-52 51 -80 119q-29 70 -29 145t29 145q28 67 80 119q51 51 119 80q70 29 145 29t145 -29q67 -29 119 -80q51 -52 80 -119q29 -70 29 -145t-29 -145q-29 -68 -80 -119q-52 -52 -119 -80q-70 -29 -145 -29zM647 136q44 43 66.5 98
t22.5 116t-22.5 116t-66.5 98q-37 37 -82.5 59t-96.5 28v-602q51 5 96.5 27t82.5 60zM219 564q-44 -43 -66.5 -98t-22.5 -116t22.5 -116t66.5 -98q36 -38 82 -60t97 -27v602q-51 -6 -97 -28t-82 -59z" />
    <glyph glyph-name="Chi" unicode="&#x3a7;" horiz-adv-x="572" 
d="M325 351l187 -351h-78l-148 277l-148 -277h-78l186 351l-186 349h80l146 -275l146 275h80z" />
    <glyph glyph-name="Psi" unicode="&#x3a8;" horiz-adv-x="810" 
d="M646 674q23 20 51 25.5t53 5.5v-70q-44 0 -58 -13q-19 -16 -19 -71q0 -38 -2 -86t-14 -91q-11 -37 -27 -60.5t-35 -36.5t-39 -17.5t-38 -4.5h-78v-255h-70v255h-79q-18 0 -37.5 4.5t-38.5 17.5t-35.5 36.5t-26.5 60.5q-13 43 -15 91t-2 86q0 54 -18 71q-16 13 -58 13v70
q24 0 52.5 -5.5t51.5 -25.5q42 -36 42 -123v-37t1.5 -41t4.5 -41.5t8 -38.5q8 -26 23.5 -46t47.5 -22h79v375h70v-375h78q30 0 46.5 19.5t24.5 48.5q10 36 12 79.5t2 78.5q0 86 43 123z" />
    <glyph glyph-name="Omega" unicode="&#x2126;" horiz-adv-x="622" 
d="M562 70v-70h-172v68q28 25 46.5 59t30 72t16.5 77.5t5 77.5q0 27 -4.5 59.5t-14 66t-24 64.5t-34 55.5t-44.5 39t-56 14.5q-45 0 -78.5 -32.5t-55.5 -79t-32.5 -98t-10.5 -89.5q0 -36 5 -75t16 -76.5t30 -72t47 -62.5v-68h-172v70h80q-36 55 -56 128.5t-20 155.5
q0 34 6.5 75t19.5 82t33 79t47.5 68t62.5 47.5t78 17.5q63 0 109 -37t77 -92.5t46 -120t15 -119.5q0 -82 -20 -155.5t-55 -128.5h79z" />
    <glyph glyph-name="Omegatonos" unicode="&#x38f;" horiz-adv-x="622" 
d="M562 70v-70h-172v68q28 25 46.5 59t30 72t16.5 77.5t5 77.5q0 27 -4.5 59.5t-14 66t-24 64.5t-34 55.5t-44.5 39t-56 14.5q-45 0 -78.5 -32.5t-55.5 -79t-32.5 -98t-10.5 -89.5q0 -36 5 -75t16 -76.5t30 -72t47 -62.5v-68h-172v70h80q-36 55 -56 128.5t-20 155.5
q0 34 6.5 75t19.5 82t33 79t47.5 68t62.5 47.5t78 17.5q63 0 109 -37t77 -92.5t46 -120t15 -119.5q0 -82 -20 -155.5t-55 -128.5h79zM-71 700h71v-159h-71v159z" />
    <glyph glyph-name="alpha" unicode="&#x3b1;" horiz-adv-x="650" 
d="M517 88q-2 -9 2.5 -14t12 -7.5t16 -3t14.5 -0.5l-12 -70q-66 0 -92 35q-11 16 -13 32q-41 -41 -89 -62.5t-99 -21.5t-92 21.5t-68 63.5q-25 38 -33 88t2 106q10 55 36 102.5t66 85.5q38 35 85 58t101 23q47 0 87 -20.5t69 -59.5l10 56h70zM399 105q29 29 49 67.5t28 82.5
q8 42 1 77.5t-27 64.5q-19 28 -47 42.5t-61 14.5q-70 0 -129 -57q-30 -29 -49.5 -64.5t-27.5 -77.5q-8 -44 -2 -82.5t25 -67.5q39 -59 110 -59q35 0 68 15t62 44z" />
    <glyph glyph-name="alphatonos" unicode="&#x3ac;" horiz-adv-x="649" 
d="M285 751h71v-159h-71v159zM516 88q-2 -9 2.5 -14t12 -7.5t16 -3t14.5 -0.5l-12 -70q-66 0 -92 35q-11 16 -13 32q-41 -41 -89 -62.5t-99 -21.5t-92 21.5t-68 63.5q-25 38 -33 88t2 106q10 55 36 102.5t66 85.5q38 35 85 58t101 23q47 0 87 -20.5t69 -59.5l10 56h70z
M398 105q29 29 49 67.5t28 82.5q8 42 1 77.5t-27 64.5q-19 28 -47 42.5t-61 14.5q-70 0 -129 -57q-30 -29 -49.5 -64.5t-27.5 -77.5q-8 -44 -2 -82.5t25 -67.5q39 -59 110 -59q35 0 68 15t62 44z" />
    <glyph glyph-name="beta" unicode="&#x3b2;" horiz-adv-x="584" 
d="M372 594q-39 36 -115 36h-127v-804h-70v874h197q103 0 163 -55q29 -28 42 -62q14 -36 14 -75q0 -41 -16.5 -76t-47.5 -60q34 -16 55 -37q57 -55 57 -142q0 -23 -5 -43.5t-13 -38.5q-19 -38 -49 -62t-69 -36.5t-84 -12.5h-47v70h47q67 0 109 34q41 33 41 89q0 29 -9 51.5
t-26 39.5q-40 38 -115 38h-47v70q28 0 54.5 7t47.5 21t34 36t13 52q0 19 -6.5 42.5t-27.5 43.5z" />
    <glyph glyph-name="gamma" unicode="&#x3b3;" horiz-adv-x="506" 
d="M304 220q1 -13 3 -36.5t3 -50.5t-0.5 -54.5t-9 -50t-22.5 -37t-40 -14.5q-21 0 -31.5 12t-14.5 30t-2.5 38.5t4.5 37.5q7 34 16 68t23 66q-3 26 -7.5 55t-11.5 57q-8 37 -14.5 59.5t-12 34.5t-10.5 15.5t-9 3.5q-11 0 -18 -7t-11.5 -17t-6 -21t-2.5 -20l-70 1q0 23 7 47
t20.5 43.5t34 31.5t47.5 12t47 -21t34.5 -51t22.5 -62t11 -54q20 42 45 79.5t60 84.5l57 -41q-57 -77 -90.5 -134.5t-51.5 -104.5z" />
    <glyph glyph-name="delta" unicode="&#x3b4;" horiz-adv-x="675" 
d="M533 450q40 -39 61 -89.5t21 -106.5t-21 -106t-61 -90q-39 -39 -89.5 -60t-106.5 -21t-106.5 21t-89.5 60q-39 40 -60 90t-21 106t21 106.5t60 89.5q32 32 71.5 52t83.5 27q-23 34 -23 73q0 25 10 45t27 34t39.5 21.5t47.5 7.5q27 0 50.5 -10t40.5 -27t27 -40.5t11 -51.5
h-70q0 25 -16.5 42t-42.5 17q-8 0 -17.5 -1.5t-17.5 -6t-13.5 -12t-5.5 -18.5q0 -24 21.5 -42.5t51.5 -36l62.5 -35t54.5 -38.5zM337 47q43 0 81 16.5t66 44.5t44.5 65.5t16.5 80.5q0 37 -18.5 74t-48 66t-67 48t-74.5 20q-43 0 -80.5 -16.5t-65.5 -44.5t-44.5 -66
t-16.5 -81t16.5 -80.5t44.5 -65.5t65.5 -44.5t80.5 -16.5z" />
    <glyph glyph-name="epsilon" unicode="&#x3b5;" horiz-adv-x="651" 
d="M335 47q55 0 103.5 28t75.5 78h77q-34 -81 -102 -128.5t-154 -47.5q-57 0 -107 21t-87.5 58t-59 86.5t-21.5 106.5t21.5 107t59 87.5t87.5 59t107 21.5q61 0 113.5 -24t90.5 -66h-115q-42 20 -89 20q-42 0 -79.5 -16t-65.5 -44q-24 -24 -39 -54h273v-70h-293
q-1 -5 -1 -10.5v-10.5q0 -42 16 -79t44 -64.5t65.5 -43t79.5 -15.5z" />
    <glyph glyph-name="epsilontonos" unicode="&#x3ad;" horiz-adv-x="651" 
d="M290 751h71v-159h-71v159zM335 47q55 0 103.5 28t75.5 78h77q-34 -81 -102 -128.5t-154 -47.5q-57 0 -107 21t-87.5 58t-59 86.5t-21.5 106.5t21.5 107t59 87.5t87.5 59t107 21.5q61 0 113.5 -24t90.5 -66h-115q-42 20 -89 20q-42 0 -79.5 -16t-65.5 -44q-24 -24 -39 -54
h273v-70h-293q-1 -5 -1 -10.5v-10.5q0 -42 16 -79t44 -64.5t65.5 -43t79.5 -15.5z" />
    <glyph glyph-name="zeta" unicode="&#x3b6;" horiz-adv-x="495" 
d="M217 -164q80 0 107 20q9 6 13.5 16.5t4.5 22t-4.5 22t-13.5 17.5q-14 10 -36.5 13t-49.5 5t-54.5 7t-51.5 18q-39 21 -55 50.5t-16.5 62.5t12 66.5t31.5 63.5q38 60 80 111.5t86 98.5h-133v70h298l-92 -95t-94 -107q-42 -51 -66 -86t-36.5 -57.5t-15.5 -34.5t-3 -16
q0 -26 12.5 -42.5t31.5 -26t42 -13t43 -3.5q68 0 108 -28q21 -16 33 -41.5t12.5 -53t-10.5 -54t-36 -44.5q-47 -32 -147 -32v70z" />
    <glyph glyph-name="eta" unicode="&#x3b7;" horiz-adv-x="569" 
d="M443 461q32 -32 49 -73t17 -86v-476h-70v476q0 32 -12.5 60t-33.5 49t-49 33t-60 12t-60 -12t-49 -33t-33 -49t-12 -60v-302h-70v500h58l12 -35q31 30 70.5 45.5t83.5 15.5q45 0 86 -16.5t73 -48.5z" />
    <glyph glyph-name="etatonos" unicode="&#x3ae;" horiz-adv-x="583" 
d="M258 751h71v-159h-71v159zM452 461q32 -32 49 -73t17 -86v-476h-70v476q0 32 -12.5 60t-33.5 49t-49 33t-60 12t-60 -12t-49 -33t-33 -49t-12 -60v-302h-70v500h58l12 -35q31 30 70.5 45.5t83.5 15.5q45 0 86 -16.5t73 -48.5z" />
    <glyph glyph-name="theta" unicode="&#x3b8;" horiz-adv-x="868" 
d="M60 350q0 77 29.5 145t80.5 119t119 80.5t145 29.5t145 -29.5t119 -80.5t80.5 -119t29.5 -145t-29.5 -145t-80.5 -119t-119 -80.5t-145 -29.5t-145 29.5t-119 80.5t-80.5 119t-29.5 145zM154 232q18 -41 46 -75t64.5 -59t79.5 -38.5t90 -13.5q46 0 89 13.5t79.5 38.5
t64.5 59t46 75q8 20 14 40.5t8 42.5h-603q2 -22 8 -42.5t14 -40.5zM713 467q-18 41 -46 75t-64.5 59t-79.5 38.5t-89 13.5q-47 0 -90 -13.5t-79.5 -38.5t-64.5 -59t-46 -75q-8 -20 -14 -40t-8 -42h603q-2 22 -8 42t-14 40z" />
    <glyph glyph-name="iota" unicode="&#x3b9;" horiz-adv-x="322" 
d="M130 199q0 -30 7.5 -57.5t23.5 -48.5t41 -33.5t60 -12.5v-70q-47 0 -84.5 16t-63.5 45.5t-40 70t-14 90.5v301h70v-301z" />
    <glyph glyph-name="iotadieresis" unicode="&#x3ca;" horiz-adv-x="322" 
d="M130 199q0 -30 7.5 -57.5t23.5 -48.5t41 -33.5t60 -12.5v-70q-47 0 -84.5 16t-63.5 45.5t-40 70t-14 90.5v301h70v-301zM-26 648q0 18 12 30.5t30 12.5t30.5 -12.5t12.5 -30.5t-12.5 -30t-30.5 -12t-30 12t-12 30zM134 648q0 18 12 30.5t30 12.5t30.5 -12.5t12.5 -30.5
t-12.5 -30t-30.5 -12t-30 12t-12 30z" />
    <glyph glyph-name="iotadieresistonos" unicode="&#x390;" horiz-adv-x="322" 
d="M59 907h71v-159h-71v159zM-27 695q0 18 12 30.5t30 12.5t30.5 -12.5t12.5 -30.5t-12.5 -30t-30.5 -12t-30 12t-12 30zM133 695q0 18 12 30.5t30 12.5t30.5 -12.5t12.5 -30.5t-12.5 -30t-30.5 -12t-30 12t-12 30zM130 199q0 -30 7.5 -57.5t23.5 -48.5t41 -33.5t60 -12.5
v-70q-47 0 -84.5 16t-63.5 45.5t-40 70t-14 90.5v301h70v-301z" />
    <glyph glyph-name="iotatonos" unicode="&#x3af;" horiz-adv-x="194" 
d="M57 751h71v-159h-71v159zM127 199q0 -30 7.5 -57.5t23.5 -48.5t41 -33.5t60 -12.5v-70q-47 0 -84.5 16t-63.5 45.5t-40 70t-14 90.5v301h70v-301z" />
    <glyph glyph-name="kappa" unicode="&#x3ba;" horiz-adv-x="470" 
d="M237 480q3 5 9.5 13t15.5 15.5t20 12t24 3.5q27 -3 38 -29q7 -14 4.5 -31t-11.5 -30q-14 -17 -34.5 -24t-39.5 -10l-80 -103l227 -297h-88l-184 240l-8 -9v-231h-70v700h70v-357z" />
    <glyph glyph-name="lambda" unicode="&#x3bb;" horiz-adv-x="570" 
d="M440 501q0 30 -7.5 57.5t-23.5 48.5t-41 33.5t-60 12.5v70q47 0 84.5 -16t63.5 -45.5t40 -70.5t14 -90v-501h-70v306q-2 31 -14.5 57.5t-33.5 46.5t-48.5 31.5t-58.5 11.5q-32 0 -60 -12t-49 -33t-33.5 -49t-12.5 -60v-299h-70v299q0 45 17 86t49 73t73 48.5t86 16.5
q44 0 83.5 -16t71.5 -45v39z" />
    <glyph glyph-name="uni03BC" unicode="&#x3bc;" horiz-adv-x="569" 
d="M60 500h70v-299q0 -32 12.5 -60t33.5 -49t49 -33t60 -12t60 12t49 33t33 49t12 60v299h70v-500h-58l-12 38q-31 -30 -70.5 -45.5t-83.5 -15.5t-83.5 16t-71.5 45v-212h-70v674z" />
    <glyph glyph-name="nu" unicode="&#x3bd;" horiz-adv-x="633" 
d="M60 500h77l179 -412l180 412h77l-218 -500h-77z" />
    <glyph glyph-name="xi" unicode="&#x3be;" horiz-adv-x="514" 
d="M237 -164q27 0 53 2t47 10.5t34 26t13 48.5q0 23 -9 38t-23.5 23.5t-33 12t-37.5 3.5q-33 0 -66 6.5t-62 19.5t-51.5 32t-33 43.5t-6.5 54.5t27 65q32 43 78 68.5t91 43.5q-23 7 -45.5 17.5t-41 25.5t-30 34t-11.5 45q0 41 38.5 85.5t111.5 89.5h-173v70h312l14 -67
l-10.5 -5.5l-28 -14.5l-39.5 -21t-45 -26q-61 -39 -85.5 -67.5t-24.5 -43.5q0 -12 10.5 -21.5t25 -16.5t28.5 -12t22 -7q19 -5 38 -8.5t33 -5.5q17 -3 32 -4l11 -67q-55 -23 -107.5 -41.5t-99.5 -48.5q-44 -28 -51.5 -55.5t9 -49t52 -35t78.5 -13.5q37 0 68.5 -8.5
t54.5 -26.5t36.5 -46t13.5 -66q0 -50 -19 -80.5t-50 -47.5t-70 -23t-78 -6v70z" />
    <glyph glyph-name="pi" unicode="&#x3c0;" horiz-adv-x="732" 
d="M672 500v-70h-139v-430h-70v430h-194v-430h-70v430h-139v70h612z" />
    <glyph glyph-name="rho" unicode="&#x3c1;" horiz-adv-x="666" 
d="M140 444q38 38 88 59t105 21t105 -21t88 -59q39 -39 59.5 -89t20.5 -105q0 -54 -20.5 -104t-59.5 -89q-38 -38 -88 -59t-105 -21t-105 21t-88 59q-7 7 -10 11v-282h-70v464q0 55 20.5 105t59.5 89zM333 47q42 0 79 16t64.5 43.5t43.5 64.5t16 79t-16 79.5t-43.5 65
t-64.5 43.5t-79 16t-79 -16t-64.5 -43.5t-43.5 -65t-16 -79.5t16 -79t43.5 -64.5t64.5 -43.5t79 -16z" />
    <glyph glyph-name="uni03C2" unicode="&#x3c2;" horiz-adv-x="647" 
d="M438 -164q33 0 56 23.5t23 55.5q0 33 -23 47.5t-56 14.5h-104q-55 0 -105 20t-89 59q-38 39 -59 89t-21 105t21 105t59 89q39 39 89 59.5t105 20.5q83 0 151 -44q65 -44 99 -116l-64 -29q-25 55 -74 86q-50 33 -112 33q-42 0 -79 -16t-65 -43.5t-44 -65t-16 -79.5t16 -79
t44 -64.5t65 -43.5t79 -16h104q31 0 58 -9t47 -26t32 -41.5t12 -55.5t-12 -58t-32 -47.5t-47 -32t-58 -11.5v70z" />
    <glyph glyph-name="sigma" unicode="&#x3c3;" horiz-adv-x="667" 
d="M333 -23q-55 0 -104.5 21t-88.5 59q-38 39 -59 89t-21 104q0 55 21 105t59 89q39 38 88.5 59t104.5 21h274v-70h-91q44 -39 67.5 -92t23.5 -112q0 -54 -21 -104t-59 -89q-39 -38 -89 -59t-105 -21zM333 454q-42 0 -79 -16t-64.5 -43.5t-43.5 -65t-16 -79.5t16 -79
t43.5 -64.5t64.5 -43.5t79 -16t79 16t65 43.5t44 64.5t16 79t-16 79.5t-44 65t-65 43.5t-79 16z" />
    <glyph glyph-name="tau" unicode="&#x3c4;" horiz-adv-x="468" 
d="M60 500h348v-70h-139v-430h-70v430h-139v70z" />
    <glyph glyph-name="upsilon" unicode="&#x3c5;" horiz-adv-x="570" 
d="M371 375h139v-174q0 -45 -17 -86t-49 -73t-73 -48.5t-86 -16.5t-86 16.5t-73 48.5t-49 73t-17 86v299h70v-299q0 -32 12.5 -60t33.5 -49t49 -33t60 -12t60 12t49 33t33.5 49t12.5 60v105h-69v69z" />
    <glyph glyph-name="upsilondieresis" unicode="&#x3cb;" horiz-adv-x="564" 
d="M369 375h139v-174q0 -45 -17 -86t-49 -73t-73 -48.5t-86 -16.5t-86 16.5t-73 48.5t-49 73t-17 86v299h70v-299q0 -32 12.5 -60t33.5 -49t49 -33t60 -12t60 12t49 33t33.5 49t12.5 60v105h-69v69zM163 648q0 18 12 30.5t30 12.5t30.5 -12.5t12.5 -30.5t-12.5 -30
t-30.5 -12t-30 12t-12 30zM323 648q0 18 12 30.5t30 12.5t30.5 -12.5t12.5 -30.5t-12.5 -30t-30.5 -12t-30 12t-12 30z" />
    <glyph glyph-name="upsilondieresistonos" unicode="&#x3b0;" horiz-adv-x="564" 
d="M246 777h71v-159h-71v159zM160 565q0 18 12 30.5t30 12.5t30.5 -12.5t12.5 -30.5t-12.5 -30t-30.5 -12t-30 12t-12 30zM320 565q0 18 12 30.5t30 12.5t30.5 -12.5t12.5 -30.5t-12.5 -30t-30.5 -12t-30 12t-12 30zM368 375h139v-174q0 -45 -17 -86t-49 -73t-73 -48.5
t-86 -16.5t-86 16.5t-73 48.5t-49 73t-17 86v299h70v-299q0 -32 12.5 -60t33.5 -49t49 -33t60 -12t60 12t49 33t33.5 49t12.5 60v105h-69v69z" />
    <glyph glyph-name="upsilontonos" unicode="&#x3cd;" horiz-adv-x="564" 
d="M369 375h139v-174q0 -45 -17 -86t-49 -73t-73 -48.5t-86 -16.5t-86 16.5t-73 48.5t-49 73t-17 86v299h70v-299q0 -32 12.5 -60t33.5 -49t49 -33t60 -12t60 12t49 33t33.5 49t12.5 60v105h-69v69zM322 592h-74l63 200h74z" />
    <glyph glyph-name="phi" unicode="&#x3c6;" horiz-adv-x="667" 
d="M298 676h70v-154q92 -12 159 -78q38 -39 59 -89t21 -105q0 -54 -21 -104t-59 -89q-67 -66 -159 -78v-153h-70v153q-92 12 -158 78q-38 39 -59 89t-21 104q0 55 21 105t59 89q66 66 158 78v154zM537 250q0 38 -13 71.5t-36 60.5t-53.5 45t-66.5 24v-401q36 6 66.5 24
t53.5 44.5t36 60t13 71.5zM130 250q0 -38 12.5 -71.5t35 -60t53.5 -44.5t67 -24v401q-36 -6 -67 -24t-53.5 -45t-35 -60.5t-12.5 -71.5z" />
    <glyph glyph-name="chi" unicode="&#x3c7;" horiz-adv-x="572" 
d="M325 150l187 -351h-78l-148 277l-148 -277h-78l186 351l-186 349h80l146 -275l146 275h80z" />
    <glyph glyph-name="psi" unicode="&#x3c8;" horiz-adv-x="630" 
d="M440 500h130v-299q0 -45 -17 -86t-49 -73t-73 -48.5t-86 -16.5t-86 16.5t-73 48.5t-49 73t-17 86v229h-60v70h130v-299q0 -32 12.5 -60t33.5 -49t49 -33t60 -12t60 12t49 33t33.5 49t12.5 60v229h-60v70zM310 676h70v-850h-70v850z" />
    <glyph glyph-name="omega" unicode="&#x3c9;" horiz-adv-x="950" 
d="M809 500q19 -29 34 -65.5t25.5 -76t16 -80t5.5 -77.5q0 -45 -17 -86t-49 -73t-73 -48.5t-86 -16.5t-86 16.5t-73 48.5q-17 17 -31 39q-14 -22 -31 -39q-32 -32 -73 -48.5t-86 -16.5t-86 16.5t-73 48.5t-49 73t-17 86q0 35 5.5 74.5t16 79.5t25.5 77t35 68h91
q-36 -35 -56.5 -80.5t-31 -89t-13 -79t-2.5 -50.5q0 -32 12.5 -60t33.5 -49t49 -33t60 -12q31 0 58.5 11.5t48.5 31.5t33.5 46.5t14.5 57.5v306h70v-306q1 -31 13.5 -57.5t33.5 -46.5t49 -31.5t59 -11.5q32 0 60 12t49 33t33.5 49t12.5 60q0 15 -2.5 50.5t-13 79t-31 89
t-56.5 80.5h92v0z" />
    <glyph glyph-name="omegatonos" unicode="&#x3ce;" horiz-adv-x="950" 
d="M809 500q19 -29 34 -65.5t25.5 -76t16 -80t5.5 -77.5q0 -45 -17 -86t-49 -73t-73 -48.5t-86 -16.5t-86 16.5t-73 48.5q-17 17 -31 39q-14 -22 -31 -39q-32 -32 -73 -48.5t-86 -16.5t-86 16.5t-73 48.5t-49 73t-17 86q0 35 5.5 74.5t16 79.5t25.5 77t35 68h91
q-36 -35 -56.5 -80.5t-31 -89t-13 -79t-2.5 -50.5q0 -32 12.5 -60t33.5 -49t49 -33t60 -12q31 0 58.5 11.5t48.5 31.5t33.5 46.5t14.5 57.5v306h70v-306q1 -31 13.5 -57.5t33.5 -46.5t49 -31.5t59 -11.5q32 0 60 12t49 33t33.5 49t12.5 60q0 15 -2.5 50.5t-13 79t-31 89
t-56.5 80.5h92v0zM512 592h-74l63 200h74z" />
    <glyph glyph-name="omicron" unicode="&#x3bf;" horiz-adv-x="667" 
d="M333 -23q-55 0 -104.5 21t-88.5 59q-38 39 -59 89t-21 104q0 55 21 105t59 89q39 38 88.5 59t104.5 21t105 -21t89 -59q38 -39 59 -89t21 -105q0 -54 -21 -104t-59 -89q-39 -38 -89 -59t-105 -21zM333 454q-42 0 -79 -16t-64.5 -43.5t-43.5 -65t-16 -79.5t16 -79
t43.5 -64.5t64.5 -43.5t79 -16t79 16t65 43.5t44 64.5t16 79t-16 79.5t-44 65t-65 43.5t-79 16z" />
    <glyph glyph-name="omicrontonos" unicode="&#x3cc;" horiz-adv-x="661" 
d="M331 -23q-55 0 -104.5 21t-88.5 59q-38 39 -59 89t-21 104q0 55 21 105t59 89q39 38 88.5 59t104.5 21t105 -21t89 -59q38 -39 59 -89t21 -105q0 -54 -21 -104t-59 -89q-39 -38 -89 -59t-105 -21zM331 454q-42 0 -79 -16t-64.5 -43.5t-43.5 -65t-16 -79.5t16 -79
t43.5 -64.5t64.5 -43.5t79 -16t79 16t65 43.5t44 64.5t16 79t-16 79.5t-44 65t-65 43.5t-79 16zM370 592h-74l63 200h74z" />
    <glyph glyph-name="uni03D0" unicode="&#x3d0;" horiz-adv-x="584" 
d="M60 0v700h197q103 0 163 -55q29 -28 42 -62q14 -36 14 -75q0 -41 -16.5 -76t-47.5 -60q34 -16 55 -37q57 -55 57 -142q0 -23 -5 -43.5t-13 -38.5q-19 -38 -49 -62t-69 -36.5t-84 -12.5h-244zM257 322v70q28 0 54.5 7t47.5 21t34 36t13 52q0 19 -6.5 42.5t-27.5 43.5
q-39 36 -115 36h-127v-560h174q67 0 109 34q41 33 41 89q0 29 -9 51.5t-26 39.5q-40 38 -115 38h-47z" />
    <glyph glyph-name="uni03D1" unicode="&#x3d1;" horiz-adv-x="741" 
d="M392 -23q-42 0 -70.5 10.5t-48.5 26.5t-33 35.5l-24 37.5t-22 34t-28 28q-36 27 -106 27v70q93 0 148 -40q25 -19 40.5 -41t27.5 -42q10 -17 19.5 -31t22 -24t30 -15.5t44.5 -5.5q1 0 7.5 0.5t17 2.5t23.5 7t27 13q70 42 70 149v46h-159q-46 0 -88 17t-74 50
q-33 32 -50.5 74t-17.5 88t17.5 88t50.5 74q32 33 74 50t88 17t88 -17t74 -50q32 -32 49.5 -74t17.5 -88v-159h74v-70h-74v-46q0 -46 -10 -81t-25.5 -60.5t-34.5 -42.5t-37 -27q-20 -11 -39 -17.5t-34 -9.5t-24.5 -3.5t-10.5 -0.5zM378 653q-33 0 -62 -12.5t-51 -34
t-34.5 -50.5t-12.5 -62t12.5 -62t34.5 -50.5t51 -34t62 -12.5h159v159q0 33 -12.5 62t-34 50.5t-50.5 34t-62 12.5z" />
    <glyph glyph-name="uni03F0" unicode="&#x3f0;" horiz-adv-x="603" 
d="M352 71q-29 37 -54 96l-89 -167h-80l135 256q-31 88 -66 132q-26 34 -50 40q-17 4 -28.5 -2t-12.5 -7q0 1 1 1l-48 51q6 6 16 12t23.5 10.5t30 5.5t34.5 -3q49 -12 89 -64q14 -19 27.5 -42.5t26.5 -52.5l87 163h81l-134 -252q30 -86 67 -134q13 -17 26.5 -27.5
t25.5 -14.5q8 -2 15 -1.5t12 2.5t10 5l46 -54q-2 -1 -7.5 -4.5t-14.5 -8t-21 -8t-27 -3.5q-35 0 -65.5 21t-55.5 50z" />
    <glyph glyph-name="afii10017" unicode="&#x410;" horiz-adv-x="644" 
d="M285 700h74l225 -700h-74l-88 273h-200l-88 -273h-74zM244 343h156l-78 243z" />
    <glyph glyph-name="afii10018" unicode="&#x411;" horiz-adv-x="666" 
d="M140 57q-39 39 -59.5 89t-20.5 105v449h402v-70h-332v-197l10 11q38 38 88 59t105 21t105 -21t88 -59q39 -39 59.5 -89t20.5 -104q0 -55 -20.5 -105t-59.5 -89q-38 -38 -88 -59t-105 -21t-105 21t-88 59zM333 454q-42 0 -79 -16t-64.5 -43.5t-43.5 -64.5t-16 -79
t16 -79.5t43.5 -65t64.5 -43.5t79 -16t79 16t64.5 43.5t43.5 65t16 79.5t-16 79t-43.5 64.5t-64.5 43.5t-79 16z" />
    <glyph glyph-name="afii10019" unicode="&#x412;" horiz-adv-x="584" 
d="M60 0v700h197q103 0 163 -55q29 -28 42 -62q14 -36 14 -75q0 -41 -16.5 -76t-47.5 -60q34 -16 55 -37q57 -55 57 -142q0 -23 -5 -43.5t-13 -38.5q-19 -38 -49 -62t-69 -36.5t-84 -12.5h-244zM372 594q-39 36 -115 36h-127v-238h127q28 0 54.5 7t47.5 21t34 36t13 52
q0 19 -6.5 42.5t-27.5 43.5zM130 322v-252h174q67 0 109 34q41 33 41 89q0 29 -9 51.5t-26 39.5q-40 38 -115 38h-174z" />
    <glyph glyph-name="afii10020" unicode="&#x413;" horiz-adv-x="380" 
d="M130 630v-630h-70v700h260v-70h-190z" />
    <glyph glyph-name="afii10021" unicode="&#x414;" horiz-adv-x="649" 
d="M60 0l45 76.5t68 135.5q26 58 46.5 115t35.5 113q37 136 37 260h72l225 -700v-74h-74v74l-88 273h-153q-8 -23 -17.5 -45.5t-20.5 -45.5q-26 -59 -51 -105l-43 -77v-74h-82v74zM405 343l-59 184q-17 -94 -47 -184h106z" />
    <glyph glyph-name="afii10022" unicode="&#x415;" horiz-adv-x="586" 
d="M526 630h-396v-287h326v-70h-326v-203h396v-70h-466v700h466v-70v0z" />
    <glyph glyph-name="afii10023" unicode="&#x401;" horiz-adv-x="579" 
d="M536 630h-396v-287h326v-70h-326v-203h396v-70h-466v700h466v-70v0zM181 848q0 18 12 30.5t30 12.5t30.5 -12.5t12.5 -30.5t-12.5 -30t-30.5 -12t-30 12t-12 30zM341 848q0 18 12 30.5t30 12.5t30.5 -12.5t12.5 -30.5t-12.5 -30t-30.5 -12t-30 12t-12 30z" />
    <glyph glyph-name="afii10025" unicode="&#x417;" horiz-adv-x="670" 
d="M543 700v-1l1 1v-70l-139 -114q10 -2 19 -5.5t18 -7.5q37 -16 68 -41.5t53 -58t34.5 -71.5t12.5 -82q0 -57 -21.5 -107t-59 -87.5t-87.5 -59t-107 -21.5q-43 0 -82 12.5t-72 34.5t-58.5 53t-41.5 68q-21 49 -21 106h70q0 -43 16 -79q24 -55 74.5 -90t114.5 -35
q42 0 79.5 16t65.5 44t44 65.5t16 79.5q0 29 -9.5 59.5t-28 57t-47 46.5t-66.5 29q-54 9 -100 2v75l151 111h-340v70h443z" />
    <glyph glyph-name="afii10026" unicode="&#x418;" horiz-adv-x="646" 
d="M130 128l379 572h77v-700h-70v584l-386 -584h-70v700h70v-572z" />
    <glyph glyph-name="afii10027" unicode="&#x419;" horiz-adv-x="646" 
d="M130 128l379 572h77v-700h-70v584l-386 -584h-70v700h70v-572zM323 770q-27 0 -50.5 10t-41 28t-28 41.5t-10.5 50.5h70q0 -25 17.5 -42.5t42.5 -17.5q26 0 43 17.5t17 42.5h70q0 -27 -10 -50.5t-28 -41.5t-41.5 -28t-50.5 -10z" />
    <glyph glyph-name="afii10028" unicode="&#x41a;" horiz-adv-x="587" 
d="M437 0l-262 326l-45 -55v-271h-70v700h70v-318l260 318h90l-260 -318l307 -382h-90v0z" />
    <glyph glyph-name="afii10029" unicode="&#x41b;" horiz-adv-x="656" 
d="M60 70h70v630h466v-700h-70v630h-326v-630h-140v70z" />
    <glyph glyph-name="afii10030" unicode="&#x41c;" horiz-adv-x="708" 
d="M571 700h77v-700h-70v584l-224 -339l-224 339v-584h-70v700h77l217 -328l217 328v0z" />
    <glyph glyph-name="afii10031" unicode="&#x41d;" horiz-adv-x="586" 
d="M456 273h-326v-273h-70v700h70v-357h326v357h70v-700h-70v273z" />
    <glyph glyph-name="afii10032" unicode="&#x41e;" horiz-adv-x="866" 
d="M433 -23q-75 0 -145 29q-68 28 -119 80q-52 51 -80 119q-29 70 -29 145t29 145q28 67 80 119q51 51 119 80q70 29 145 29t145 -29q67 -29 119 -80q51 -52 80 -119q29 -70 29 -145t-29 -145q-29 -68 -80 -119q-52 -52 -119 -80q-70 -29 -145 -29zM433 653
q-61 0 -116 -22.5t-98 -66.5q-44 -43 -66.5 -98t-22.5 -116t22.5 -116t66.5 -98q43 -44 98 -66.5t116 -22.5t116 22.5t98 66.5q44 43 66.5 98t22.5 116t-22.5 116t-66.5 98q-43 44 -98 66.5t-116 22.5z" />
    <glyph glyph-name="afii10033" unicode="&#x41f;" horiz-adv-x="586" 
d="M60 0v700h466v-700h-70v630h-326v-630h-70z" />
    <glyph glyph-name="afii10034" unicode="&#x420;" horiz-adv-x="584" 
d="M506 589q8 -18 13 -41t5 -62q0 -41 -5 -62.5t-13 -39.5q-19 -38 -49 -62t-69 -36.5t-84 -12.5h-174v-273h-70v700h244q45 0 84 -12.5t69 -36.5t49 -62zM413 377q11 10 20 26q8 14 14.5 34t6.5 49q0 43 -10.5 68.5t-30.5 41.5q-42 34 -109 34h-174v-287h174q67 0 109 34z
" />
    <glyph glyph-name="afii10035" unicode="&#x421;" horiz-adv-x="822" 
d="M762 174q-26 -49 -65 -88q-52 -52 -119 -80q-70 -29 -145 -29t-145 29q-68 28 -119 80q-52 51 -80 119q-29 70 -29 145t29 145q28 67 80 119q51 51 119 80q70 29 145 29t145 -29q67 -29 119 -80q39 -39 65 -88h-82q-8 11 -16 20t-17 18q-43 44 -98 66.5t-116 22.5
t-116 -22.5t-98 -66.5q-44 -43 -66.5 -98t-22.5 -116t22.5 -116t66.5 -98q43 -44 98 -66.5t116 -22.5t116 22.5t98 66.5q9 9 17 18t16 20h82z" />
    <glyph glyph-name="afii10036" unicode="&#x422;" horiz-adv-x="586" 
d="M60 630v70h466v-70h-198v-630h-70v630h-198z" />
    <glyph glyph-name="afii10037" unicode="&#x423;" horiz-adv-x="570" 
d="M440 238q-32 -29 -71.5 -45t-83.5 -16q-45 0 -86 16.5t-73 48.5t-49 73t-17 86v299h70v-299q0 -32 12.5 -60t33.5 -49t49 -33t60 -12q31 0 58.5 11.5t48.5 31.5t33.5 46.5t14.5 57.5v306h70v-501q0 -50 -14 -90.5t-40 -70t-63.5 -45.5t-84.5 -16v70q35 0 60 12.5t41 33.5
t23.5 48.5t7.5 57.5v39z" />
    <glyph glyph-name="afii10038" unicode="&#x424;" horiz-adv-x="866" 
d="M433 -23q-75 0 -145 29q-68 28 -119 80q-52 51 -80 119q-29 70 -29 145t29 145q28 67 80 119q51 51 119 80q70 29 145 29t145 -29q67 -29 119 -80q51 -52 80 -119q29 -70 29 -145t-29 -145q-29 -68 -80 -119q-52 -52 -119 -80q-70 -29 -145 -29zM433 653
q-61 0 -116 -22.5t-98 -66.5q-44 -43 -66.5 -98t-22.5 -116t22.5 -116t66.5 -98q43 -44 98 -66.5t116 -22.5t116 22.5t98 66.5q44 43 66.5 98t22.5 116t-22.5 116t-66.5 98q-43 44 -98 66.5t-116 22.5zM398 700h70v-700h-70v700z" />
    <glyph glyph-name="afii10039" unicode="&#x425;" horiz-adv-x="572" 
d="M325 351l187 -351h-78l-148 277l-148 -277h-78l186 351l-186 349h80l146 -275l146 275h80z" />
    <glyph glyph-name="afii10040" unicode="&#x426;" horiz-adv-x="626" 
d="M496 0h-436v700h70v-630h326v630h70v-630h40v-244h-70v174z" />
    <glyph glyph-name="afii10041" unicode="&#x427;" horiz-adv-x="569" 
d="M126 239q-32 32 -49 73t-17 86v302h70v-302q0 -32 12.5 -60t33.5 -49t49 -33t60 -12t60 12t49 33t33 49t12 60v302h70v-700h-70v235q-31 -30 -70.5 -45.5t-83.5 -15.5q-45 0 -86 16.5t-73 48.5z" />
    <glyph glyph-name="afii10042" unicode="&#x428;" horiz-adv-x="586" 
d="M526 700v-700h-466v700h70v-630h128v630h70v-630h128v630h70z" />
    <glyph glyph-name="afii10043" unicode="&#x429;" horiz-adv-x="626" 
d="M526 700v-630h40v-244h-70v174h-436v700h70v-630h128v630h70v-630h128v630h70z" />
    <glyph glyph-name="afii10044" unicode="&#x42a;" horiz-adv-x="777" 
d="M251 57q-39 39 -59.5 89t-20.5 105v379h-111v70h181v-267l10 11q38 38 88 59t105 21t105 -21t88 -59q39 -39 59.5 -89t20.5 -104q0 -55 -20.5 -105t-59.5 -89q-38 -38 -88 -59t-105 -21t-105 21t-88 59zM444 454q-42 0 -79 -16t-64.5 -43.5t-43.5 -64.5t-16 -79t16 -79.5
t43.5 -65t64.5 -43.5t79 -16t79 16t64.5 43.5t43.5 65t16 79.5t-16 79t-43.5 64.5t-64.5 43.5t-79 16z" />
    <glyph glyph-name="afii10045" unicode="&#x42b;" horiz-adv-x="794" 
d="M140 57q-39 39 -59.5 89t-20.5 105v449h70v-267q3 4 10 11q38 38 88 59t105 21t105 -21t88 -59q39 -39 59.5 -89t20.5 -104q0 -55 -20.5 -105t-59.5 -89q-38 -38 -88 -59t-105 -21t-105 21t-88 59zM333 454q-42 0 -79 -16t-64.5 -43.5t-43.5 -64.5t-16 -79t16 -79.5
t43.5 -65t64.5 -43.5t79 -16t79 16t64.5 43.5t43.5 65t16 79.5t-16 79t-43.5 64.5t-64.5 43.5t-79 16zM664 700h70v-700h-70v700z" />
    <glyph glyph-name="afii10046" unicode="&#x42c;" horiz-adv-x="584" 
d="M506 111q-19 -38 -49 -62t-69 -36.5t-84 -12.5h-244v700h70v-273h174q45 0 84 -12.5t69 -36.5t49 -62q8 -18 13 -39.5t5 -62.5q0 -39 -5 -62t-13 -41zM413 323q-42 34 -109 34h-174v-287h174q67 0 109 34q20 16 30.5 41.5t10.5 68.5q0 29 -6.5 49t-14.5 34q-9 16 -20 26z
" />
    <glyph glyph-name="afii10047" unicode="&#x42d;" horiz-adv-x="494" 
d="M125 315v70h237q-2 22 -8 42t-14 40q-18 41 -46 75t-64.5 59t-79.5 38.5t-90 13.5v71q77 0 145 -29.5t119 -80.5t80.5 -119t29.5 -145t-29.5 -145t-80.5 -119t-119 -80.5t-145 -29.5v70q47 0 90 13.5t79.5 38.5t64.5 59t46 75q8 20 14 40.5t8 42.5h-237z" />
    <glyph glyph-name="afii10048" unicode="&#x42e;" horiz-adv-x="581" 
d="M371 155q-32 0 -63 17q-27 17 -47 44q-30 41 -38 99h-93v-315h-70v700h70v-315h93q7 55 38 98q20 29 47 44q30 18 63 18t62 -18q27 -15 47 -44q20 -27 30.5 -61t10.5 -72t-10.5 -72.5t-30.5 -61.5t-47 -44q-29 -17 -62 -17zM371 475q-20 0 -33.5 -12t-19.5 -21
q-14 -18 -20.5 -42t-6.5 -50t6.5 -50.5t20.5 -42.5q6 -9 19.5 -20.5t33.5 -11.5t33 11.5t20 20.5q27 38 27 93q0 54 -27 92q-7 9 -20 21t-33 12z" />
    <glyph glyph-name="afii10049" unicode="&#x42f;" horiz-adv-x="584" 
d="M130 0h-70v144q0 8 0.5 16t1.5 16q9 65 55 110l14 11.5t15 10.5q-5 3 -9.5 6.5l-9.5 7.5q-30 24 -49 62q-8 18 -13 39.5t-5 62.5q0 39 5 62t13 41q19 38 49 62t69 36.5t84 12.5h244v-700h-70v273h-183q-68 -3 -106 -38q-17 -17 -26 -39.5t-9 -51.5v-144zM171 377
q42 -34 109 -34h174v287h-174q-67 0 -109 -34q-20 -16 -30.5 -41.5t-10.5 -68.5q0 -29 6 -49t14 -34q9 -16 21 -26z" />
    <glyph glyph-name="afii10050" unicode="&#x490;" horiz-adv-x="459" 
d="M130 0h-70v642h270v59h69v-129h-269v-572z" />
    <glyph glyph-name="afii10051" unicode="&#x402;" horiz-adv-x="864" 
d="M531 454q-41 0 -77 -15.5t-63.5 -41.5t-44.5 -62t-18 -76v-259h-70v630h-198v70h466v-70h-198v-197l10 11q38 38 88 59t105 21t105 -21t88 -59q39 -39 59.5 -89t20.5 -104q0 -55 -20.5 -105t-59.5 -89q-30 -30 -66.5 -48.5t-77.5 -26.5v71q33 8 61 26.5t49 44.5
t32.5 58.5t11.5 68.5q0 42 -16 79t-43.5 64.5t-64.5 43.5t-79 16z" />
    <glyph glyph-name="afii10052" unicode="&#x403;" horiz-adv-x="380" 
d="M130 630v-630h-70v700h260v-70h-190zM206 792h-74l63 200h74z" />
    <glyph glyph-name="afii10053" unicode="&#x404;" horiz-adv-x="494" 
d="M369 385v-70h-237q2 -22 8 -42t14 -40q18 -41 46 -75t64.5 -59t79.5 -38.5t90 -13.5v-71q-77 0 -145 29.5t-119 80.5t-80.5 119t-29.5 145t29.5 145t80.5 119t119 80.5t145 29.5v-70q-47 0 -90 -13.5t-79.5 -38.5t-64.5 -59t-46 -75q-8 -20 -14 -40.5t-8 -42.5h237z" />
    <glyph glyph-name="afii10054" unicode="&#x405;" horiz-adv-x="596" 
d="M309 -23q-54 2 -99.5 17t-78.5 43t-51.5 69.5t-19.5 96.5h70q7 -83 55.5 -119.5t123.5 -36.5q30 0 58.5 7.5t50 22.5t35 38.5t13.5 55.5q0 37 -16.5 61t-43.5 40.5t-61.5 28l-70 23.5t-70 26t-61.5 35.5t-43.5 53.5t-16.5 79q0 48 18.5 86t49 64.5t70.5 40.5t83 14
q40 0 77.5 -13t66.5 -36t46.5 -56.5t17.5 -73.5h-70q-2 28 -14.5 48.5t-32 34t-43.5 20t-48 6.5q-31 0 -58.5 -9.5t-48 -26.5t-32.5 -42.5t-12 -56.5q0 -34 16 -56t42 -37.5t59 -26.5l68 -22t68.5 -25t60.5 -36q69 -56 69 -144q0 -48 -19.5 -84.5t-52 -60.5t-73 -36.5
t-82.5 -12.5z" />
    <glyph glyph-name="afii10055" unicode="&#x406;" 
d="M60 700h70v-700h-70v700z" />
    <glyph glyph-name="afii10056" unicode="&#x407;" 
d="M60 700h70v-700h-70v700zM-36 848q0 18 12 30.5t30 12.5t30.5 -12.5t12.5 -30.5t-12.5 -30t-30.5 -12t-30 12t-12 30zM124 848q0 18 12 30.5t30 12.5t30.5 -12.5t12.5 -30.5t-12.5 -30t-30.5 -12t-30 12t-12 30z" />
    <glyph glyph-name="afii10057" unicode="&#x408;" horiz-adv-x="590" 
d="M295 -23q-48 0 -90.5 17.5t-75.5 51.5q-34 33 -51.5 75.5t-17.5 90.5h70q0 -34 13 -64t35.5 -52.5t52.5 -35.5t64 -13t64 13t52.5 35.5t35.5 52.5t13 64v418h-329v70h399v-488q0 -48 -18 -90.5t-51 -75.5q-33 -34 -75.5 -51.5t-90.5 -17.5z" />
    <glyph glyph-name="afii10058" unicode="&#x409;" horiz-adv-x="973" 
d="M447 57q-39 39 -59.5 89t-20.5 105v379h-105v-431q0 -50 -14 -90.5t-40 -70t-63.5 -45.5t-84.5 -16v70q35 0 60 12.5t41 33.5t23.5 48.5t7.5 57.5v501h245v-267l10 11q38 38 88 59t105 21t105 -21t88 -59q39 -39 59.5 -89t20.5 -104q0 -55 -20.5 -105t-59.5 -89
q-38 -38 -88 -59t-105 -21t-105 21t-88 59zM640 454q-42 0 -79 -16t-64.5 -43.5t-43.5 -64.5t-16 -79t16 -79.5t43.5 -65t64.5 -43.5t79 -16t79 16t64.5 43.5t43.5 65t16 79.5t-16 79t-43.5 64.5t-64.5 43.5t-79 16z" />
    <glyph glyph-name="afii10059" unicode="&#x40a;" horiz-adv-x="847" 
d="M60 700h70v-176h111v176h70v-176h203q55 0 105 -21t88 -59q39 -39 59.5 -89t20.5 -104q0 -55 -20.5 -105t-59.5 -89q-38 -38 -88 -59t-105 -21t-105 21t-88 59q-39 39 -59.5 89t-20.5 105v203h-111v-454h-70v700zM311 454v-203q0 -42 16 -79.5t43.5 -65t64.5 -43.5
t79 -16t79 16t64.5 43.5t43.5 65t16 79.5t-16 79t-43.5 64.5t-64.5 43.5t-79 16h-203z" />
    <glyph glyph-name="afii10060" unicode="&#x40b;" horiz-adv-x="705" 
d="M579 461q32 -32 49 -73t17 -86v-302h-70v302q0 32 -12.5 60t-33.5 49t-49 33t-60 12t-60 -12t-49 -33t-33 -49t-12 -60v-302h-70v631h-136v70h342v-70h-136v-166q31 30 70.5 45.5t83.5 15.5q45 0 86 -16.5t73 -48.5z" />
    <glyph glyph-name="afii10061" unicode="&#x40c;" horiz-adv-x="587" 
d="M437 0l-262 326l-45 -55v-271h-70v700h70v-318l260 318h90l-260 -318l307 -382h-90v0zM327 792h-74l63 200h74z" />
    <glyph glyph-name="afii10062" unicode="&#x40e;" horiz-adv-x="570" 
d="M440 238q-32 -29 -71.5 -45t-83.5 -16q-45 0 -86 16.5t-73 48.5t-49 73t-17 86v299h70v-299q0 -32 12.5 -60t33.5 -49t49 -33t60 -12q31 0 58.5 11.5t48.5 31.5t33.5 46.5t14.5 57.5v306h70v-501q0 -50 -14 -90.5t-40 -70t-63.5 -45.5t-84.5 -16v70q35 0 60 12.5t41 33.5
t23.5 48.5t7.5 57.5v39zM285 770q-27 0 -50.5 10t-41 28t-28 41.5t-10.5 50.5h70q0 -25 17.5 -42.5t42.5 -17.5q26 0 43 17.5t17 42.5h70q0 -27 -10 -50.5t-28 -41.5t-41.5 -28t-50.5 -10z" />
    <glyph glyph-name="afii10065" unicode="&#x430;" horiz-adv-x="666" 
d="M526 444q39 -39 59.5 -89t20.5 -105v-250h-70v68q-3 -4 -10 -11q-38 -38 -88 -59t-105 -21t-105 21t-88 59q-39 39 -59.5 89t-20.5 104q0 55 20.5 105t59.5 89q38 38 88 59t105 21t105 -21t88 -59zM333 47q42 0 79 16t64.5 43.5t43.5 64.5t16 79t-16 79.5t-43.5 65
t-64.5 43.5t-79 16t-79 -16t-64.5 -43.5t-43.5 -65t-16 -79.5t16 -79t43.5 -64.5t64.5 -43.5t79 -16z" />
    <glyph glyph-name="afii10066" unicode="&#x431;" horiz-adv-x="666" 
d="M503 561q-28 42 -72 67t-98 25q-42 0 -79 -14t-64.5 -39.5t-43.5 -60.5t-16 -77v-29q46 47 97 69t106 22t105 -21t88 -59q39 -39 59.5 -89t20.5 -104q0 -55 -20.5 -105t-59.5 -89q-38 -38 -88 -59t-105 -21t-105 21t-88 59q-39 39 -59.5 89t-20.5 105v211q0 55 20.5 99
t59.5 82q38 39 88 59.5t105 20.5q46 0 89.5 -15.5t80.5 -44.5v37h70v-139h-70zM333 454q-42 0 -79 -16t-64.5 -43.5t-43.5 -64.5t-16 -79t16 -79.5t43.5 -65t64.5 -43.5t79 -16t79 16t64.5 43.5t43.5 65t16 79.5t-16 79t-43.5 64.5t-64.5 43.5t-79 16z" />
    <glyph glyph-name="afii10067" unicode="&#x432;" horiz-adv-x="455" 
d="M60 0v500h153q72 -1 113 -36t41 -108q0 -59 -33 -96q61 -35 61 -112q0 -35 -14.5 -62.5t-38 -46.5t-53 -29t-60.5 -10h-169zM228 70q18 1 35.5 6t31 14t22 23.5t8.5 34.5t-9 33t-23 20.5t-31 10.5t-33 3h-99v-145h98zM228 285q32 2 50.5 20.5t18.5 50.5q0 44 -23 59
t-61 15h-83v-145h98z" />
    <glyph glyph-name="afii10068" unicode="&#x433;" horiz-adv-x="380" 
d="M130 430v-430h-70v500h260v-70h-190z" />
    <glyph glyph-name="afii10069" unicode="&#x434;" horiz-adv-x="483" 
d="M350 0l-55 170h-78l-34 -81t-46 -89v-82h-77v82q36 67 62 134t43 131t26 123.5t12 111.5h69l151 -500v-82h-73v82zM273 240l-16 115l-1 -11l-2.5 -28.5t-5 -37.5t-8.5 -38h33z" />
    <glyph glyph-name="afii10070" unicode="&#x435;" horiz-adv-x="666" 
d="M130 248q0 -42 16.5 -78.5t44 -63.5t64 -43t78.5 -16q57 0 104 28.5t73 75.5h78q-21 -53 -62 -94q-39 -38 -88.5 -59t-104.5 -21t-105 21t-88 59q-39 39 -59.5 88.5t-20.5 104.5t20.5 105t59.5 88q38 39 88 60t105 21t104.5 -21t88.5 -60q39 -38 59.5 -89t20.5 -106h-476
zM333 454q-33 0 -63 -10t-55 -28t-44 -43t-30 -55h383q-22 60 -73.5 98t-117.5 38z" />
    <glyph glyph-name="afii10071" unicode="&#x451;" horiz-adv-x="666" 
d="M130 248q0 -42 16.5 -78.5t44 -63.5t64 -43t78.5 -16q57 0 104 28.5t73 75.5h78q-21 -53 -62 -94q-39 -38 -88.5 -59t-104.5 -21t-105 21t-88 59q-39 39 -59.5 88.5t-20.5 104.5t20.5 105t59.5 88q38 39 88 60t105 21t104.5 -21t88.5 -60q39 -38 59.5 -89t20.5 -106h-476
zM333 454q-33 0 -63 -10t-55 -28t-44 -43t-30 -55h383q-22 60 -73.5 98t-117.5 38zM213 648q0 18 12 30.5t30 12.5t30.5 -12.5t12.5 -30.5t-12.5 -30t-30.5 -12t-30 12t-12 30zM373 648q0 18 12 30.5t30 12.5t30.5 -12.5t12.5 -30.5t-12.5 -30t-30.5 -12t-30 12t-12 30z" />
    <glyph glyph-name="afii10073" unicode="&#x437;" horiz-adv-x="524" 
d="M318 361q32 -8 58.5 -25t46 -41.5t30.5 -55t11 -64.5q0 -43 -15.5 -79t-42.5 -62.5t-64.5 -41.5t-81.5 -15q-43 0 -79 15.5t-62 42.5t-41.5 64.5t-17.5 81.5h70q0 -27 9 -51.5t26 -42.5t41 -29t54 -11q28 0 52.5 8.5t42.5 25t28.5 40t10.5 54.5q0 32 -13.5 55.5
t-36.5 39.5t-54 24t-67 10v68l67 58h-195v70h314v-59l-91 -80v0z" />
    <glyph glyph-name="afii10074" unicode="&#x438;" horiz-adv-x="518" 
d="M381 500h77v-500h-70v383l-251 -383h-77v500h70v-382l251 382v0z" />
    <glyph glyph-name="afii10090" unicode="&#x448;" horiz-adv-x="586" 
d="M526 500v-500h-466v500h70v-430h128v430h70v-430h128v430h70z" />
    <glyph glyph-name="afii10091" unicode="&#x449;" horiz-adv-x="626" 
d="M526 500v-430h40v-244h-70v174h-436v500h70v-430h128v430h70v-430h128v430h70z" />
    <glyph glyph-name="afii10092" unicode="&#x44a;" horiz-adv-x="646" 
d="M381 388q42 0 79.5 -16t65.5 -44t44 -65.5t16 -79.5q0 -43 -16 -80.5t-44 -65.5t-65.5 -44t-79.5 -16q-43 0 -80.5 16t-65.5 44t-44 65.5t-16 80.5v247h-115v70h185v-163q27 24 62 37.5t74 13.5zM381 47q28 0 52.5 10.5t43 29t29 43.5t10.5 53t-10.5 52.5t-29 43t-43 29
t-52.5 10.5t-53 -10.5t-43.5 -29t-29 -43t-10.5 -52.5t10.5 -53t29 -43.5t43.5 -29t53 -10.5z" />
    <glyph glyph-name="afii10075" unicode="&#x439;" horiz-adv-x="518" 
d="M381 500h77v-500h-70v383l-251 -383h-77v500h70v-382l251 382v0zM259 570q-27 0 -50.5 10t-41 28t-28 41.5t-10.5 50.5h70q0 -25 17.5 -42.5t42.5 -17.5q26 0 43 17.5t17 42.5h70q0 -27 -10 -50.5t-28 -41.5t-41.5 -28t-50.5 -10z" />
    <glyph glyph-name="afii10076" unicode="&#x43a;" horiz-adv-x="470" 
d="M130 343l107 137q3 5 9.5 13t15.5 15.5t20 12t24 3.5q27 -3 38 -29q7 -14 4.5 -31t-11.5 -30q-14 -17 -34.5 -24t-39.5 -10l-80 -103l227 -297h-88l-184 240l-8 -9v-231h-70v500h70v-157z" />
    <glyph glyph-name="afii10077" unicode="&#x43b;" horiz-adv-x="656" 
d="M60 70h70v430h466v-500h-70v430h-326v-430h-140v70z" />
    <glyph glyph-name="afii10078" unicode="&#x43c;" horiz-adv-x="557" 
d="M424 500h73v-500h-67v389l-151 -229l-152 229v-389h-67v500h74l145 -218l145 218v0z" />
    <glyph glyph-name="afii10079" unicode="&#x43d;" horiz-adv-x="490" 
d="M60 500h70v-244h230v244h70v-500h-70v186h-230v-186h-70v500z" />
    <glyph glyph-name="afii10080" unicode="&#x43e;" horiz-adv-x="667" 
d="M333 -23q-55 0 -104.5 21t-88.5 59q-38 39 -59 89t-21 104q0 55 21 105t59 89q39 38 88.5 59t104.5 21t105 -21t89 -59q38 -39 59 -89t21 -105q0 -54 -21 -104t-59 -89q-39 -38 -89 -59t-105 -21zM333 454q-42 0 -79 -16t-64.5 -43.5t-43.5 -65t-16 -79.5t16 -79
t43.5 -64.5t64.5 -43.5t79 -16t79 16t65 43.5t44 64.5t16 79t-16 79.5t-44 65t-65 43.5t-79 16z" />
    <glyph glyph-name="afii10081" unicode="&#x43f;" horiz-adv-x="586" 
d="M60 0v500h466v-500h-70v430h-326v-430h-70z" />
    <glyph glyph-name="afii10082" unicode="&#x440;" horiz-adv-x="666" 
d="M140 444q38 38 88 59t105 21t105 -21t88 -59q39 -39 59.5 -89t20.5 -105q0 -54 -20.5 -104t-59.5 -89q-38 -38 -88 -59t-105 -21t-105 21t-88 59q-7 7 -10 11v-282h-70v464q0 55 20.5 105t59.5 89zM333 47q42 0 79 16t64.5 43.5t43.5 64.5t16 79t-16 79.5t-43.5 65
t-64.5 43.5t-79 16t-79 -16t-64.5 -43.5t-43.5 -65t-16 -79.5t16 -79t43.5 -64.5t64.5 -43.5t79 -16z" />
    <glyph glyph-name="afii10083" unicode="&#x441;" horiz-adv-x="648" 
d="M588 151q-21 -53 -62 -94q-38 -38 -88 -59t-105 -21t-105 21t-88 59q-39 39 -59.5 89t-20.5 104q0 55 20.5 105t59.5 89q38 38 88 59t105 21t105 -21t88 -59q41 -41 62 -94h-78q-26 47 -73 75.5t-104 28.5q-42 0 -79 -16t-64.5 -43.5t-43.5 -65t-16 -79.5t16 -79
t43.5 -64.5t64.5 -43.5t79 -16q57 0 104 28.5t73 75.5h78z" />
    <glyph glyph-name="afii10084" unicode="&#x442;" horiz-adv-x="586" 
d="M60 430v70h466v-70h-198v-430h-70v430h-198z" />
    <glyph glyph-name="afii10085" unicode="&#x443;" horiz-adv-x="570" 
d="M440 38q-32 -29 -71.5 -45t-83.5 -16q-45 0 -86 16.5t-73 48.5t-49 73t-17 86v299h70v-299q0 -32 12.5 -60t33.5 -49t49 -33t60 -12q31 0 58.5 11.5t48.5 31.5t33.5 46.5t14.5 57.5v306h70v-512q0 -50 -14 -90.5t-40 -70t-63.5 -45.5t-84.5 -16v70q35 0 60 12.5t41 33.5
t23.5 48.5t7.5 57.5v50z" />
    <glyph glyph-name="afii10087" unicode="&#x445;" horiz-adv-x="466" 
d="M140 0h-80l132 250l-132 250h81l92 -173l92 173h81l-133 -250l133 -250h-80l-93 174z" />
    <glyph glyph-name="afii10088" unicode="&#x446;" horiz-adv-x="626" 
d="M496 0h-436v499h70v-429h326v429h70v-429h40v-244h-70v174z" />
    <glyph glyph-name="afii10089" unicode="&#x447;" horiz-adv-x="569" 
d="M126 162q-32 32 -49 73t-17 86v179h70v-179q0 -32 12.5 -60t33.5 -49t49 -33t60 -12t60 12t49 33t33 49t12 60v179h70v-500h-70v158q-31 -30 -70.5 -45.5t-83.5 -15.5q-45 0 -86 16.5t-73 48.5z" />
    <glyph glyph-name="afii10093" unicode="&#x44b;" horiz-adv-x="649" 
d="M266 388q42 0 79.5 -16t65.5 -44t44 -65.5t16 -79.5q0 -43 -16 -80.5t-44 -65.5t-65.5 -44t-79.5 -16q-43 0 -80.5 16t-65.5 44t-44 65.5t-16 80.5v317h70v-163q27 24 62 37.5t74 13.5zM266 47q28 0 52.5 10.5t43 29t29 43.5t10.5 53t-10.5 52.5t-29 43t-43 29
t-52.5 10.5t-53 -10.5t-43.5 -29t-29 -43t-10.5 -52.5t10.5 -53t29 -43.5t43.5 -29t53 -10.5zM519 499h70v-499h-70v499z" />
    <glyph glyph-name="afii10094" unicode="&#x44c;" horiz-adv-x="531" 
d="M266 388q42 0 79.5 -16t65.5 -44t44 -65.5t16 -79.5q0 -43 -16 -80.5t-44 -65.5t-65.5 -44t-79.5 -16q-43 0 -80.5 16t-65.5 44t-44 65.5t-16 80.5v317h70v-163q27 24 62 37.5t74 13.5zM266 47q28 0 52.5 10.5t43 29t29 43.5t10.5 53t-10.5 52.5t-29 43t-43 29
t-52.5 10.5t-53 -10.5t-43.5 -29t-29 -43t-10.5 -52.5t10.5 -53t29 -43.5t43.5 -29t53 -10.5z" />
    <glyph glyph-name="afii10095" unicode="&#x44d;" horiz-adv-x="651" 
d="M316 47q42 0 79.5 15.5t65.5 43t44 64.5t16 79v10.5t-1 10.5h-293v70h273q-28 53 -77 83.5t-107 30.5q-47 0 -89 -20h-115q38 42 90.5 66t113.5 24q57 0 107 -21.5t87.5 -59t59 -87.5t21.5 -107t-21.5 -106.5t-59 -86.5t-87.5 -58t-107 -21q-86 0 -154 47.5t-102 128.5
h77q27 -50 75.5 -78t103.5 -28z" />
    <glyph glyph-name="afii10096" unicode="&#x44e;" horiz-adv-x="581" 
d="M371 55q-32 0 -63 17q-27 17 -47 44q-30 41 -38 99h-93v-215h-70v500h70v-215h93q7 55 38 98q20 29 47 44q30 18 63 18t62 -18q27 -15 47 -44q20 -27 30.5 -61t10.5 -72t-10.5 -72.5t-30.5 -61.5t-47 -44q-29 -17 -62 -17zM371 375q-20 0 -33.5 -12t-19.5 -21
q-14 -18 -20.5 -42t-6.5 -50t6.5 -50.5t20.5 -42.5q6 -9 19.5 -20.5t33.5 -11.5t33 11.5t20 20.5q27 38 27 93q0 54 -27 92q-7 9 -20 21t-33 12z" />
    <glyph glyph-name="afii10098" unicode="&#x491;" horiz-adv-x="459" 
d="M130 0h-70v441h270v59h69v-129h-269v-371z" />
    <glyph glyph-name="afii10097" unicode="&#x44f;" horiz-adv-x="468" 
d="M341 178h-122q-40 0 -66 -23t-26 -61v-94h-67v94q3 38 16 69.5t39 48.5q-32 21 -43.5 56.5t-11.5 70.5q0 78 46 119.5t119 41.5h183v-500h-67v178zM225 433q-47 -1 -72.5 -25t-25.5 -69q0 -48 28 -71t70 -23h116v188h-116z" />
    <glyph glyph-name="afii10099" unicode="&#x452;" horiz-adv-x="705" 
d="M579 461q32 -32 49 -73t17 -86v-313q0 -50 -14 -90.5t-40 -70t-63.5 -45.5t-84.5 -16v70q35 0 60 12.5t41 33.5t23.5 48.5t7.5 57.5v313q0 32 -12.5 60t-33.5 49t-49 33t-60 12t-60 -12t-49 -33t-33 -49t-12 -60v-302h-70v579h-136v70h137v51h69v-51h136v-70h-136v-114
q31 30 70.5 45.5t83.5 15.5q45 0 86 -16.5t73 -48.5z" />
    <glyph glyph-name="estimated" unicode="&#x212e;" horiz-adv-x="866" 
d="M202 339q-6 0 -6 -5v-203q0 -7 2.5 -12.5t6.5 -10.5q45 -51 102.5 -80.5t125.5 -29.5q73 0 134.5 33t106.5 90h54q-51 -66 -128 -105t-168 -39q-78 0 -145.5 29t-118 79.5t-79.5 118.5t-29 145q0 78 29 146t79.5 118.5t118 80t145.5 29.5t146 -29.5t118.5 -80t80 -118.5
t29.5 -146v-10h-604zM670 570q0 14 -10 24q-45 50 -102 78t-125 28q-67 0 -124.5 -29t-102.5 -80q-10 -10 -10 -26v-199q0 -7 6 -7h463q5 0 5 7v204z" />
    <glyph glyph-name="afii10024" unicode="&#x416;" horiz-adv-x="984" 
d="M572 326l-45 -55v-271h-70v271l-45 55l-262 -326h-90l307 382l-260 318h90l260 -318v318h70v-318l260 318h90l-260 -318l307 -382h-90z" />
    <glyph glyph-name="afii10086" unicode="&#x444;" horiz-adv-x="1142" 
d="M536 432v268h70v-268l10 11q38 38 88 59t105 21t105 -21t88 -59q39 -39 59.5 -89t20.5 -105q0 -54 -20.5 -104t-59.5 -89q-38 -38 -88 -59t-105 -21t-105 21t-88 59l-10 11v-282h-70v282l-10 -11q-38 -38 -88 -59t-105 -21t-105 21t-88 59q-39 39 -59.5 89t-20.5 104
q0 55 20.5 105t59.5 89q38 38 88 59t105 21t105 -21t88 -59zM333 46q41 0 77 15t63.5 41.5t44 61.5t18.5 76v9q0 42 -16 79.5t-43.5 65t-64.5 43.5t-79 16t-79 -16t-64.5 -43.5t-43.5 -65t-16 -79.5t16 -79t43.5 -64.5t64.5 -43.5t79 -16zM809 46q42 0 79 16t64.5 43.5
t43.5 64.5t16 79t-16 79.5t-43.5 65t-64.5 43.5t-79 16q-41 0 -77 -15.5t-63.5 -42t-44.5 -62t-18 -76.5v-8q0 -42 16 -79t43.5 -64.5t64.5 -43.5t79 -16z" />
    <glyph glyph-name="afii10100" unicode="&#x453;" horiz-adv-x="380" 
d="M130 430v-430h-70v500h260v-70h-190zM223 592h-74l63 200h74z" />
    <glyph glyph-name="afii10101" unicode="&#x454;" horiz-adv-x="651" 
d="M335 47q55 0 103.5 28t75.5 78h77q-34 -81 -102 -128.5t-154 -47.5q-57 0 -107 21t-87.5 58t-59 86.5t-21.5 106.5t21.5 107t59 87.5t87.5 59t107 21.5q61 0 113.5 -24t90.5 -66h-115q-42 20 -89 20q-58 0 -107 -30.5t-77 -83.5h273v-70h-293q-1 -5 -1 -10.5v-10.5
q0 -42 16 -79t44 -64.5t65.5 -43t79.5 -15.5z" />
    <glyph glyph-name="afii10102" unicode="&#x455;" horiz-adv-x="477" 
d="M246 -23q-10 0 -24 1t-30 5t-33 10.5t-33 17.5q-11 8 -23 20t-21.5 28.5t-15.5 38t-6 49.5h70q0 -53 36 -78q31 -22 80 -22q18 0 36.5 4.5t32.5 14t23 24t9 34.5q0 22 -12 38t-31 28t-43 21t-48 16.5t-45 15t-35 17.5q-58 40 -58 110q0 36 14 64.5t37 49t53 31.5t63 11
q39 0 68.5 -12t49.5 -31.5t30 -44t10 -49.5h-70q-1 18 -9 30.5t-20.5 20.5t-28 12t-30.5 4q-45 0 -71 -23.5t-26 -62.5q0 -35 26 -51.5t83 -33.5l57.5 -20t52.5 -30q53 -42 53 -111q0 -36 -15 -63t-39 -46t-55 -28.5t-62 -9.5z" />
    <glyph glyph-name="i" unicode="i" 
d="M60 500h70v-500h-70v500zM53 695q0 18 12 30.5t30 12.5t30.5 -12.5t12.5 -30.5t-12.5 -30t-30.5 -12t-30 12t-12 30z" />
    <glyph glyph-name="afii10104" unicode="&#x457;" 
d="M60 500h70v-500h-70v500zM-27 648q0 18 12 30.5t30 12.5t30.5 -12.5t12.5 -30.5t-12.5 -30t-30.5 -12t-30 12t-12 30zM133 648q0 18 12 30.5t30 12.5t30.5 -12.5t12.5 -30.5t-12.5 -30t-30.5 -12t-30 12t-12 30z" />
    <glyph glyph-name="afii10106" unicode="&#x459;" horiz-adv-x="827" 
d="M192 500h234v-163q27 24 62 37.5t74 13.5q42 0 79.5 -16t65.5 -44t44 -65.5t16 -79.5q0 -43 -16 -80.5t-44 -65.5t-65.5 -44t-79.5 -16q-43 0 -80.5 16t-65.5 44t-44 65.5t-16 80.5v247h-94v-208q0 -50 -14 -90.5t-40 -70t-63.5 -45.5t-84.5 -16v70q35 0 60 12.5t41 33.5
t23.5 48.5t7.5 57.5v278zM562 47q28 0 52.5 10.5t43 29t29 43.5t10.5 53t-10.5 52.5t-29 43t-43 29t-52.5 10.5t-53 -10.5t-43.5 -29t-29 -43t-10.5 -52.5t10.5 -53t29 -43.5t43.5 -29t53 -10.5z" />
    <glyph glyph-name="afii10107" unicode="&#x45a;" horiz-adv-x="695" 
d="M430 388q42 0 79.5 -16t65.5 -44t44 -65.5t16 -79.5q0 -43 -16 -80.5t-44 -65.5t-65.5 -44t-79.5 -16q-43 0 -80.5 16t-65.5 44t-44 65.5t-16 80.5v135h-94v-318h-70v500h70v-112h94v112h70v-163q27 24 62 37.5t74 13.5zM430 47q28 0 52.5 10.5t43 29t29 43.5t10.5 53
t-10.5 52.5t-29 43t-43 29t-52.5 10.5t-53 -10.5t-43.5 -29t-29 -43t-10.5 -52.5t10.5 -53t29 -43.5t43.5 -29t53 -10.5z" />
    <glyph glyph-name="afii10108" unicode="&#x45b;" horiz-adv-x="655" 
d="M529 461q32 -32 49 -73t17 -86v-302h-70v302q0 32 -12.5 60t-33.5 49t-49 33t-60 12t-60 -12t-49 -33t-33 -49t-12 -60v-302h-70v579h-86v70h87v51h69v-51h86v-70h-86v-114q31 30 70.5 45.5t83.5 15.5q45 0 86 -16.5t73 -48.5z" />
    <glyph glyph-name="afii10109" unicode="&#x45c;" horiz-adv-x="470" 
d="M130 343l107 137q3 5 9.5 13t15.5 15.5t20 12t24 3.5q27 -3 38 -29q7 -14 4.5 -31t-11.5 -30q-14 -17 -34.5 -24t-39.5 -10l-80 -103l227 -297h-88l-184 240l-8 -9v-231h-70v500h70v-157zM230 592h-74l63 200h74z" />
    <glyph glyph-name="afii10110" unicode="&#x45e;" horiz-adv-x="570" 
d="M440 38q-32 -29 -71.5 -45t-83.5 -16q-45 0 -86 16.5t-73 48.5t-49 73t-17 86v299h70v-299q0 -32 12.5 -60t33.5 -49t49 -33t60 -12q31 0 58.5 11.5t48.5 31.5t33.5 46.5t14.5 57.5v306h70v-512q0 -50 -14 -90.5t-40 -70t-63.5 -45.5t-84.5 -16v70q35 0 60 12.5t41 33.5
t23.5 48.5t7.5 57.5v50zM285 570q-27 0 -50.5 10t-41 28t-28 41.5t-10.5 50.5h70q0 -25 17.5 -42.5t42.5 -17.5q26 0 43 17.5t17 42.5h70q0 -27 -10 -50.5t-28 -41.5t-41.5 -28t-50.5 -10z" />
    <glyph glyph-name="afii10145" unicode="&#x40f;" horiz-adv-x="468" 
d="M200 0h-140v500h70v-430h208v430h70v-500h-139v-180h-69v180z" />
    <glyph glyph-name="afii10146" unicode="&#x462;" horiz-adv-x="747" 
d="M221 57q-39 39 -59.5 89t-20.5 105v379h-81v70h282v-70h-131v-197l10 11q38 38 88 59t105 21t105 -21t88 -59q39 -39 59.5 -89t20.5 -104q0 -55 -20.5 -105t-59.5 -89q-38 -38 -88 -59t-105 -21t-105 21t-88 59zM414 454q-42 0 -79 -16t-64.5 -43.5t-43.5 -64.5t-16 -79
t16 -79.5t43.5 -65t64.5 -43.5t79 -16t79 16t64.5 43.5t43.5 65t16 79.5t-16 79t-43.5 64.5t-64.5 43.5t-79 16z" />
    <glyph glyph-name="afii10147" unicode="&#x472;" horiz-adv-x="868" 
d="M60 350q0 76 29.5 144.5t80.5 119.5t119 80.5t145 28.5q77 1 145 -28.5t119 -80.5t80.5 -119.5t29.5 -144.5q0 -77 -29.5 -145t-80.5 -118.5t-119 -80t-145 -29.5q-77 -1 -145 28.5t-119 80.5t-80.5 119t-29.5 145zM130 350q0 -62 24 -117.5t65.5 -97t97 -65.5t117.5 -24
q63 0 117 23.5t96 65.5q38 38 61 88l-572 188q-6 -30 -6 -61zM737 350q0 62 -24 117t-65.5 96.5t-96.5 65.5t-117 24q-63 0 -118 -24t-97 -66q-38 -38 -60 -86l572 -188q6 28 6 61z" />
    <glyph glyph-name="afii10148" unicode="&#x474;" horiz-adv-x="633" 
d="M296 186q6 53 26.5 118.5t48.5 134.5t60 136.5t62 124.5h80q-89 -164 -135.5 -293.5t-66.5 -219.5t-22 -138t-2 -49h-66l-221 700h73l163 -514v0z" />
    <glyph glyph-name="afii10196" unicode="&#x475;" horiz-adv-x="472" 
d="M233 186q8 65 36 147t65 167h78q-51 -118 -77.5 -210.5t-37.5 -156.5t-12 -98t-1 -35h-66l-158 500h73l100 -314v0z" />
    <glyph glyph-name="afii10846" unicode="&#x4d9;" horiz-adv-x="670" 
d="M505 257q4 0 4 3v150q0 5 -2 9l-4 8q-33 38 -75.5 59.5t-92.5 21.5q-54 0 -99.5 -24.5t-78.5 -66.5h-40q38 48 94.5 77.5t123.5 29.5q57 0 107.5 -21.5t87.5 -59t58.5 -87.5t21.5 -107t-21.5 -106.5t-58.5 -86.5t-87.5 -58t-107.5 -21t-107 21t-87.5 58t-59 86.5
t-21.5 106.5v8h445zM160 86q0 -10 7 -18q33 -36 75 -55.5t93 -19.5q49 0 91.5 20.5t75.5 57.5q7 7 7 19v147q0 5 -4 5h-341q-4 0 -4 -5v-151z" />
    <glyph glyph-name="afii10193" unicode="&#x45f;" horiz-adv-x="468" 
d="M200 0h-140v500h70v-430h208v430h70v-500h-139v-82h-69v82z" />
    <glyph glyph-name="afii10072" unicode="&#x436;" horiz-adv-x="742" 
d="M149 0h-89l221 292l-157 208h88l124 -164v164h70v-164l124 164h88l-157 -208l221 -292h-89l-176 234l-11 -15v-219h-70v219l-11 15z" />
    <glyph glyph-name="afii10194" unicode="&#x463;" horiz-adv-x="618" 
d="M60 611h87v89h70v-89h85v-70h-85v-204q27 24 62 37.5t74 13.5q42 0 79.5 -16t65.5 -44t44 -65.5t16 -79.5q0 -43 -16 -80.5t-44 -65.5t-65.5 -44t-79.5 -16q-43 0 -80.5 16t-65.5 44t-44 65.5t-16 80.5v358h-87v70zM353 47q28 0 52.5 10.5t43 29t29 43.5t10.5 53
t-10.5 52.5t-29 43t-43 29t-52.5 10.5t-53 -10.5t-43.5 -29t-29 -43t-10.5 -52.5t10.5 -53t29 -43.5t43.5 -29t53 -10.5z" />
    <glyph glyph-name="afii10195" unicode="&#x473;" horiz-adv-x="669" 
d="M334 -23q-55 0 -105 21t-89 59q-38 39 -59 89t-21 105q0 56 21 106t59 88q39 39 89 59t105 20q56 0 106 -20t88 -59q39 -38 60 -88t21 -106q0 -55 -21 -105t-60 -89q-38 -38 -88 -59t-106 -21zM334 456q-59 0 -106.5 -30t-73.5 -79l383 -126q1 8 1.5 15t0.5 15
q0 42 -16 79.5t-44 65.5t-65.5 44t-79.5 16zM130 251q0 -42 16 -79t44 -65t65 -44t79 -16q58 0 105.5 29t73.5 77l-381 126q-2 -7 -2 -14v-14z" />
    <glyph glyph-name="kgreenlandic" unicode="&#x138;" horiz-adv-x="470" 
d="M130 343l107 137q3 5 9.5 13t15.5 15.5t20 12t24 3.5q27 -3 38 -29q7 -14 4.5 -31t-11.5 -30q-14 -17 -34.5 -24t-39.5 -10l-90 -103l237 -297h-88l-184 240l-8 -9v-231h-70v700h70v-357z" />
    <glyph glyph-name="uni04DC" unicode="&#x4dc;" horiz-adv-x="984" 
d="M572 326l-45 -55v-271h-70v271l-45 55l-262 -326h-90l307 382l-260 318h90l260 -318v318h70v-318l260 318h90l-260 -318l307 -382h-90zM370 848q0 18 12 30.5t30 12.5t30.5 -12.5t12.5 -30.5t-12.5 -30t-30.5 -12t-30 12t-12 30zM530 848q0 18 12 30.5t30 12.5
t30.5 -12.5t12.5 -30.5t-12.5 -30t-30.5 -12t-30 12t-12 30z" />
    <glyph glyph-name="uni04DD" unicode="&#x4dd;" horiz-adv-x="742" 
d="M149 0h-89l221 292l-157 208h88l124 -164v164h70v-164l124 164h88l-157 -208l221 -292h-89l-176 234l-11 -15v-219h-70v219l-11 15zM249 648q0 18 12 30.5t30 12.5t30.5 -12.5t12.5 -30.5t-12.5 -30t-30.5 -12t-30 12t-12 30zM409 648q0 18 12 30.5t30 12.5t30.5 -12.5
t12.5 -30.5t-12.5 -30t-30.5 -12t-30 12t-12 30z" />
    <glyph glyph-name="uni04DB" unicode="&#x4db;" horiz-adv-x="670" 
d="M505 257q4 0 4 3v150q0 5 -2 9l-4 8q-33 38 -75.5 59.5t-92.5 21.5q-54 0 -99.5 -24.5t-78.5 -66.5h-40q38 48 94.5 77.5t123.5 29.5q57 0 107.5 -21.5t87.5 -59t58.5 -87.5t21.5 -107t-21.5 -106.5t-58.5 -86.5t-87.5 -58t-107.5 -21t-107 21t-87.5 58t-59 86.5
t-21.5 106.5v8h445zM160 86q0 -10 7 -18q33 -36 75 -55.5t93 -19.5q49 0 91.5 20.5t75.5 57.5q7 7 7 19v147q0 5 -4 5h-341q-4 0 -4 -5v-151zM213 648q0 18 12 30.5t30 12.5t30.5 -12.5t12.5 -30.5t-12.5 -30t-30.5 -12t-30 12t-12 30zM373 648q0 18 12 30.5t30 12.5
t30.5 -12.5t12.5 -30.5t-12.5 -30t-30.5 -12t-30 12t-12 30z" />
    <glyph glyph-name="uni04DE" unicode="&#x4de;" horiz-adv-x="670" 
d="M543 700v-1l1 1v-70l-139 -114q10 -2 19 -5.5t18 -7.5q37 -16 68 -41.5t53 -58t34.5 -71.5t12.5 -82q0 -57 -21.5 -107t-59 -87.5t-87.5 -59t-107 -21.5q-43 0 -82 12.5t-72 34.5t-58.5 53t-41.5 68q-21 49 -21 106h70q0 -43 16 -79q24 -55 74.5 -90t114.5 -35
q42 0 79.5 16t65.5 44t44 65.5t16 79.5q0 29 -9.5 59.5t-28 57t-47 46.5t-66.5 29q-54 9 -100 2v75l151 111h-340v70h443zM200 848q0 18 12 30.5t30 12.5t30.5 -12.5t12.5 -30.5t-12.5 -30t-30.5 -12t-30 12t-12 30zM360 848q0 18 12 30.5t30 12.5t30.5 -12.5t12.5 -30.5
t-12.5 -30t-30.5 -12t-30 12t-12 30z" />
    <glyph glyph-name="f_f_i" horiz-adv-x="804" 
d="M488 318h256v-318h-70v248h-186v-248h-70v248h-237v-248h-70v248h-51v70h51v183q0 49 14 90t40 70.5t63.5 45.5t84.5 16v-70q-35 0 -60 -12.5t-41 -33.5t-23.5 -48.5t-7.5 -57.5v-183h237v183q0 49 14 90t40 70.5t63.5 45.5t84.5 16v-70q-35 0 -60 -12.5t-41 -33.5
t-23.5 -48.5t-7.5 -57.5v-183z" />
    <glyph glyph-name="f_f_l" horiz-adv-x="804" 
d="M620 248h-132v-248h-70v248h-237v-248h-70v248h-51v70h51v183q0 49 14 90t40 70.5t63.5 45.5t84.5 16v-70q-35 0 -60 -12.5t-41 -33.5t-23.5 -48.5t-7.5 -57.5v-183h237v183q0 49 14 90t40 70.5t63.5 45.5t84.5 16v-70q-35 0 -60 -12.5t-41 -33.5t-23.5 -48.5t-7.5 -57.5
v-183h132v-70zM674 700h70v-700h-70v700z" />
    <glyph glyph-name="space" unicode=" " horiz-adv-x="373" 
 />
    <glyph glyph-name="space" unicode="&#xa0;" horiz-adv-x="373" 
 />
    <glyph glyph-name="Aacute" unicode="&#xc1;" horiz-adv-x="644" 
d="M285 700h74l225 -700h-74l-88 273h-200l-88 -273h-74zM244 343h156l-78 243zM359 792h-74l63 200h74z" />
    <glyph glyph-name="Abreve" unicode="&#x102;" horiz-adv-x="644" 
d="M285 700h74l225 -700h-74l-88 273h-200l-88 -273h-74zM244 343h156l-78 243zM322 793q-27 0 -50.5 10t-41 28t-28 41.5t-10.5 50.5h70q0 -25 17.5 -42.5t42.5 -17.5q26 0 43 17.5t17 42.5h70q0 -27 -10 -50.5t-28 -41.5t-41.5 -28t-50.5 -10z" />
    <glyph glyph-name="Acircumflex" unicode="&#xc2;" horiz-adv-x="644" 
d="M285 700h74l225 -700h-74l-88 273h-200l-88 -273h-74zM244 343h156l-78 243zM366 922l92 -130h-76l-60 84l-61 -84h-75l91 130h89z" />
    <glyph glyph-name="Agrave" unicode="&#xc0;" horiz-adv-x="644" 
d="M285 700h74l225 -700h-74l-88 273h-200l-88 -273h-74zM244 343h156l-78 243zM222 992h74l63 -200h-74z" />
    <glyph glyph-name="Adieresis" unicode="&#xc4;" horiz-adv-x="644" 
d="M285 700h74l225 -700h-74l-88 273h-200l-88 -273h-74zM244 343h156l-78 243zM200 888q0 18 12 30.5t30 12.5t30.5 -12.5t12.5 -30.5t-12.5 -30t-30.5 -12t-30 12t-12 30zM360 888q0 18 12 30.5t30 12.5t30.5 -12.5t12.5 -30.5t-12.5 -30t-30.5 -12t-30 12t-12 30z" />
    <glyph glyph-name="Amacron" unicode="&#x100;" horiz-adv-x="644" 
d="M172 862h300v-70h-300v70zM285 700h74l225 -700h-74l-88 273h-200l-88 -273h-74zM244 343h156l-78 243z" />
    <glyph glyph-name="Aogonek" unicode="&#x104;" horiz-adv-x="644" 
d="M359 700l225 -700h-74l-88 273h-200l-88 -273h-74l225 700h74zM584 -264h-70q-21 0 -40.5 8t-33.5 22t-22.5 33t-8.5 41t8.5 41t22.5 33t33.5 22.5t40.5 8.5l-4 55h74v-125h-70q-14 0 -24 -10.5t-10 -24.5t10 -24t24 -10h70v-70zM400 343l-78 243l-78 -243h156z" />
    <glyph glyph-name="Aring" unicode="&#xc5;" horiz-adv-x="644" 
d="M285 700h74l225 -700h-74l-88 273h-200l-88 -273h-74zM244 343h156l-78 243zM322 689q-26 0 -48 9.5t-39 26.5t-26.5 39t-9.5 48q0 25 9.5 47.5t26.5 39.5t39 26.5t48 9.5q25 0 47.5 -9.5t39.5 -26.5t26.5 -39.5t9.5 -47.5q0 -26 -9.5 -48t-26.5 -39t-39.5 -26.5
t-47.5 -9.5zM322 865q-22 0 -37.5 -15.5t-15.5 -37.5t15.5 -37.5t37.5 -15.5q23 0 38 15.5t15 37.5t-15 37.5t-38 15.5z" />
    <glyph glyph-name="Atilde" unicode="&#xc3;" horiz-adv-x="644" 
d="M285 700h74l225 -700h-74l-88 273h-200l-88 -273h-74zM244 343h156l-78 243zM453 848q-24 -42 -65.5 -53t-83.5 13q-15 10 -28 5t-22 -21l-62 37q24 42 65.5 53t83.5 -12q15 -9 28 -4.5t22 19.5z" />
    <glyph glyph-name="AEacute" unicode="&#x1fc;" horiz-adv-x="847" 
d="M391 630v-287h326v-70h-326v-203h396v-70h-466v273h-99l-88 -273h-74l225 700h502v-70h-396zM321 343v240l-77 -240h77zM456 792h-74l63 200h74z" />
    <glyph glyph-name="Cacute" unicode="&#x106;" horiz-adv-x="822" 
d="M762 174q-26 -49 -65 -88q-52 -52 -119 -80q-70 -29 -145 -29t-145 29q-68 28 -119 80q-52 51 -80 119q-29 70 -29 145t29 145q28 67 80 119q51 51 119 80q70 29 145 29t145 -29q67 -29 119 -80q39 -39 65 -88h-82q-8 11 -16 20t-17 18q-43 44 -98 66.5t-116 22.5
t-116 -22.5t-98 -66.5q-44 -43 -66.5 -98t-22.5 -116t22.5 -116t66.5 -98q43 -44 98 -66.5t116 -22.5t116 22.5t98 66.5q9 9 17 18t16 20h82zM448 792h-74l63 200h74z" />
    <glyph glyph-name="Ccaron" unicode="&#x10c;" horiz-adv-x="822" 
d="M762 174q-26 -49 -65 -88q-52 -52 -119 -80q-70 -29 -145 -29t-145 29q-68 28 -119 80q-52 51 -80 119q-29 70 -29 145t29 145q28 67 80 119q51 51 119 80q70 29 145 29t145 -29q67 -29 119 -80q39 -39 65 -88h-82q-8 11 -16 20t-17 18q-43 44 -98 66.5t-116 22.5
t-116 -22.5t-98 -66.5q-44 -43 -66.5 -98t-22.5 -116t22.5 -116t66.5 -98q43 -44 98 -66.5t116 -22.5t116 22.5t98 66.5q9 9 17 18t16 20h82zM285 992h77l48 -112l49 112h77l-87 -200h-77z" />
    <glyph glyph-name="Ccedilla" unicode="&#xc7;" horiz-adv-x="822" 
d="M762 174q-26 -49 -65 -88q-52 -52 -119 -80q-70 -29 -145 -29t-145 29q-68 28 -119 80q-52 51 -80 119q-29 70 -29 145t29 145q28 67 80 119q51 51 119 80q70 29 145 29t145 -29q67 -29 119 -80q39 -39 65 -88h-82q-8 11 -16 20t-17 18q-43 44 -98 66.5t-116 22.5
t-116 -22.5t-98 -66.5q-44 -43 -66.5 -98t-22.5 -116t22.5 -116t66.5 -98q43 -44 98 -66.5t116 -22.5t116 22.5t98 66.5q9 9 17 18t16 20h82zM376 -194h70q14 0 24 10t10 24t-10 24.5t-24 10.5h-70v125h70v-55q21 0 40.5 -8.5t33.5 -22.5t22.5 -33t8.5 -41t-8.5 -41
t-22.5 -33t-33.5 -22t-40.5 -8h-70v70z" />
    <glyph glyph-name="Ccircumflex" unicode="&#x108;" horiz-adv-x="822" 
d="M762 174q-26 -49 -65 -88q-52 -52 -119 -80q-70 -29 -145 -29t-145 29q-68 28 -119 80q-52 51 -80 119q-29 70 -29 145t29 145q28 67 80 119q51 51 119 80q70 29 145 29t145 -29q67 -29 119 -80q39 -39 65 -88h-82q-8 11 -16 20t-17 18q-43 44 -98 66.5t-116 22.5
t-116 -22.5t-98 -66.5q-44 -43 -66.5 -98t-22.5 -116t22.5 -116t66.5 -98q43 -44 98 -66.5t116 -22.5t116 22.5t98 66.5q9 9 17 18t16 20h82zM455 922l92 -130h-76l-60 84l-61 -84h-75l91 130h89z" />
    <glyph glyph-name="Cdotaccent" unicode="&#x10a;" horiz-adv-x="822" 
d="M762 174q-26 -49 -65 -88q-52 -52 -119 -80q-70 -29 -145 -29t-145 29q-68 28 -119 80q-52 51 -80 119q-29 70 -29 145t29 145q28 67 80 119q51 51 119 80q70 29 145 29t145 -29q67 -29 119 -80q39 -39 65 -88h-82q-8 11 -16 20t-17 18q-43 44 -98 66.5t-116 22.5
t-116 -22.5t-98 -66.5q-44 -43 -66.5 -98t-22.5 -116t22.5 -116t66.5 -98q43 -44 98 -66.5t116 -22.5t116 22.5t98 66.5q9 9 17 18t16 20h82zM369 848q0 18 12 30.5t30 12.5t30.5 -12.5t12.5 -30.5t-12.5 -30t-30.5 -12t-30 12t-12 30z" />
    <glyph glyph-name="Dcaron" unicode="&#x10e;" horiz-adv-x="705" 
d="M60 0v700h235q73 0 136 -28q62 -25 112 -75q48 -48 75 -111q27 -65 27 -136q0 -72 -27 -136q-27 -63 -75 -111q-50 -50 -112 -75q-63 -28 -136 -28h-235zM295 70q57 0 107.5 21t90.5 61t61 90.5t21 107.5t-21 107.5t-61 90.5t-90.5 61t-107.5 21h-165v-560h165zM131 992
h77l48 -112l49 112h77l-87 -200h-77z" />
    <glyph glyph-name="Eacute" unicode="&#xc9;" horiz-adv-x="586" 
d="M526 630h-396v-287h326v-70h-326v-203h396v-70h-466v700h466v-70v0zM330 792h-74l63 200h74z" />
    <glyph glyph-name="Ebreve" unicode="&#x114;" horiz-adv-x="586" 
d="M526 630h-396v-287h326v-70h-326v-203h396v-70h-466v700h466v-70v0zM293 770q-27 0 -50.5 10t-41 28t-28 41.5t-10.5 50.5h70q0 -25 17.5 -42.5t42.5 -17.5q26 0 43 17.5t17 42.5h70q0 -27 -10 -50.5t-28 -41.5t-41.5 -28t-50.5 -10z" />
    <glyph glyph-name="Ecaron" unicode="&#x11a;" horiz-adv-x="586" 
d="M526 630h-396v-287h326v-70h-326v-203h396v-70h-466v700h466v-70v0zM168 992h77l48 -112l49 112h77l-87 -200h-77z" />
    <glyph glyph-name="Ecircumflex" unicode="&#xca;" horiz-adv-x="586" 
d="M526 630h-396v-287h326v-70h-326v-203h396v-70h-466v700h466v-70v0zM337 922l92 -130h-76l-60 84l-61 -84h-75l91 130h89z" />
    <glyph glyph-name="Edieresis" unicode="&#xcb;" horiz-adv-x="586" 
d="M526 630h-396v-287h326v-70h-326v-203h396v-70h-466v700h466v-70v0zM171 898q0 18 12 30.5t30 12.5t30.5 -12.5t12.5 -30.5t-12.5 -30t-30.5 -12t-30 12t-12 30zM331 898q0 18 12 30.5t30 12.5t30.5 -12.5t12.5 -30.5t-12.5 -30t-30.5 -12t-30 12t-12 30z" />
    <glyph glyph-name="Edotaccent" unicode="&#x116;" horiz-adv-x="586" 
d="M526 630h-396v-287h326v-70h-326v-203h396v-70h-466v700h466v-70v0zM251 899q0 18 12 30.5t30 12.5t30.5 -12.5t12.5 -30.5t-12.5 -30t-30.5 -12t-30 12t-12 30z" />
    <glyph glyph-name="Egrave" unicode="&#xc8;" horiz-adv-x="586" 
d="M526 630h-396v-287h326v-70h-326v-203h396v-70h-466v700h466v-70v0zM193 992h74l63 -200h-74z" />
    <glyph glyph-name="Emacron" unicode="&#x112;" horiz-adv-x="586" 
d="M143 862h300v-70h-300v70zM526 630h-396v-287h326v-70h-326v-203h396v-70h-466v700h466v-70z" />
    <glyph glyph-name="Eogonek" unicode="&#x118;" horiz-adv-x="586" 
d="M526 630h-396v-287h326v-70h-326v-203h396v-70h-466v700h466v-70v0zM328 -264h-70q-21 0 -40.5 8t-33.5 22t-22.5 33t-8.5 41t8.5 41t22.5 33t33.5 22.5t40.5 8.5v55h70v-125h-70q-14 0 -24 -10.5t-10 -24.5t10 -24t24 -10h70v-70z" />
    <glyph glyph-name="Gbreve" unicode="&#x11e;" horiz-adv-x="866" 
d="M806 343q0 -71 -29 -138q-14 -34 -34 -63.5t-46 -55.5q-51 -51 -118 -80q-70 -29 -146 -29q-75 0 -145 29q-67 29 -118 80q-53 51 -80 119q-30 69 -30 145t30 145q27 68 80 119q51 51 118 80q70 29 145 29q76 0 146 -29q67 -29 118 -80q38 -38 66 -88h-83q-7 11 -15 20
t-17 18q-43 44 -98.5 66.5t-116.5 22.5t-116 -22.5t-98 -66.5q-43 -43 -66 -98t-23 -116t23 -116t66 -98q43 -44 98 -66.5t116 -22.5t116.5 22.5t98.5 66.5q29 29 48.5 64t30.5 73h-294v70h373v0zM433 793q-27 0 -50.5 10t-41 28t-28 41.5t-10.5 50.5h70q0 -25 17.5 -42.5
t42.5 -17.5q26 0 43 17.5t17 42.5h70q0 -27 -10 -50.5t-28 -41.5t-41.5 -28t-50.5 -10z" />
    <glyph glyph-name="Gcircumflex" unicode="&#x11c;" horiz-adv-x="866" 
d="M806 343q0 -71 -29 -138q-14 -34 -34 -63.5t-46 -55.5q-51 -51 -118 -80q-70 -29 -146 -29q-75 0 -145 29q-67 29 -118 80q-53 51 -80 119q-30 69 -30 145t30 145q27 68 80 119q51 51 118 80q70 29 145 29q76 0 146 -29q67 -29 118 -80q38 -38 66 -88h-83q-7 11 -15 20
t-17 18q-43 44 -98.5 66.5t-116.5 22.5t-116 -22.5t-98 -66.5q-43 -43 -66 -98t-23 -116t23 -116t66 -98q43 -44 98 -66.5t116 -22.5t116.5 22.5t98.5 66.5q29 29 48.5 64t30.5 73h-294v70h373v0zM477 922l92 -130h-76l-60 84l-61 -84h-75l91 130h89z" />
    <glyph glyph-name="Gdotaccent" unicode="&#x120;" horiz-adv-x="866" 
d="M806 343q0 -71 -29 -138q-14 -34 -34 -63.5t-46 -55.5q-51 -51 -118 -80q-70 -29 -146 -29q-75 0 -145 29q-67 29 -118 80q-53 51 -80 119q-30 69 -30 145t30 145q27 68 80 119q51 51 118 80q70 29 145 29q76 0 146 -29q67 -29 118 -80q38 -38 66 -88h-83q-7 11 -15 20
t-17 18q-43 44 -98.5 66.5t-116.5 22.5t-116 -22.5t-98 -66.5q-43 -43 -66 -98t-23 -116t23 -116t66 -98q43 -44 98 -66.5t116 -22.5t116.5 22.5t98.5 66.5q29 29 48.5 64t30.5 73h-294v70h373v0zM391 898q0 18 12 30.5t30 12.5t30.5 -12.5t12.5 -30.5t-12.5 -30t-30.5 -12
t-30 12t-12 30z" />
    <glyph glyph-name="Hcircumflex" unicode="&#x124;" horiz-adv-x="586" 
d="M456 273h-326v-273h-70v700h70v-357h326v357h70v-700h-70v273zM337 922l92 -130h-76l-60 84l-61 -84h-75l91 130h89z" />
    <glyph glyph-name="Iacute" unicode="&#xcd;" 
d="M60 700h70v-700h-70v700zM133 792h-74l63 200h74z" />
    <glyph glyph-name="Ibreve" unicode="&#x12c;" 
d="M60 700h70v-700h-70v700zM96 792q-27 0 -50.5 10t-41 28t-28 41.5t-10.5 50.5h70q0 -25 17.5 -42.5t42.5 -17.5q26 0 43 17.5t17 42.5h70q0 -27 -10 -50.5t-28 -41.5t-41.5 -28t-50.5 -10z" />
    <glyph glyph-name="Icircumflex" unicode="&#xce;" 
d="M60 700h70v-700h-70v700zM140 922l92 -130h-76l-60 84l-61 -84h-75l91 130h89z" />
    <glyph glyph-name="Idieresis" unicode="&#xcf;" 
d="M60 700h70v-700h-70v700zM-26 898q0 18 12 30.5t30 12.5t30.5 -12.5t12.5 -30.5t-12.5 -30t-30.5 -12t-30 12t-12 30zM134 898q0 18 12 30.5t30 12.5t30.5 -12.5t12.5 -30.5t-12.5 -30t-30.5 -12t-30 12t-12 30z" />
    <glyph glyph-name="Idotaccent" unicode="&#x130;" 
d="M60 700h70v-700h-70v700zM54 898q0 18 12 30.5t30 12.5t30.5 -12.5t12.5 -30.5t-12.5 -30t-30.5 -12t-30 12t-12 30z" />
    <glyph glyph-name="Igrave" unicode="&#xcc;" 
d="M60 700h70v-700h-70v700zM-4 992h74l63 -200h-74z" />
    <glyph glyph-name="Imacron" unicode="&#x12a;" 
d="M-55 862h300v-70h-300v70zM60 700h70v-700h-70v700z" />
    <glyph glyph-name="Iogonek" unicode="&#x12e;" 
d="M60 700h70v-700h-70v700zM131 -264h-70q-21 0 -40.5 8t-33.5 22t-22.5 33t-8.5 41t8.5 41t22.5 33t33.5 22.5t40.5 8.5v55h70v-125h-70q-14 0 -24 -10.5t-10 -24.5t10 -24t24 -10h70v-70z" />
    <glyph glyph-name="Itilde" unicode="&#x128;" 
d="M60 700h70v-700h-70v700zM227 848q-24 -42 -65.5 -53t-83.5 13q-15 10 -28 5t-22 -21l-62 37q24 42 65.5 53t83.5 -12q15 -9 28 -4.5t22 19.5z" />
    <glyph glyph-name="Jcircumflex" unicode="&#x134;" horiz-adv-x="590" 
d="M295 -23q-48 0 -90.5 17.5t-75.5 51.5q-34 33 -51.5 75.5t-17.5 90.5h70q0 -34 13 -64t35.5 -52.5t52.5 -35.5t64 -13t64 13t52.5 35.5t35.5 52.5t13 64v418h-329v70h399v-488q0 -48 -18 -90.5t-51 -75.5q-33 -34 -75.5 -51.5t-90.5 -17.5zM374 922l92 -130h-76l-60 84
l-61 -84h-75l91 130h89z" />
    <glyph glyph-name="Lacute" unicode="&#x139;" horiz-adv-x="586" 
d="M60 700h70v-630h396v-70h-466v700zM133 792h-74l63 200h74z" />
    <glyph glyph-name="Nacute" unicode="&#x143;" horiz-adv-x="646" 
d="M516 700h70v-700h-70l-386 584v-584h-70v700h77l379 -572v572v0zM360 792h-74l63 200h74z" />
    <glyph glyph-name="Ncaron" unicode="&#x147;" horiz-adv-x="646" 
d="M516 700h70v-700h-70l-386 584v-584h-70v700h77l379 -572v572v0zM198 992h77l48 -112l49 112h77l-87 -200h-77z" />
    <glyph glyph-name="Ntilde" unicode="&#xd1;" horiz-adv-x="646" 
d="M516 700h70v-700h-70l-386 584v-584h-70v700h77l379 -572v572v0zM454 848q-24 -42 -65.5 -53t-83.5 13q-15 10 -28 5t-22 -21l-62 37q24 42 65.5 53t83.5 -12q15 -9 28 -4.5t22 19.5z" />
    <glyph glyph-name="Oacute" unicode="&#xd3;" horiz-adv-x="866" 
d="M433 -23q-75 0 -145 29q-68 28 -119 80q-52 51 -80 119q-29 70 -29 145t29 145q28 67 80 119q51 51 119 80q70 29 145 29t145 -29q67 -29 119 -80q51 -52 80 -119q29 -70 29 -145t-29 -145q-29 -68 -80 -119q-52 -52 -119 -80q-70 -29 -145 -29zM433 653
q-61 0 -116 -22.5t-98 -66.5q-44 -43 -66.5 -98t-22.5 -116t22.5 -116t66.5 -98q43 -44 98 -66.5t116 -22.5t116 22.5t98 66.5q44 43 66.5 98t22.5 116t-22.5 116t-66.5 98q-43 44 -98 66.5t-116 22.5zM468 792h-74l63 200h74z" />
    <glyph glyph-name="Obreve" unicode="&#x14e;" horiz-adv-x="866" 
d="M433 -23q-75 0 -145 29q-68 28 -119 80q-52 51 -80 119q-29 70 -29 145t29 145q28 67 80 119q51 51 119 80q70 29 145 29t145 -29q67 -29 119 -80q51 -52 80 -119q29 -70 29 -145t-29 -145q-29 -68 -80 -119q-52 -52 -119 -80q-70 -29 -145 -29zM433 653
q-61 0 -116 -22.5t-98 -66.5q-44 -43 -66.5 -98t-22.5 -116t22.5 -116t66.5 -98q43 -44 98 -66.5t116 -22.5t116 22.5t98 66.5q44 43 66.5 98t22.5 116t-22.5 116t-66.5 98q-43 44 -98 66.5t-116 22.5zM431 793q-27 0 -50.5 10t-41 28t-28 41.5t-10.5 50.5h70
q0 -25 17.5 -42.5t42.5 -17.5q26 0 43 17.5t17 42.5h70q0 -27 -10 -50.5t-28 -41.5t-41.5 -28t-50.5 -10z" />
    <glyph glyph-name="Ocircumflex" unicode="&#xd4;" horiz-adv-x="866" 
d="M433 -23q-75 0 -145 29q-68 28 -119 80q-52 51 -80 119q-29 70 -29 145t29 145q28 67 80 119q51 51 119 80q70 29 145 29t145 -29q67 -29 119 -80q51 -52 80 -119q29 -70 29 -145t-29 -145q-29 -68 -80 -119q-52 -52 -119 -80q-70 -29 -145 -29zM433 653
q-61 0 -116 -22.5t-98 -66.5q-44 -43 -66.5 -98t-22.5 -116t22.5 -116t66.5 -98q43 -44 98 -66.5t116 -22.5t116 22.5t98 66.5q44 43 66.5 98t22.5 116t-22.5 116t-66.5 98q-43 44 -98 66.5t-116 22.5zM475 922l92 -130h-76l-60 84l-61 -84h-75l91 130h89z" />
    <glyph glyph-name="Odieresis" unicode="&#xd6;" horiz-adv-x="866" 
d="M433 -23q-75 0 -145 29q-68 28 -119 80q-52 51 -80 119q-29 70 -29 145t29 145q28 67 80 119q51 51 119 80q70 29 145 29t145 -29q67 -29 119 -80q51 -52 80 -119q29 -70 29 -145t-29 -145q-29 -68 -80 -119q-52 -52 -119 -80q-70 -29 -145 -29zM433 653
q-61 0 -116 -22.5t-98 -66.5q-44 -43 -66.5 -98t-22.5 -116t22.5 -116t66.5 -98q43 -44 98 -66.5t116 -22.5t116 22.5t98 66.5q44 43 66.5 98t22.5 116t-22.5 116t-66.5 98q-43 44 -98 66.5t-116 22.5zM309 898q0 18 12 30.5t30 12.5t30.5 -12.5t12.5 -30.5t-12.5 -30
t-30.5 -12t-30 12t-12 30zM469 898q0 18 12 30.5t30 12.5t30.5 -12.5t12.5 -30.5t-12.5 -30t-30.5 -12t-30 12t-12 30z" />
    <glyph glyph-name="Ograve" unicode="&#xd2;" horiz-adv-x="866" 
d="M433 -23q-75 0 -145 29q-68 28 -119 80q-52 51 -80 119q-29 70 -29 145t29 145q28 67 80 119q51 51 119 80q70 29 145 29t145 -29q67 -29 119 -80q51 -52 80 -119q29 -70 29 -145t-29 -145q-29 -68 -80 -119q-52 -52 -119 -80q-70 -29 -145 -29zM433 653
q-61 0 -116 -22.5t-98 -66.5q-44 -43 -66.5 -98t-22.5 -116t22.5 -116t66.5 -98q43 -44 98 -66.5t116 -22.5t116 22.5t98 66.5q44 43 66.5 98t22.5 116t-22.5 116t-66.5 98q-43 44 -98 66.5t-116 22.5zM331 992h74l63 -200h-74z" />
    <glyph glyph-name="Ohungarumlaut" unicode="&#x150;" horiz-adv-x="866" 
d="M433 -23q-75 0 -145 29q-68 28 -119 80q-52 51 -80 119q-29 70 -29 145t29 145q28 67 80 119q51 51 119 80q70 29 145 29t145 -29q67 -29 119 -80q51 -52 80 -119q29 -70 29 -145t-29 -145q-29 -68 -80 -119q-52 -52 -119 -80q-70 -29 -145 -29zM433 653
q-61 0 -116 -22.5t-98 -66.5q-44 -43 -66.5 -98t-22.5 -116t22.5 -116t66.5 -98q43 -44 98 -66.5t116 -22.5t116 22.5t98 66.5q44 43 66.5 98t22.5 116t-22.5 116t-66.5 98q-43 44 -98 66.5t-116 22.5zM386 955h70l-54 -163h-50zM494 955h70l-54 -163h-50z" />
    <glyph glyph-name="Omacron" unicode="&#x14c;" horiz-adv-x="866" 
d="M281 862h300v-70h-300v70zM433 -23q-75 0 -145 29q-68 28 -119 80q-52 51 -80 119q-29 70 -29 145t29 145q28 67 80 119q51 51 119 80q70 29 145 29t145 -29q67 -29 119 -80q51 -52 80 -119q29 -70 29 -145t-29 -145q-29 -68 -80 -119q-52 -52 -119 -80q-70 -29 -145 -29
zM433 653q-61 0 -116 -22.5t-98 -66.5q-44 -43 -66.5 -98t-22.5 -116t22.5 -116t66.5 -98q43 -44 98 -66.5t116 -22.5t116 22.5t98 66.5q44 43 66.5 98t22.5 116t-22.5 116t-66.5 98q-43 44 -98 66.5t-116 22.5z" />
    <glyph glyph-name="Oslashacute" unicode="&#x1fe;" horiz-adv-x="866" 
d="M433 -23q-75 0 -145 29q-68 28 -119 80q-52 51 -80 119q-29 70 -29 145t29 145q28 67 80 119q51 51 119 80q70 29 145 29t145 -29q67 -29 119 -80q51 -52 80 -119q29 -70 29 -145t-29 -145q-29 -68 -80 -119q-52 -52 -119 -80q-70 -29 -145 -29zM433 47q61 0 116 22.5
t98 66.5q44 43 66.5 98t22.5 116t-22.5 116t-66.5 98q-38 38 -87 61l-187 -572q28 -6 60 -6zM433 653q-61 0 -116 -22.5t-98 -66.5q-44 -43 -66.5 -98t-22.5 -116t22.5 -116t66.5 -98q37 -39 87 -62l187 573q-30 6 -60 6zM468 792h-74l63 200h74z" />
    <glyph glyph-name="Otilde" unicode="&#xd5;" horiz-adv-x="866" 
d="M433 -23q-75 0 -145 29q-68 28 -119 80q-52 51 -80 119q-29 70 -29 145t29 145q28 67 80 119q51 51 119 80q70 29 145 29t145 -29q67 -29 119 -80q51 -52 80 -119q29 -70 29 -145t-29 -145q-29 -68 -80 -119q-52 -52 -119 -80q-70 -29 -145 -29zM433 653
q-61 0 -116 -22.5t-98 -66.5q-44 -43 -66.5 -98t-22.5 -116t22.5 -116t66.5 -98q43 -44 98 -66.5t116 -22.5t116 22.5t98 66.5q44 43 66.5 98t22.5 116t-22.5 116t-66.5 98q-43 44 -98 66.5t-116 22.5zM562 848q-24 -42 -65.5 -53t-83.5 13q-15 10 -28 5t-22 -21l-62 37
q24 42 65.5 53t83.5 -12q15 -9 28 -4.5t22 19.5z" />
    <glyph glyph-name="Racute" unicode="&#x154;" horiz-adv-x="584" 
d="M454 144q0 56 -35 91q-38 35 -106 38h-183v-273h-70v700h244q45 0 84 -12.5t69 -36.5t49 -62q8 -18 13 -41t5 -62q0 -41 -5 -62.5t-13 -39.5q-19 -38 -49 -62l-9.5 -7.5t-9.5 -6.5q8 -5 15 -10.5l14 -11.5q46 -45 55 -110q1 -8 1.5 -16t0.5 -16v-144h-70v144zM413 377
q11 10 20 26q8 14 14.5 34t6.5 49q0 43 -10.5 68.5t-30.5 41.5q-42 34 -109 34h-174v-287h174q67 0 109 34zM329 792h-74l63 200h74z" />
    <glyph glyph-name="Rcaron" unicode="&#x158;" horiz-adv-x="584" 
d="M454 144q0 56 -35 91q-38 35 -106 38h-183v-273h-70v700h244q45 0 84 -12.5t69 -36.5t49 -62q8 -18 13 -41t5 -62q0 -41 -5 -62.5t-13 -39.5q-19 -38 -49 -62l-9.5 -7.5t-9.5 -6.5q8 -5 15 -10.5l14 -11.5q46 -45 55 -110q1 -8 1.5 -16t0.5 -16v-144h-70v144zM413 377
q11 10 20 26q8 14 14.5 34t6.5 49q0 43 -10.5 68.5t-30.5 41.5q-42 34 -109 34h-174v-287h174q67 0 109 34zM167 992h77l48 -112l49 112h77l-87 -200h-77z" />
    <glyph glyph-name="Sacute" unicode="&#x15a;" horiz-adv-x="596" 
d="M309 -23q-54 2 -99.5 17t-78.5 43t-51.5 69.5t-19.5 96.5h70q7 -83 55.5 -119.5t123.5 -36.5q30 0 58.5 7.5t50 22.5t35 38.5t13.5 55.5q0 37 -16.5 61t-43.5 40.5t-61.5 28l-70 23.5t-70 26t-61.5 35.5t-43.5 53.5t-16.5 79q0 48 18.5 86t49 64.5t70.5 40.5t83 14
q40 0 77.5 -13t66.5 -36t46.5 -56.5t17.5 -73.5h-70q-2 28 -14.5 48.5t-32 34t-43.5 20t-48 6.5q-31 0 -58.5 -9.5t-48 -26.5t-32.5 -42.5t-12 -56.5q0 -34 16 -56t42 -37.5t59 -26.5l68 -22t68.5 -25t60.5 -36q69 -56 69 -144q0 -48 -19.5 -84.5t-52 -60.5t-73 -36.5
t-82.5 -12.5zM335 792h-74l63 200h74z" />
    <glyph glyph-name="Scaron" unicode="&#x160;" horiz-adv-x="596" 
d="M309 -23q-54 2 -99.5 17t-78.5 43t-51.5 69.5t-19.5 96.5h70q7 -83 55.5 -119.5t123.5 -36.5q30 0 58.5 7.5t50 22.5t35 38.5t13.5 55.5q0 37 -16.5 61t-43.5 40.5t-61.5 28l-70 23.5t-70 26t-61.5 35.5t-43.5 53.5t-16.5 79q0 48 18.5 86t49 64.5t70.5 40.5t83 14
q40 0 77.5 -13t66.5 -36t46.5 -56.5t17.5 -73.5h-70q-2 28 -14.5 48.5t-32 34t-43.5 20t-48 6.5q-31 0 -58.5 -9.5t-48 -26.5t-32.5 -42.5t-12 -56.5q0 -34 16 -56t42 -37.5t59 -26.5l68 -22t68.5 -25t60.5 -36q69 -56 69 -144q0 -48 -19.5 -84.5t-52 -60.5t-73 -36.5
t-82.5 -12.5zM173 992h77l48 -112l49 112h77l-87 -200h-77z" />
    <glyph glyph-name="Scedilla" unicode="&#x15e;" horiz-adv-x="596" 
d="M309 -23q-54 2 -99.5 17t-78.5 43t-51.5 69.5t-19.5 96.5h70q7 -83 55.5 -119.5t123.5 -36.5q30 0 58.5 7.5t50 22.5t35 38.5t13.5 55.5q0 37 -16.5 61t-43.5 40.5t-61.5 28l-70 23.5t-70 26t-61.5 35.5t-43.5 53.5t-16.5 79q0 48 18.5 86t49 64.5t70.5 40.5t83 14
q40 0 77.5 -13t66.5 -36t46.5 -56.5t17.5 -73.5h-70q-2 28 -14.5 48.5t-32 34t-43.5 20t-48 6.5q-31 0 -58.5 -9.5t-48 -26.5t-32.5 -42.5t-12 -56.5q0 -34 16 -56t42 -37.5t59 -26.5l68 -22t68.5 -25t60.5 -36q69 -56 69 -144q0 -48 -19.5 -84.5t-52 -60.5t-73 -36.5
t-82.5 -12.5zM263 -194h70q14 0 24 10t10 24t-10 24.5t-24 10.5h-70v125h70v-55q21 0 40.5 -8.5t33.5 -22.5t22.5 -33t8.5 -41t-8.5 -41t-22.5 -33t-33.5 -22t-40.5 -8h-70v70z" />
    <glyph glyph-name="Scircumflex" unicode="&#x15c;" horiz-adv-x="596" 
d="M309 -23q-54 2 -99.5 17t-78.5 43t-51.5 69.5t-19.5 96.5h70q7 -83 55.5 -119.5t123.5 -36.5q30 0 58.5 7.5t50 22.5t35 38.5t13.5 55.5q0 37 -16.5 61t-43.5 40.5t-61.5 28l-70 23.5t-70 26t-61.5 35.5t-43.5 53.5t-16.5 79q0 48 18.5 86t49 64.5t70.5 40.5t83 14
q40 0 77.5 -13t66.5 -36t46.5 -56.5t17.5 -73.5h-70q-2 28 -14.5 48.5t-32 34t-43.5 20t-48 6.5q-31 0 -58.5 -9.5t-48 -26.5t-32.5 -42.5t-12 -56.5q0 -34 16 -56t42 -37.5t59 -26.5l68 -22t68.5 -25t60.5 -36q69 -56 69 -144q0 -48 -19.5 -84.5t-52 -60.5t-73 -36.5
t-82.5 -12.5zM342 922l92 -130h-76l-60 84l-61 -84h-75l91 130h89z" />
    <glyph glyph-name="Tcaron" unicode="&#x164;" horiz-adv-x="586" 
d="M60 630v70h466v-70h-198v-630h-70v630h-198zM168 992h77l48 -112l49 112h77l-87 -200h-77z" />
    <glyph glyph-name="Uacute" unicode="&#xda;" horiz-adv-x="590" 
d="M60 700h70v-488q0 -34 13 -64t35.5 -52.5t52.5 -35.5t64 -13t64 13t52.5 35.5t35.5 52.5t13 64v488h70v-488q0 -48 -18 -90.5t-51 -75.5q-33 -34 -75.5 -51.5t-90.5 -17.5t-90.5 17.5t-75.5 51.5q-34 33 -51.5 75.5t-17.5 90.5v488zM332 792h-74l63 200h74z" />
    <glyph glyph-name="Ubreve" unicode="&#x16c;" horiz-adv-x="590" 
d="M60 700h70v-488q0 -34 13 -64t35.5 -52.5t52.5 -35.5t64 -13t64 13t52.5 35.5t35.5 52.5t13 64v488h70v-488q0 -48 -18 -90.5t-51 -75.5q-33 -34 -75.5 -51.5t-90.5 -17.5t-90.5 17.5t-75.5 51.5q-34 33 -51.5 75.5t-17.5 90.5v488zM295 770q-27 0 -50.5 10t-41 28
t-28 41.5t-10.5 50.5h70q0 -25 17.5 -42.5t42.5 -17.5q26 0 43 17.5t17 42.5h70q0 -27 -10 -50.5t-28 -41.5t-41.5 -28t-50.5 -10z" />
    <glyph glyph-name="Ucircumflex" unicode="&#xdb;" horiz-adv-x="590" 
d="M60 700h70v-488q0 -34 13 -64t35.5 -52.5t52.5 -35.5t64 -13t64 13t52.5 35.5t35.5 52.5t13 64v488h70v-488q0 -48 -18 -90.5t-51 -75.5q-33 -34 -75.5 -51.5t-90.5 -17.5t-90.5 17.5t-75.5 51.5q-34 33 -51.5 75.5t-17.5 90.5v488zM339 922l92 -130h-76l-60 84l-61 -84
h-75l91 130h89z" />
    <glyph glyph-name="Udieresis" unicode="&#xdc;" horiz-adv-x="590" 
d="M60 700h70v-488q0 -34 13 -64t35.5 -52.5t52.5 -35.5t64 -13t64 13t52.5 35.5t35.5 52.5t13 64v488h70v-488q0 -48 -18 -90.5t-51 -75.5q-33 -34 -75.5 -51.5t-90.5 -17.5t-90.5 17.5t-75.5 51.5q-34 33 -51.5 75.5t-17.5 90.5v488zM173 848q0 18 12 30.5t30 12.5
t30.5 -12.5t12.5 -30.5t-12.5 -30t-30.5 -12t-30 12t-12 30zM333 848q0 18 12 30.5t30 12.5t30.5 -12.5t12.5 -30.5t-12.5 -30t-30.5 -12t-30 12t-12 30z" />
    <glyph glyph-name="Ugrave" unicode="&#xd9;" horiz-adv-x="590" 
d="M60 700h70v-488q0 -34 13 -64t35.5 -52.5t52.5 -35.5t64 -13t64 13t52.5 35.5t35.5 52.5t13 64v488h70v-488q0 -48 -18 -90.5t-51 -75.5q-33 -34 -75.5 -51.5t-90.5 -17.5t-90.5 17.5t-75.5 51.5q-34 33 -51.5 75.5t-17.5 90.5v488zM195 992h74l63 -200h-74z" />
    <glyph glyph-name="Uhungarumlaut" unicode="&#x170;" horiz-adv-x="590" 
d="M60 700h70v-488q0 -34 13 -64t35.5 -52.5t52.5 -35.5t64 -13t64 13t52.5 35.5t35.5 52.5t13 64v488h70v-488q0 -48 -18 -90.5t-51 -75.5q-33 -34 -75.5 -51.5t-90.5 -17.5t-90.5 17.5t-75.5 51.5q-34 33 -51.5 75.5t-17.5 90.5v488zM249 955h70l-54 -163h-50zM357 955h70
l-54 -163h-50z" />
    <glyph glyph-name="Umacron" unicode="&#x16a;" horiz-adv-x="590" 
d="M145 862h300v-70h-300v70zM60 700h70v-488q0 -34 13 -64t35.5 -52.5t52.5 -35.5t64 -13t64 13t52.5 35.5t35.5 52.5t13 64v488h70v-488q0 -48 -18 -90.5t-51 -75.5q-33 -34 -75.5 -51.5t-90.5 -17.5t-90.5 17.5t-75.5 51.5q-34 33 -51.5 75.5t-17.5 90.5v488z" />
    <glyph glyph-name="Uogonek" unicode="&#x172;" horiz-adv-x="590" 
d="M60 700h70v-488q0 -34 13 -64t35.5 -52.5t52.5 -35.5t64 -13t64 13t52.5 35.5t35.5 52.5t13 64v488h70v-488q0 -48 -18 -90.5t-51 -75.5q-33 -34 -75.5 -51.5t-90.5 -17.5t-90.5 17.5t-75.5 51.5q-34 33 -51.5 75.5t-17.5 90.5v488zM330 -264h-70q-21 0 -40.5 8t-33.5 22
t-22.5 33t-8.5 41t8.5 41t22.5 33t33.5 22.5t40.5 8.5v55h70v-125h-70q-14 0 -24 -10.5t-10 -24.5t10 -24t24 -10h70v-70z" />
    <glyph glyph-name="Uring" unicode="&#x16e;" horiz-adv-x="590" 
d="M60 700h70v-488q0 -34 13 -64t35.5 -52.5t52.5 -35.5t64 -13t64 13t52.5 35.5t35.5 52.5t13 64v488h70v-488q0 -48 -18 -90.5t-51 -75.5q-33 -34 -75.5 -51.5t-90.5 -17.5t-90.5 17.5t-75.5 51.5q-34 33 -51.5 75.5t-17.5 90.5v488zM295 770q-26 0 -48 9.5t-39 26.5
t-26.5 39t-9.5 48q0 25 9.5 47.5t26.5 39.5t39 26.5t48 9.5q25 0 47.5 -9.5t39.5 -26.5t26.5 -39.5t9.5 -47.5q0 -26 -9.5 -48t-26.5 -39t-39.5 -26.5t-47.5 -9.5zM295 946q-22 0 -37.5 -15.5t-15.5 -37.5t15.5 -37.5t37.5 -15.5q23 0 38 15.5t15 37.5t-15 37.5t-38 15.5z
" />
    <glyph glyph-name="Utilde" unicode="&#x168;" horiz-adv-x="590" 
d="M60 700h70v-488q0 -34 13 -64t35.5 -52.5t52.5 -35.5t64 -13t64 13t52.5 35.5t35.5 52.5t13 64v488h70v-488q0 -48 -18 -90.5t-51 -75.5q-33 -34 -75.5 -51.5t-90.5 -17.5t-90.5 17.5t-75.5 51.5q-34 33 -51.5 75.5t-17.5 90.5v488zM426 848q-24 -42 -65.5 -53t-83.5 13
q-15 10 -28 5t-22 -21l-62 37q24 42 65.5 53t83.5 -12q15 -9 28 -4.5t22 19.5z" />
    <glyph glyph-name="Wacute" unicode="&#x1e82;" horiz-adv-x="708" 
d="M571 0l-217 328l-217 -328h-77v700h70v-584l224 339l224 -339v584h70v-700h-77zM401 792h-74l63 200h74z" />
    <glyph glyph-name="Wcircumflex" unicode="&#x174;" horiz-adv-x="708" 
d="M571 0l-217 328l-217 -328h-77v700h70v-584l224 339l224 -339v584h70v-700h-77zM408 922l92 -130h-76l-60 84l-61 -84h-75l91 130h89z" />
    <glyph glyph-name="Wdieresis" unicode="&#x1e84;" horiz-adv-x="708" 
d="M571 0l-217 328l-217 -328h-77v700h70v-584l224 339l224 -339v584h70v-700h-77zM242 848q0 18 12 30.5t30 12.5t30.5 -12.5t12.5 -30.5t-12.5 -30t-30.5 -12t-30 12t-12 30zM402 848q0 18 12 30.5t30 12.5t30.5 -12.5t12.5 -30.5t-12.5 -30t-30.5 -12t-30 12t-12 30z" />
    <glyph glyph-name="Wgrave" unicode="&#x1e80;" horiz-adv-x="708" 
d="M571 0l-217 328l-217 -328h-77v700h70v-584l224 339l224 -339v584h70v-700h-77zM264 992h74l63 -200h-74z" />
    <glyph glyph-name="Yacute" unicode="&#xdd;" horiz-adv-x="656" 
d="M293 273l-233 427h80l188 -357l188 357h80l-233 -427v-273h-70v273zM365 792h-74l63 200h74z" />
    <glyph glyph-name="Ycircumflex" unicode="&#x176;" horiz-adv-x="656" 
d="M293 273l-233 427h80l188 -357l188 357h80l-233 -427v-273h-70v273zM372 922l92 -130h-76l-60 84l-61 -84h-75l91 130h89z" />
    <glyph glyph-name="Ydieresis" unicode="&#x178;" horiz-adv-x="656" 
d="M293 273l-233 427h80l188 -357l188 357h80l-233 -427v-273h-70v273zM206 848q0 18 12 30.5t30 12.5t30.5 -12.5t12.5 -30.5t-12.5 -30t-30.5 -12t-30 12t-12 30zM366 848q0 18 12 30.5t30 12.5t30.5 -12.5t12.5 -30.5t-12.5 -30t-30.5 -12t-30 12t-12 30z" />
    <glyph glyph-name="Ygrave" unicode="&#x1ef2;" horiz-adv-x="656" 
d="M293 273l-233 427h80l188 -357l188 357h80l-233 -427v-273h-70v273zM228 992h74l63 -200h-74z" />
    <glyph glyph-name="Zacute" unicode="&#x179;" horiz-adv-x="572" 
d="M60 630v70h452l-337 -630h337v-70h-452l335 630h-335zM323 792h-74l63 200h74z" />
    <glyph glyph-name="Zcaron" unicode="&#x17d;" horiz-adv-x="572" 
d="M60 630v70h452l-337 -630h337v-70h-452l335 630h-335zM161 992h77l48 -112l49 112h77l-87 -200h-77z" />
    <glyph glyph-name="Zdotaccent" unicode="&#x17b;" horiz-adv-x="572" 
d="M60 630v70h452l-337 -630h337v-70h-452l335 630h-335zM244 848q0 18 12 30.5t30 12.5t30.5 -12.5t12.5 -30.5t-12.5 -30t-30.5 -12t-30 12t-12 30z" />
    <glyph glyph-name="abreve" unicode="&#x103;" horiz-adv-x="666" 
d="M526 444q39 -39 59.5 -89t20.5 -105v-250h-70v75q-20 -28 -44 -46.5t-50.5 -30t-54.5 -16.5t-54 -5q-55 0 -105 21t-88 59q-39 39 -59.5 89t-20.5 104q0 55 20.5 105t59.5 89q38 38 88 59t105 21t105 -21t88 -59zM333 47q42 0 79 16t64.5 43.5t43.5 64.5t16 79t-16 79.5
t-43.5 65t-64.5 43.5t-79 16t-79 -16t-64.5 -43.5t-43.5 -65t-16 -79.5t16 -79t43.5 -64.5t64.5 -43.5t79 -16zM333 570q-27 0 -50.5 10t-41 28t-28 41.5t-10.5 50.5h70q0 -25 17.5 -42.5t42.5 -17.5q26 0 43 17.5t17 42.5h70q0 -27 -10 -50.5t-28 -41.5t-41.5 -28
t-50.5 -10z" />
    <glyph glyph-name="acircumflex" unicode="&#xe2;" horiz-adv-x="666" 
d="M526 444q39 -39 59.5 -89t20.5 -105v-250h-70v75q-20 -28 -44 -46.5t-50.5 -30t-54.5 -16.5t-54 -5q-55 0 -105 21t-88 59q-39 39 -59.5 89t-20.5 104q0 55 20.5 105t59.5 89q38 38 88 59t105 21t105 -21t88 -59zM333 47q42 0 79 16t64.5 43.5t43.5 64.5t16 79t-16 79.5
t-43.5 65t-64.5 43.5t-79 16t-79 -16t-64.5 -43.5t-43.5 -65t-16 -79.5t16 -79t43.5 -64.5t64.5 -43.5t79 -16zM377 722l92 -130h-76l-60 84l-61 -84h-75l91 130h89z" />
    <glyph glyph-name="adieresis" unicode="&#xe4;" horiz-adv-x="666" 
d="M526 444q39 -39 59.5 -89t20.5 -105v-250h-70v75q-20 -28 -44 -46.5t-50.5 -30t-54.5 -16.5t-54 -5q-55 0 -105 21t-88 59q-39 39 -59.5 89t-20.5 104q0 55 20.5 105t59.5 89q38 38 88 59t105 21t105 -21t88 -59zM333 47q42 0 79 16t64.5 43.5t43.5 64.5t16 79t-16 79.5
t-43.5 65t-64.5 43.5t-79 16t-79 -16t-64.5 -43.5t-43.5 -65t-16 -79.5t16 -79t43.5 -64.5t64.5 -43.5t79 -16zM211 648q0 18 12 30.5t30 12.5t30.5 -12.5t12.5 -30.5t-12.5 -30t-30.5 -12t-30 12t-12 30zM371 648q0 18 12 30.5t30 12.5t30.5 -12.5t12.5 -30.5t-12.5 -30
t-30.5 -12t-30 12t-12 30z" />
    <glyph glyph-name="agrave" unicode="&#xe0;" horiz-adv-x="666" 
d="M526 444q39 -39 59.5 -89t20.5 -105v-250h-70v75q-20 -28 -44 -46.5t-50.5 -30t-54.5 -16.5t-54 -5q-55 0 -105 21t-88 59q-39 39 -59.5 89t-20.5 104q0 55 20.5 105t59.5 89q38 38 88 59t105 21t105 -21t88 -59zM333 47q42 0 79 16t64.5 43.5t43.5 64.5t16 79t-16 79.5
t-43.5 65t-64.5 43.5t-79 16t-79 -16t-64.5 -43.5t-43.5 -65t-16 -79.5t16 -79t43.5 -64.5t64.5 -43.5t79 -16zM233 792h74l63 -200h-74z" />
    <glyph glyph-name="amacron" unicode="&#x101;" horiz-adv-x="666" 
d="M183 661h300v-70h-300v70zM526 444q39 -39 59.5 -89t20.5 -105v-250h-70v75q-20 -28 -44 -46.5t-50.5 -30t-54.5 -16.5t-54 -5q-55 0 -105 21t-88 59q-39 39 -59.5 89t-20.5 104q0 55 20.5 105t59.5 89q38 38 88 59t105 21t105 -21t88 -59zM333 47q42 0 79 16t64.5 43.5
t43.5 64.5t16 79t-16 79.5t-43.5 65t-64.5 43.5t-79 16t-79 -16t-64.5 -43.5t-43.5 -65t-16 -79.5t16 -79t43.5 -64.5t64.5 -43.5t79 -16z" />
    <glyph glyph-name="aogonek" unicode="&#x105;" horiz-adv-x="666" 
d="M526 444q39 -39 59.5 -89t20.5 -105v-250h-70v75q-20 -28 -44 -46.5t-50.5 -30t-54.5 -16.5t-54 -5q-55 0 -105 21t-88 59q-39 39 -59.5 89t-20.5 104q0 55 20.5 105t59.5 89q38 38 88 59t105 21t105 -21t88 -59zM333 47q42 0 79 16t64.5 43.5t43.5 64.5t16 79t-16 79.5
t-43.5 65t-64.5 43.5t-79 16t-79 -16t-64.5 -43.5t-43.5 -65t-16 -79.5t16 -79t43.5 -64.5t64.5 -43.5t79 -16zM606 -264h-70q-21 0 -40.5 8t-33.5 22t-22.5 33t-8.5 41t8.5 41t22.5 33t33.5 22.5t40.5 8.5v55h70v-125h-70q-14 0 -24 -10.5t-10 -24.5t10 -24t24 -10h70v-70z
" />
    <glyph glyph-name="aring" unicode="&#xe5;" horiz-adv-x="666" 
d="M526 444q39 -39 59.5 -89t20.5 -105v-250h-70v75q-20 -28 -44 -46.5t-50.5 -30t-54.5 -16.5t-54 -5q-55 0 -105 21t-88 59q-39 39 -59.5 89t-20.5 104q0 55 20.5 105t59.5 89q38 38 88 59t105 21t105 -21t88 -59zM333 47q42 0 79 16t64.5 43.5t43.5 64.5t16 79t-16 79.5
t-43.5 65t-64.5 43.5t-79 16t-79 -16t-64.5 -43.5t-43.5 -65t-16 -79.5t16 -79t43.5 -64.5t64.5 -43.5t79 -16zM333 570q-26 0 -48 9.5t-39 26.5t-26.5 39t-9.5 48q0 25 9.5 47.5t26.5 39.5t39 26.5t48 9.5q25 0 47.5 -9.5t39.5 -26.5t26.5 -39.5t9.5 -47.5q0 -26 -9.5 -48
t-26.5 -39t-39.5 -26.5t-47.5 -9.5zM333 746q-22 0 -37.5 -15.5t-15.5 -37.5t15.5 -37.5t37.5 -15.5q23 0 38 15.5t15 37.5t-15 37.5t-38 15.5z" />
    <glyph glyph-name="atilde" unicode="&#xe3;" horiz-adv-x="666" 
d="M526 444q39 -39 59.5 -89t20.5 -105v-250h-70v75q-20 -28 -44 -46.5t-50.5 -30t-54.5 -16.5t-54 -5q-55 0 -105 21t-88 59q-39 39 -59.5 89t-20.5 104q0 55 20.5 105t59.5 89q38 38 88 59t105 21t105 -21t88 -59zM333 47q42 0 79 16t64.5 43.5t43.5 64.5t16 79t-16 79.5
t-43.5 65t-64.5 43.5t-79 16t-79 -16t-64.5 -43.5t-43.5 -65t-16 -79.5t16 -79t43.5 -64.5t64.5 -43.5t79 -16zM463 648q-24 -42 -65.5 -53t-83.5 13q-15 10 -28 5t-22 -21l-62 37q24 42 65.5 53t83.5 -12q15 -9 28 -4.5t22 19.5z" />
    <glyph glyph-name="aeacute" unicode="&#x1fd;" horiz-adv-x="1142" 
d="M606 248q0 -42 16.5 -78.5t44 -63.5t64 -43t78.5 -16q57 0 104 28.5t73 75.5h78q-21 -53 -62 -94q-39 -38 -88.5 -59t-104.5 -21t-105 21t-88 59q-3 2 -5.5 5t-4.5 5v-67h-70v68q-14 -21 -37.5 -38t-51.5 -28.5t-58 -18t-56 -6.5q-55 0 -105 21t-88 59q-39 39 -59.5 89
t-20.5 104q0 55 20.5 105t59.5 89q38 38 88 59t105 21t105 -21t88 -59q27 -27 45 -60q17 31 45 59q38 39 88 60t105 21t104.5 -21t88.5 -60q39 -38 59.5 -89t20.5 -106h-476zM333 47q41 0 77 15t63.5 41.5t44 61.5t18.5 76v9q0 42 -16 79.5t-43.5 65t-64.5 43.5t-79 16
t-79 -16t-64.5 -43.5t-43.5 -65t-16 -79.5t16 -79t43.5 -64.5t64.5 -43.5t79 -16zM809 454q-33 0 -63 -10t-55 -28t-44 -43t-30 -55h383q-22 60 -73.5 98t-117.5 38zM607 592h-74l63 200h74z" />
    <glyph glyph-name="cacute" unicode="&#x107;" horiz-adv-x="648" 
d="M588 151q-21 -53 -62 -94q-38 -38 -88 -59t-105 -21t-105 21t-88 59q-39 39 -59.5 89t-20.5 104q0 55 20.5 105t59.5 89q38 38 88 59t105 21t105 -21t88 -59q41 -41 62 -94h-78q-26 47 -73 75.5t-104 28.5q-42 0 -79 -16t-64.5 -43.5t-43.5 -65t-16 -79.5t16 -79
t43.5 -64.5t64.5 -43.5t79 -16q57 0 104 28.5t73 75.5h78zM361 592h-74l63 200h74z" />
    <glyph glyph-name="ccaron" unicode="&#x10d;" horiz-adv-x="648" 
d="M588 151q-21 -53 -62 -94q-38 -38 -88 -59t-105 -21t-105 21t-88 59q-39 39 -59.5 89t-20.5 104q0 55 20.5 105t59.5 89q38 38 88 59t105 21t105 -21t88 -59q41 -41 62 -94h-78q-26 47 -73 75.5t-104 28.5q-42 0 -79 -16t-64.5 -43.5t-43.5 -65t-16 -79.5t16 -79
t43.5 -64.5t64.5 -43.5t79 -16q57 0 104 28.5t73 75.5h78zM199 792h77l48 -112l49 112h77l-87 -200h-77z" />
    <glyph glyph-name="ccedilla" unicode="&#xe7;" horiz-adv-x="648" 
d="M588 151q-21 -53 -62 -94q-38 -38 -88 -59t-105 -21t-105 21t-88 59q-39 39 -59.5 89t-20.5 104q0 55 20.5 105t59.5 89q38 38 88 59t105 21t105 -21t88 -59q41 -41 62 -94h-78q-26 47 -73 75.5t-104 28.5q-42 0 -79 -16t-64.5 -43.5t-43.5 -65t-16 -79.5t16 -79
t43.5 -64.5t64.5 -43.5t79 -16q57 0 104 28.5t73 75.5h78zM289 -194h70q14 0 24 10t10 24t-10 24.5t-24 10.5h-70v125h70v-55q21 0 40.5 -8.5t33.5 -22.5t22.5 -33t8.5 -41t-8.5 -41t-22.5 -33t-33.5 -22t-40.5 -8h-70v70z" />
    <glyph glyph-name="ccircumflex" unicode="&#x109;" horiz-adv-x="648" 
d="M588 151q-21 -53 -62 -94q-38 -38 -88 -59t-105 -21t-105 21t-88 59q-39 39 -59.5 89t-20.5 104q0 55 20.5 105t59.5 89q38 38 88 59t105 21t105 -21t88 -59q41 -41 62 -94h-78q-26 47 -73 75.5t-104 28.5q-42 0 -79 -16t-64.5 -43.5t-43.5 -65t-16 -79.5t16 -79
t43.5 -64.5t64.5 -43.5t79 -16q57 0 104 28.5t73 75.5h78zM368 722l92 -130h-76l-60 84l-61 -84h-75l91 130h89z" />
    <glyph glyph-name="cdotaccent" unicode="&#x10b;" horiz-adv-x="648" 
d="M588 151q-21 -53 -62 -94q-38 -38 -88 -59t-105 -21t-105 21t-88 59q-39 39 -59.5 89t-20.5 104q0 55 20.5 105t59.5 89q38 38 88 59t105 21t105 -21t88 -59q41 -41 62 -94h-78q-26 47 -73 75.5t-104 28.5q-42 0 -79 -16t-64.5 -43.5t-43.5 -65t-16 -79.5t16 -79
t43.5 -64.5t64.5 -43.5t79 -16q57 0 104 28.5t73 75.5h78zM282 648q0 18 12 30.5t30 12.5t30.5 -12.5t12.5 -30.5t-12.5 -30t-30.5 -12t-30 12t-12 30z" />
    <glyph glyph-name="dcaron" unicode="&#x10f;" horiz-adv-x="666" 
d="M526 57q-38 -38 -88 -59t-105 -21t-105 21t-88 59q-39 39 -59.5 89t-20.5 105q0 54 20.5 104t59.5 89q38 38 88 59t105 21t105 -21t88 -59q7 -7 10 -11v267h70v-449q0 -55 -20.5 -105t-59.5 -89zM333 454q-42 0 -79 -16t-64.5 -43.5t-43.5 -64.5t-16 -79t16 -79.5
t43.5 -65t64.5 -43.5t79 -16t79 16t64.5 43.5t43.5 65t16 79.5t-16 79t-43.5 64.5t-64.5 43.5t-79 16zM698 615q-14 3 -23 15t-9 27q0 17 12.5 30t30.5 13t30.5 -13t12.5 -30q0 -3 -0.5 -7t-3.5 -15l-8.5 -31.5l-15.5 -55.5h-33z" />
    <glyph glyph-name="Ldot" unicode="&#x13f;" horiz-adv-x="586" 
d="M252 340q0 18 12 30.5t30 12.5t30.5 -12.5t12.5 -30.5t-12.5 -30t-30.5 -12t-30 12t-12 30zM60 700h70v-630h396v-70h-466v700z" />
    <glyph glyph-name="eacute" unicode="&#xe9;" horiz-adv-x="666" 
d="M130 248q0 -42 16.5 -78.5t44 -63.5t64 -43t78.5 -16q57 0 104 28.5t73 75.5h78q-21 -53 -62 -94q-39 -38 -88.5 -59t-104.5 -21t-105 21t-88 59q-39 39 -59.5 88.5t-20.5 104.5t20.5 105t59.5 88q38 39 88 60t105 21t104.5 -21t88.5 -60q39 -38 59.5 -89t20.5 -106h-476
zM333 454q-33 0 -63 -10t-55 -28t-44 -43t-30 -55h383q-22 60 -73.5 98t-117.5 38zM370 592h-74l63 200h74z" />
    <glyph glyph-name="ebreve" unicode="&#x115;" horiz-adv-x="666" 
d="M130 248q0 -42 16.5 -78.5t44 -63.5t64 -43t78.5 -16q57 0 104 28.5t73 75.5h78q-21 -53 -62 -94q-39 -38 -88.5 -59t-104.5 -21t-105 21t-88 59q-39 39 -59.5 88.5t-20.5 104.5t20.5 105t59.5 88q38 39 88 60t105 21t104.5 -21t88.5 -60q39 -38 59.5 -89t20.5 -106h-476
zM333 454q-33 0 -63 -10t-55 -28t-44 -43t-30 -55h383q-22 60 -73.5 98t-117.5 38zM333 570q-27 0 -50.5 10t-41 28t-28 41.5t-10.5 50.5h70q0 -25 17.5 -42.5t42.5 -17.5q26 0 43 17.5t17 42.5h70q0 -27 -10 -50.5t-28 -41.5t-41.5 -28t-50.5 -10z" />
    <glyph glyph-name="ecaron" unicode="&#x11b;" horiz-adv-x="666" 
d="M130 248q0 -42 16.5 -78.5t44 -63.5t64 -43t78.5 -16q57 0 104 28.5t73 75.5h78q-21 -53 -62 -94q-39 -38 -88.5 -59t-104.5 -21t-105 21t-88 59q-39 39 -59.5 88.5t-20.5 104.5t20.5 105t59.5 88q38 39 88 60t105 21t104.5 -21t88.5 -60q39 -38 59.5 -89t20.5 -106h-476
zM333 454q-33 0 -63 -10t-55 -28t-44 -43t-30 -55h383q-22 60 -73.5 98t-117.5 38zM207 792h77l48 -112l49 112h77l-87 -200h-77z" />
    <glyph glyph-name="ecircumflex" unicode="&#xea;" horiz-adv-x="666" 
d="M130 248q0 -42 16.5 -78.5t44 -63.5t64 -43t78.5 -16q57 0 104 28.5t73 75.5h78q-21 -53 -62 -94q-39 -38 -88.5 -59t-104.5 -21t-105 21t-88 59q-39 39 -59.5 88.5t-20.5 104.5t20.5 105t59.5 88q38 39 88 60t105 21t104.5 -21t88.5 -60q39 -38 59.5 -89t20.5 -106h-476
zM333 454q-33 0 -63 -10t-55 -28t-44 -43t-30 -55h383q-22 60 -73.5 98t-117.5 38zM377 722l92 -130h-76l-60 84l-61 -84h-75l91 130h89z" />
    <glyph glyph-name="edieresis" unicode="&#xeb;" horiz-adv-x="666" 
d="M130 248q0 -42 16.5 -78.5t44 -63.5t64 -43t78.5 -16q57 0 104 28.5t73 75.5h78q-21 -53 -62 -94q-39 -38 -88.5 -59t-104.5 -21t-105 21t-88 59q-39 39 -59.5 88.5t-20.5 104.5t20.5 105t59.5 88q38 39 88 60t105 21t104.5 -21t88.5 -60q39 -38 59.5 -89t20.5 -106h-476
zM333 454q-33 0 -63 -10t-55 -28t-44 -43t-30 -55h383q-22 60 -73.5 98t-117.5 38zM211 648q0 18 12 30.5t30 12.5t30.5 -12.5t12.5 -30.5t-12.5 -30t-30.5 -12t-30 12t-12 30zM371 648q0 18 12 30.5t30 12.5t30.5 -12.5t12.5 -30.5t-12.5 -30t-30.5 -12t-30 12t-12 30z" />
    <glyph glyph-name="edotaccent" unicode="&#x117;" horiz-adv-x="666" 
d="M130 248q0 -42 16.5 -78.5t44 -63.5t64 -43t78.5 -16q57 0 104 28.5t73 75.5h78q-21 -53 -62 -94q-39 -38 -88.5 -59t-104.5 -21t-105 21t-88 59q-39 39 -59.5 88.5t-20.5 104.5t20.5 105t59.5 88q38 39 88 60t105 21t104.5 -21t88.5 -60q39 -38 59.5 -89t20.5 -106h-476
zM333 454q-33 0 -63 -10t-55 -28t-44 -43t-30 -55h383q-22 60 -73.5 98t-117.5 38zM291 648q0 18 12 30.5t30 12.5t30.5 -12.5t12.5 -30.5t-12.5 -30t-30.5 -12t-30 12t-12 30z" />
    <glyph glyph-name="egrave" unicode="&#xe8;" horiz-adv-x="666" 
d="M130 248q0 -42 16.5 -78.5t44 -63.5t64 -43t78.5 -16q57 0 104 28.5t73 75.5h78q-21 -53 -62 -94q-39 -38 -88.5 -59t-104.5 -21t-105 21t-88 59q-39 39 -59.5 88.5t-20.5 104.5t20.5 105t59.5 88q38 39 88 60t105 21t104.5 -21t88.5 -60q39 -38 59.5 -89t20.5 -106h-476
zM333 454q-33 0 -63 -10t-55 -28t-44 -43t-30 -55h383q-22 60 -73.5 98t-117.5 38zM233 792h74l63 -200h-74z" />
    <glyph glyph-name="emacron" unicode="&#x113;" horiz-adv-x="666" 
d="M183 661h300v-70h-300v70zM130 248q0 -42 16.5 -78.5t44 -63.5t64 -43t78.5 -16q57 0 104 28.5t73 75.5h78q-21 -53 -62 -94q-39 -38 -88.5 -59t-104.5 -21t-105 21t-88 59q-39 39 -59.5 88.5t-20.5 104.5t20.5 105t59.5 88q38 39 88 60t105 21t104.5 -21t88.5 -60
q39 -38 59.5 -89t20.5 -106h-476zM333 454q-33 0 -63 -10t-55 -28t-44 -43t-30 -55h383q-22 60 -73.5 98t-117.5 38z" />
    <glyph glyph-name="eogonek" unicode="&#x119;" horiz-adv-x="666" 
d="M130 248q0 -42 16.5 -78.5t44 -63.5t64 -43t78.5 -16q57 0 104 28.5t73 75.5h78q-21 -53 -62 -94q-39 -38 -88.5 -59t-104.5 -21t-105 21t-88 59q-39 39 -59.5 88.5t-20.5 104.5t20.5 105t59.5 88q38 39 88 60t105 21t104.5 -21t88.5 -60q39 -38 59.5 -89t20.5 -106h-476
zM333 454q-33 0 -63 -10t-55 -28t-44 -43t-30 -55h383q-22 60 -73.5 98t-117.5 38zM368 -264h-70q-21 0 -40.5 8t-33.5 22t-22.5 33t-8.5 41t8.5 41t22.5 33t33.5 22.5t40.5 8.5v55h70v-125h-70q-14 0 -24 -10.5t-10 -24.5t10 -24t24 -10h70v-70z" />
    <glyph glyph-name="gbreve" unicode="&#x11f;" horiz-adv-x="666" 
d="M606 39q0 -55 -20.5 -105t-59.5 -88q-38 -39 -88 -59.5t-105 -20.5t-104.5 20.5t-88.5 59.5q-10 9 -18 19.5l-16 21.5l57 40q28 -42 72 -66.5t98 -24.5q42 0 79 16t64.5 43.5t43.5 64.5t16 79v29q-46 -47 -97 -69t-106 -22t-105 21t-88 59q-39 39 -59.5 89t-20.5 104
q0 55 20.5 105t59.5 89q38 38 88 59t105 21q27 0 56 -6t56 -17t50.5 -28.5t40.5 -39.5l12 67h58v-461zM333 47q42 0 79 16t64.5 43.5t43.5 64.5t16 79t-16 79.5t-43.5 65t-64.5 43.5t-79 16t-79 -16t-64.5 -43.5t-43.5 -65t-16 -79.5t16 -79t43.5 -64.5t64.5 -43.5t79 -16z
M333 570q-27 0 -50.5 10t-41 28t-28 41.5t-10.5 50.5h70q0 -25 17.5 -42.5t42.5 -17.5q26 0 43 17.5t17 42.5h70q0 -27 -10 -50.5t-28 -41.5t-41.5 -28t-50.5 -10z" />
    <glyph glyph-name="gcircumflex" unicode="&#x11d;" horiz-adv-x="666" 
d="M606 39q0 -55 -20.5 -105t-59.5 -88q-38 -39 -88 -59.5t-105 -20.5t-104.5 20.5t-88.5 59.5q-10 9 -18 19.5l-16 21.5l57 40q28 -42 72 -66.5t98 -24.5q42 0 79 16t64.5 43.5t43.5 64.5t16 79v29q-46 -47 -97 -69t-106 -22t-105 21t-88 59q-39 39 -59.5 89t-20.5 104
q0 55 20.5 105t59.5 89q38 38 88 59t105 21q27 0 56 -6t56 -17t50.5 -28.5t40.5 -39.5l12 67h58v-461zM333 47q42 0 79 16t64.5 43.5t43.5 64.5t16 79t-16 79.5t-43.5 65t-64.5 43.5t-79 16t-79 -16t-64.5 -43.5t-43.5 -65t-16 -79.5t16 -79t43.5 -64.5t64.5 -43.5t79 -16z
M377 722l92 -130h-76l-60 84l-61 -84h-75l91 130h89z" />
    <glyph glyph-name="gdotaccent" unicode="&#x121;" horiz-adv-x="666" 
d="M606 39q0 -55 -20.5 -105t-59.5 -88q-38 -39 -88 -59.5t-105 -20.5t-104.5 20.5t-88.5 59.5q-10 9 -18 19.5l-16 21.5l57 40q28 -42 72 -66.5t98 -24.5q42 0 79 16t64.5 43.5t43.5 64.5t16 79v29q-46 -47 -97 -69t-106 -22t-105 21t-88 59q-39 39 -59.5 89t-20.5 104
q0 55 20.5 105t59.5 89q38 38 88 59t105 21q27 0 56 -6t56 -17t50.5 -28.5t40.5 -39.5l12 67h58v-461zM333 47q42 0 79 16t64.5 43.5t43.5 64.5t16 79t-16 79.5t-43.5 65t-64.5 43.5t-79 16t-79 -16t-64.5 -43.5t-43.5 -65t-16 -79.5t16 -79t43.5 -64.5t64.5 -43.5t79 -16z
M291 648q0 18 12 30.5t30 12.5t30.5 -12.5t12.5 -30.5t-12.5 -30t-30.5 -12t-30 12t-12 30z" />
    <glyph glyph-name="hcircumflex" unicode="&#x125;" horiz-adv-x="569" 
d="M443 461q32 -32 49 -73t17 -86v-302h-70v302q0 32 -12.5 60t-33.5 49t-49 33t-60 12t-60 -12t-49 -33t-33 -49t-12 -60v-302h-70v700h70v-235q31 30 70.5 45.5t83.5 15.5q45 0 86 -16.5t73 -48.5zM328 922l92 -130h-76l-60 84l-61 -84h-75l91 130h89z" />
    <glyph glyph-name="iacute" unicode="&#xed;" 
d="M60 500h70v-500h-70v500zM132 592h-74l63 200h74z" />
    <glyph glyph-name="ibreve" unicode="&#x12d;" 
d="M60 500h70v-500h-70v500zM95 570q-27 0 -50.5 10t-41 28t-28 41.5t-10.5 50.5h70q0 -25 17.5 -42.5t42.5 -17.5q26 0 43 17.5t17 42.5h70q0 -27 -10 -50.5t-28 -41.5t-41.5 -28t-50.5 -10z" />
    <glyph glyph-name="icircumflex" unicode="&#xee;" 
d="M60 500h70v-500h-70v500zM139 722l92 -130h-76l-60 84l-61 -84h-75l91 130h89z" />
    <glyph glyph-name="idieresis" unicode="&#xef;" 
d="M60 500h70v-500h-70v500zM-27 648q0 18 12 30.5t30 12.5t30.5 -12.5t12.5 -30.5t-12.5 -30t-30.5 -12t-30 12t-12 30zM133 648q0 18 12 30.5t30 12.5t30.5 -12.5t12.5 -30.5t-12.5 -30t-30.5 -12t-30 12t-12 30z" />
    <glyph glyph-name="igrave" unicode="&#xec;" 
d="M60 500h70v-500h-70v500zM-5 792h74l63 -200h-74z" />
    <glyph glyph-name="Macron" unicode="&#xf6d0;" horiz-adv-x="420" 
d="M60 862h300v-70h-300v70z" />
    <glyph glyph-name="macron" unicode="&#xaf;" horiz-adv-x="420" 
d="M60 661h300v-70h-300v70z" />
    <glyph glyph-name="imacron" unicode="&#x12b;" 
d="M60 500h70v-500h-70v500zM-55 661h300v-70h-300v70z" />
    <glyph glyph-name="iogonek" unicode="&#x12f;" 
d="M60 500h70v-500h-70v500zM53 695q0 18 12 30.5t30 12.5t30.5 -12.5t12.5 -30.5t-12.5 -30t-30.5 -12t-30 12t-12 30zM131 -264h-70q-21 0 -40.5 8t-33.5 22t-22.5 33t-8.5 41t8.5 41t22.5 33t33.5 22.5t40.5 8.5v55h70v-125h-70q-14 0 -24 -10.5t-10 -24.5t10 -24t24 -10
h70v-70z" />
    <glyph glyph-name="itilde" unicode="&#x129;" 
d="M60 500h70v-500h-70v500zM226 648q-24 -42 -65.5 -53t-83.5 13q-15 10 -28 5t-22 -21l-62 37q24 42 65.5 53t83.5 -12q15 -9 28 -4.5t22 19.5z" />
    <glyph glyph-name="dotlessi" unicode="&#x131;" 
d="M60 500h70v-500h-70v500z" />
    <glyph glyph-name="jcircumflex" unicode="&#x135;" 
d="M60 500h70v-512q0 -50 -14 -90.5t-40 -70t-63.5 -45.5t-84.5 -16v70q35 0 60 12.5t41 33.5t23.5 48.5t7.5 57.5v512zM139 722l92 -130h-76l-60 84l-61 -84h-75l91 130h89z" />
    <glyph glyph-name="kcommaaccent" unicode="&#x137;" horiz-adv-x="466" 
d="M214 -139q-11 3 -18.5 12.5t-7.5 21.5q0 14 10.5 24.5t24.5 10.5t24.5 -10.5t10.5 -24.5q0 -8 -4 -16l-28 -57h-22zM141 234l-11 -15v-219h-70v700h70v-364l124 164h88l-157 -207l221 -293h-89z" />
    <glyph glyph-name="lacute" unicode="&#x13a;" 
d="M60 700h70v-700h-70v700zM133 792h-74l63 200h74z" />
    <glyph glyph-name="lcaron" unicode="&#x13e;" 
d="M60 700h70v-700h-70v700zM222 615q-14 3 -23 15t-9 27q0 17 12.5 30t30.5 13t30.5 -13t12.5 -30q0 -3 -0.5 -7t-3.5 -15l-8.5 -31.5l-15.5 -55.5h-33z" />
    <glyph glyph-name="ldot" unicode="&#x140;" 
d="M180 341q0 18 12 30.5t30 12.5t30.5 -12.5t12.5 -30.5t-12.5 -30t-30.5 -12t-30 12t-12 30zM60 700h70v-700h-70v700z" />
    <glyph glyph-name="nacute" unicode="&#x144;" horiz-adv-x="569" 
d="M443 461q32 -32 49 -73t17 -86v-302h-70v302q0 32 -12.5 60t-33.5 49t-49 33t-60 12t-60 -12t-49 -33t-33 -49t-12 -60v-302h-70v500h58l12 -45q32 35 71 53t83 18q45 0 86 -16.5t73 -48.5zM321 592h-74l63 200h74z" />
    <glyph glyph-name="napostrophe" unicode="&#x149;" horiz-adv-x="569" 
d="M443 461q32 -32 49 -73t17 -86v-302h-70v302q0 32 -12.5 60t-33.5 49t-49 33t-60 12t-60 -12t-49 -33t-33 -49t-12 -60v-302h-70v500h58l12 -45q32 35 71 53t83 18q45 0 86 -16.5t73 -48.5zM-53 615q-14 3 -23 15t-9 27q0 17 12.5 30t30.5 13t30.5 -13t12.5 -30
q0 -3 -0.5 -7t-3.5 -15l-8.5 -31.5l-15.5 -55.5h-33z" />
    <glyph glyph-name="ncaron" unicode="&#x148;" horiz-adv-x="569" 
d="M443 461q32 -32 49 -73t17 -86v-302h-70v302q0 32 -12.5 60t-33.5 49t-49 33t-60 12t-60 -12t-49 -33t-33 -49t-12 -60v-302h-70v500h58l12 -45q32 35 71 53t83 18q45 0 86 -16.5t73 -48.5zM159 792h77l48 -112l49 112h77l-87 -200h-77z" />
    <glyph glyph-name="ntilde" unicode="&#xf1;" horiz-adv-x="569" 
d="M443 461q32 -32 49 -73t17 -86v-302h-70v302q0 32 -12.5 60t-33.5 49t-49 33t-60 12t-60 -12t-49 -33t-33 -49t-12 -60v-302h-70v500h58l12 -45q32 35 71 53t83 18q45 0 86 -16.5t73 -48.5zM415 648q-24 -42 -65.5 -53t-83.5 13q-15 10 -28 5t-22 -21l-62 37
q24 42 65.5 53t83.5 -12q15 -9 28 -4.5t22 19.5z" />
    <glyph glyph-name="oacute" unicode="&#xf3;" horiz-adv-x="667" 
d="M333 -23q-55 0 -104.5 21t-88.5 59q-38 39 -59 89t-21 104q0 55 21 105t59 89q39 38 88.5 59t104.5 21t105 -21t89 -59q38 -39 59 -89t21 -105q0 -54 -21 -104t-59 -89q-39 -38 -89 -59t-105 -21zM333 454q-42 0 -79 -16t-64.5 -43.5t-43.5 -65t-16 -79.5t16 -79
t43.5 -64.5t64.5 -43.5t79 -16t79 16t65 43.5t44 64.5t16 79t-16 79.5t-44 65t-65 43.5t-79 16zM370 592h-74l63 200h74z" />
    <glyph glyph-name="obreve" unicode="&#x14f;" horiz-adv-x="667" 
d="M333 -23q-55 0 -104.5 21t-88.5 59q-38 39 -59 89t-21 104q0 55 21 105t59 89q39 38 88.5 59t104.5 21t105 -21t89 -59q38 -39 59 -89t21 -105q0 -54 -21 -104t-59 -89q-39 -38 -89 -59t-105 -21zM333 454q-42 0 -79 -16t-64.5 -43.5t-43.5 -65t-16 -79.5t16 -79
t43.5 -64.5t64.5 -43.5t79 -16t79 16t65 43.5t44 64.5t16 79t-16 79.5t-44 65t-65 43.5t-79 16zM333 570q-27 0 -50.5 10t-41 28t-28 41.5t-10.5 50.5h70q0 -25 17.5 -42.5t42.5 -17.5q26 0 43 17.5t17 42.5h70q0 -27 -10 -50.5t-28 -41.5t-41.5 -28t-50.5 -10z" />
    <glyph glyph-name="ocircumflex" unicode="&#xf4;" horiz-adv-x="667" 
d="M333 -23q-55 0 -104.5 21t-88.5 59q-38 39 -59 89t-21 104q0 55 21 105t59 89q39 38 88.5 59t104.5 21t105 -21t89 -59q38 -39 59 -89t21 -105q0 -54 -21 -104t-59 -89q-39 -38 -89 -59t-105 -21zM333 454q-42 0 -79 -16t-64.5 -43.5t-43.5 -65t-16 -79.5t16 -79
t43.5 -64.5t64.5 -43.5t79 -16t79 16t65 43.5t44 64.5t16 79t-16 79.5t-44 65t-65 43.5t-79 16zM377 722l92 -130h-76l-60 84l-61 -84h-75l91 130h89z" />
    <glyph glyph-name="odieresis" unicode="&#xf6;" horiz-adv-x="667" 
d="M333 -23q-55 0 -104.5 21t-88.5 59q-38 39 -59 89t-21 104q0 55 21 105t59 89q39 38 88.5 59t104.5 21t105 -21t89 -59q38 -39 59 -89t21 -105q0 -54 -21 -104t-59 -89q-39 -38 -89 -59t-105 -21zM333 454q-42 0 -79 -16t-64.5 -43.5t-43.5 -65t-16 -79.5t16 -79
t43.5 -64.5t64.5 -43.5t79 -16t79 16t65 43.5t44 64.5t16 79t-16 79.5t-44 65t-65 43.5t-79 16zM211 648q0 18 12 30.5t30 12.5t30.5 -12.5t12.5 -30.5t-12.5 -30t-30.5 -12t-30 12t-12 30zM371 648q0 18 12 30.5t30 12.5t30.5 -12.5t12.5 -30.5t-12.5 -30t-30.5 -12t-30 12
t-12 30z" />
    <glyph glyph-name="ograve" unicode="&#xf2;" horiz-adv-x="667" 
d="M333 -23q-55 0 -104.5 21t-88.5 59q-38 39 -59 89t-21 104q0 55 21 105t59 89q39 38 88.5 59t104.5 21t105 -21t89 -59q38 -39 59 -89t21 -105q0 -54 -21 -104t-59 -89q-39 -38 -89 -59t-105 -21zM333 454q-42 0 -79 -16t-64.5 -43.5t-43.5 -65t-16 -79.5t16 -79
t43.5 -64.5t64.5 -43.5t79 -16t79 16t65 43.5t44 64.5t16 79t-16 79.5t-44 65t-65 43.5t-79 16zM233 792h74l63 -200h-74z" />
    <glyph glyph-name="ohungarumlaut" unicode="&#x151;" horiz-adv-x="667" 
d="M333 -23q-55 0 -104.5 21t-88.5 59q-38 39 -59 89t-21 104q0 55 21 105t59 89q39 38 88.5 59t104.5 21t105 -21t89 -59q38 -39 59 -89t21 -105q0 -54 -21 -104t-59 -89q-39 -38 -89 -59t-105 -21zM333 454q-42 0 -79 -16t-64.5 -43.5t-43.5 -65t-16 -79.5t16 -79
t43.5 -64.5t64.5 -43.5t79 -16t79 16t65 43.5t44 64.5t16 79t-16 79.5t-44 65t-65 43.5t-79 16zM287 755h70l-54 -163h-50zM395 755h70l-54 -163h-50z" />
    <glyph glyph-name="omacron" unicode="&#x14d;" horiz-adv-x="667" 
d="M333 -23q-55 0 -104.5 21t-88.5 59q-38 39 -59 89t-21 104q0 55 21 105t59 89q39 38 88.5 59t104.5 21t105 -21t89 -59q38 -39 59 -89t21 -105q0 -54 -21 -104t-59 -89q-39 -38 -89 -59t-105 -21zM333 454q-42 0 -79 -16t-64.5 -43.5t-43.5 -65t-16 -79.5t16 -79
t43.5 -64.5t64.5 -43.5t79 -16t79 16t65 43.5t44 64.5t16 79t-16 79.5t-44 65t-65 43.5t-79 16zM183 661h300v-70h-300v70z" />
    <glyph glyph-name="oslashacute" unicode="&#x1ff;" horiz-adv-x="667" 
d="M333 -23q-55 0 -104.5 21t-88.5 59q-38 39 -59 89t-21 104q0 55 21 105t59 89q39 38 88.5 59t104.5 21t105 -21t89 -59q38 -39 59 -89t21 -105q0 -54 -21 -104t-59 -89q-39 -38 -89 -59t-105 -21zM333 454q-42 0 -79 -16t-64.5 -43.5t-43.5 -65t-16 -79.5t16 -79
t43.5 -64.5t64.5 -43.5t79 -16t79 16t65 43.5t44 64.5t16 79t-16 79.5t-44 65t-65 43.5t-79 16zM370 592h-74l63 200h74zM256 -99h-74l228 700h74z" />
    <glyph glyph-name="otilde" unicode="&#xf5;" horiz-adv-x="667" 
d="M333 -23q-55 0 -104.5 21t-88.5 59q-38 39 -59 89t-21 104q0 55 21 105t59 89q39 38 88.5 59t104.5 21t105 -21t89 -59q38 -39 59 -89t21 -105q0 -54 -21 -104t-59 -89q-39 -38 -89 -59t-105 -21zM333 454q-42 0 -79 -16t-64.5 -43.5t-43.5 -65t-16 -79.5t16 -79
t43.5 -64.5t64.5 -43.5t79 -16t79 16t65 43.5t44 64.5t16 79t-16 79.5t-44 65t-65 43.5t-79 16zM464 648q-24 -42 -65.5 -53t-83.5 13q-15 10 -28 5t-22 -21l-62 37q24 42 65.5 53t83.5 -12q15 -9 28 -4.5t22 19.5z" />
    <glyph glyph-name="racute" unicode="&#x155;" horiz-adv-x="396" 
d="M336 426q-26 8 -52 8q-32 0 -60 -12t-49 -33t-33 -49t-12 -60v-280h-70v500h58l17 -52q31 27 69 41.5t80 14.5q14 0 26.5 -1.5t25.5 -3.5v-73zM215 592h-74l63 200h74z" />
    <glyph glyph-name="rcaron" unicode="&#x159;" horiz-adv-x="409" 
d="M349 426q-26 8 -52 8q-32 0 -60 -12t-49 -33t-33 -49t-12 -60v-280h-70v500h58l17 -52q31 27 69 41.5t80 14.5q14 0 26.5 -1.5t25.5 -3.5v-73zM87 792h77l48 -112l49 112h77l-87 -200h-77z" />
    <glyph glyph-name="commaaccent" unicode="&#xf6c3;" horiz-adv-x="206" 
d="M92 -155q-14 3 -23 15t-9 27q0 17 12.5 30t30.5 13t30.5 -13t12.5 -30q0 -3 -0.5 -7t-3.5 -15l-8.5 -31.5l-15.5 -55.5h-33z" />
    <glyph glyph-name="sacute" unicode="&#x15b;" horiz-adv-x="477" 
d="M246 -23q-10 0 -24 1t-30 5t-33 10.5t-33 17.5q-11 8 -23 20t-21.5 28.5t-15.5 38t-6 49.5h70q0 -53 36 -78q31 -22 80 -22q18 0 36.5 4.5t32.5 14t23 24t9 34.5q0 22 -12 38t-31 28t-43 21t-48 16.5t-45 15t-35 17.5q-58 40 -58 110q0 36 14 64.5t37 49t53 31.5t63 11
q39 0 68.5 -12t49.5 -31.5t30 -44t10 -49.5h-70q-1 18 -9 30.5t-20.5 20.5t-28 12t-30.5 4q-45 0 -71 -23.5t-26 -62.5q0 -35 26 -51.5t83 -33.5l57.5 -20t52.5 -30q53 -42 53 -111q0 -36 -15 -63t-39 -46t-55 -28.5t-62 -9.5zM276 592h-74l63 200h74z" />
    <glyph glyph-name="scaron" unicode="&#x161;" horiz-adv-x="477" 
d="M246 -23q-10 0 -24 1t-30 5t-33 10.5t-33 17.5q-11 8 -23 20t-21.5 28.5t-15.5 38t-6 49.5h70q0 -53 36 -78q31 -22 80 -22q18 0 36.5 4.5t32.5 14t23 24t9 34.5q0 22 -12 38t-31 28t-43 21t-48 16.5t-45 15t-35 17.5q-58 40 -58 110q0 36 14 64.5t37 49t53 31.5t63 11
q39 0 68.5 -12t49.5 -31.5t30 -44t10 -49.5h-70q-1 18 -9 30.5t-20.5 20.5t-28 12t-30.5 4q-45 0 -71 -23.5t-26 -62.5q0 -35 26 -51.5t83 -33.5l57.5 -20t52.5 -30q53 -42 53 -111q0 -36 -15 -63t-39 -46t-55 -28.5t-62 -9.5zM114 792h77l48 -112l49 112h77l-87 -200h-77z
" />
    <glyph glyph-name="scedilla" unicode="&#x15f;" horiz-adv-x="477" 
d="M246 -23q-10 0 -24 1t-30 5t-33 10.5t-33 17.5q-11 8 -23 20t-21.5 28.5t-15.5 38t-6 49.5h70q0 -53 36 -78q31 -22 80 -22q18 0 36.5 4.5t32.5 14t23 24t9 34.5q0 22 -12 38t-31 28t-43 21t-48 16.5t-45 15t-35 17.5q-58 40 -58 110q0 36 14 64.5t37 49t53 31.5t63 11
q39 0 68.5 -12t49.5 -31.5t30 -44t10 -49.5h-70q-1 18 -9 30.5t-20.5 20.5t-28 12t-30.5 4q-45 0 -71 -23.5t-26 -62.5q0 -35 26 -51.5t83 -33.5l57.5 -20t52.5 -30q53 -42 53 -111q0 -36 -15 -63t-39 -46t-55 -28.5t-62 -9.5zM204 -194h70q14 0 24 10t10 24t-10 24.5
t-24 10.5h-70v125h70v-55q21 0 40.5 -8.5t33.5 -22.5t22.5 -33t8.5 -41t-8.5 -41t-22.5 -33t-33.5 -22t-40.5 -8h-70v70z" />
    <glyph glyph-name="scircumflex" unicode="&#x15d;" horiz-adv-x="477" 
d="M246 -23q-10 0 -24 1t-30 5t-33 10.5t-33 17.5q-11 8 -23 20t-21.5 28.5t-15.5 38t-6 49.5h70q0 -53 36 -78q31 -22 80 -22q18 0 36.5 4.5t32.5 14t23 24t9 34.5q0 22 -12 38t-31 28t-43 21t-48 16.5t-45 15t-35 17.5q-58 40 -58 110q0 36 14 64.5t37 49t53 31.5t63 11
q39 0 68.5 -12t49.5 -31.5t30 -44t10 -49.5h-70q-1 18 -9 30.5t-20.5 20.5t-28 12t-30.5 4q-45 0 -71 -23.5t-26 -62.5q0 -35 26 -51.5t83 -33.5l57.5 -20t52.5 -30q53 -42 53 -111q0 -36 -15 -63t-39 -46t-55 -28.5t-62 -9.5zM283 722l92 -130h-76l-60 84l-61 -84h-75
l91 130h89z" />
    <glyph glyph-name="uacute" unicode="&#xfa;" horiz-adv-x="570" 
d="M126 42q-32 32 -49 73t-17 86v299h70v-299q0 -32 12.5 -60t33.5 -49t49 -33t60 -12t60 12t49 33t33.5 49t12.5 60v299h70v-299q0 -45 -17 -86t-49 -73t-73 -48.5t-86 -16.5t-86 16.5t-73 48.5zM322 592h-74l63 200h74z" />
    <glyph glyph-name="ubreve" unicode="&#x16d;" horiz-adv-x="570" 
d="M126 42q-32 32 -49 73t-17 86v299h70v-299q0 -32 12.5 -60t33.5 -49t49 -33t60 -12t60 12t49 33t33.5 49t12.5 60v299h70v-299q0 -45 -17 -86t-49 -73t-73 -48.5t-86 -16.5t-86 16.5t-73 48.5zM285 570q-27 0 -50.5 10t-41 28t-28 41.5t-10.5 50.5h70q0 -25 17.5 -42.5
t42.5 -17.5q26 0 43 17.5t17 42.5h70q0 -27 -10 -50.5t-28 -41.5t-41.5 -28t-50.5 -10z" />
    <glyph glyph-name="ucircumflex" unicode="&#xfb;" horiz-adv-x="570" 
d="M126 42q-32 32 -49 73t-17 86v299h70v-299q0 -32 12.5 -60t33.5 -49t49 -33t60 -12t60 12t49 33t33.5 49t12.5 60v299h70v-299q0 -45 -17 -86t-49 -73t-73 -48.5t-86 -16.5t-86 16.5t-73 48.5zM329 722l92 -130h-76l-60 84l-61 -84h-75l91 130h89z" />
    <glyph glyph-name="udieresis" unicode="&#xfc;" horiz-adv-x="570" 
d="M126 42q-32 32 -49 73t-17 86v299h70v-299q0 -32 12.5 -60t33.5 -49t49 -33t60 -12t60 12t49 33t33.5 49t12.5 60v299h70v-299q0 -45 -17 -86t-49 -73t-73 -48.5t-86 -16.5t-86 16.5t-73 48.5zM163 648q0 18 12 30.5t30 12.5t30.5 -12.5t12.5 -30.5t-12.5 -30t-30.5 -12
t-30 12t-12 30zM323 648q0 18 12 30.5t30 12.5t30.5 -12.5t12.5 -30.5t-12.5 -30t-30.5 -12t-30 12t-12 30z" />
    <glyph glyph-name="uhungarumlaut" unicode="&#x171;" horiz-adv-x="570" 
d="M126 42q-32 32 -49 73t-17 86v299h70v-299q0 -32 12.5 -60t33.5 -49t49 -33t60 -12t60 12t49 33t33.5 49t12.5 60v299h70v-299q0 -45 -17 -86t-49 -73t-73 -48.5t-86 -16.5t-86 16.5t-73 48.5zM239 755h70l-54 -163h-50zM347 755h70l-54 -163h-50z" />
    <glyph glyph-name="ugrave" unicode="&#xf9;" horiz-adv-x="570" 
d="M126 42q-32 32 -49 73t-17 86v299h70v-299q0 -32 12.5 -60t33.5 -49t49 -33t60 -12t60 12t49 33t33.5 49t12.5 60v299h70v-299q0 -45 -17 -86t-49 -73t-73 -48.5t-86 -16.5t-86 16.5t-73 48.5zM185 792h74l63 -200h-74z" />
    <glyph glyph-name="umacron" unicode="&#x16b;" horiz-adv-x="570" 
d="M126 42q-32 32 -49 73t-17 86v299h70v-299q0 -32 12.5 -60t33.5 -49t49 -33t60 -12t60 12t49 33t33.5 49t12.5 60v299h70v-299q0 -45 -17 -86t-49 -73t-73 -48.5t-86 -16.5t-86 16.5t-73 48.5zM135 661h300v-70h-300v70z" />
    <glyph glyph-name="uogonek" unicode="&#x173;" horiz-adv-x="570" 
d="M126 42q-32 32 -49 73t-17 86v299h70v-299q0 -32 12.5 -60t33.5 -49t49 -33t60 -12t60 12t49 33t33.5 49t12.5 60v299h70v-299q0 -45 -17 -86t-49 -73t-73 -48.5t-86 -16.5t-86 16.5t-73 48.5zM320 -264h-70q-21 0 -40.5 8t-33.5 22t-22.5 33t-8.5 41t8.5 41t22.5 33
t33.5 22.5t40.5 8.5v55h70v-125h-70q-14 0 -24 -10.5t-10 -24.5t10 -24t24 -10h70v-70z" />
    <glyph glyph-name="uring" unicode="&#x16f;" horiz-adv-x="570" 
d="M126 42q-32 32 -49 73t-17 86v299h70v-299q0 -32 12.5 -60t33.5 -49t49 -33t60 -12t60 12t49 33t33.5 49t12.5 60v299h70v-299q0 -45 -17 -86t-49 -73t-73 -48.5t-86 -16.5t-86 16.5t-73 48.5zM285 570q-26 0 -48 9.5t-39 26.5t-26.5 39t-9.5 48q0 25 9.5 47.5t26.5 39.5
t39 26.5t48 9.5q25 0 47.5 -9.5t39.5 -26.5t26.5 -39.5t9.5 -47.5q0 -26 -9.5 -48t-26.5 -39t-39.5 -26.5t-47.5 -9.5zM285 746q-22 0 -37.5 -15.5t-15.5 -37.5t15.5 -37.5t37.5 -15.5q23 0 38 15.5t15 37.5t-15 37.5t-38 15.5z" />
    <glyph glyph-name="utilde" unicode="&#x169;" horiz-adv-x="570" 
d="M126 42q-32 32 -49 73t-17 86v299h70v-299q0 -32 12.5 -60t33.5 -49t49 -33t60 -12t60 12t49 33t33.5 49t12.5 60v299h70v-299q0 -45 -17 -86t-49 -73t-73 -48.5t-86 -16.5t-86 16.5t-73 48.5zM416 648q-24 -42 -65.5 -53t-83.5 13q-15 10 -28 5t-22 -21l-62 37
q24 42 65.5 53t83.5 -12q15 -9 28 -4.5t22 19.5z" />
    <glyph glyph-name="wacute" unicode="&#x1e83;" horiz-adv-x="950" 
d="M506 42q-17 17 -31 39q-14 -22 -31 -39q-32 -32 -73 -48.5t-86 -16.5t-86 16.5t-73 48.5t-49 73t-17 86v299h70v-299q0 -32 12.5 -60t33.5 -49t49 -33t60 -12q31 0 58.5 11.5t48.5 31.5t33.5 46.5t14.5 57.5v306h70v-306q1 -31 13.5 -57.5t33.5 -46.5t49 -31.5t59 -11.5
q32 0 60 12t49 33t33.5 49t12.5 60v299h70v-299q0 -45 -17 -86t-49 -73t-73 -48.5t-86 -16.5t-86 16.5t-73 48.5zM512 592h-74l63 200h74z" />
    <glyph glyph-name="wcircumflex" unicode="&#x175;" horiz-adv-x="950" 
d="M506 42q-17 17 -31 39q-14 -22 -31 -39q-32 -32 -73 -48.5t-86 -16.5t-86 16.5t-73 48.5t-49 73t-17 86v299h70v-299q0 -32 12.5 -60t33.5 -49t49 -33t60 -12q31 0 58.5 11.5t48.5 31.5t33.5 46.5t14.5 57.5v306h70v-306q1 -31 13.5 -57.5t33.5 -46.5t49 -31.5t59 -11.5
q32 0 60 12t49 33t33.5 49t12.5 60v299h70v-299q0 -45 -17 -86t-49 -73t-73 -48.5t-86 -16.5t-86 16.5t-73 48.5zM519 722l92 -130h-76l-60 84l-61 -84h-75l91 130h89z" />
    <glyph glyph-name="wdieresis" unicode="&#x1e85;" horiz-adv-x="950" 
d="M506 42q-17 17 -31 39q-14 -22 -31 -39q-32 -32 -73 -48.5t-86 -16.5t-86 16.5t-73 48.5t-49 73t-17 86v299h70v-299q0 -32 12.5 -60t33.5 -49t49 -33t60 -12q31 0 58.5 11.5t48.5 31.5t33.5 46.5t14.5 57.5v306h70v-306q1 -31 13.5 -57.5t33.5 -46.5t49 -31.5t59 -11.5
q32 0 60 12t49 33t33.5 49t12.5 60v299h70v-299q0 -45 -17 -86t-49 -73t-73 -48.5t-86 -16.5t-86 16.5t-73 48.5zM353 648q0 18 12 30.5t30 12.5t30.5 -12.5t12.5 -30.5t-12.5 -30t-30.5 -12t-30 12t-12 30zM513 648q0 18 12 30.5t30 12.5t30.5 -12.5t12.5 -30.5t-12.5 -30
t-30.5 -12t-30 12t-12 30z" />
    <glyph glyph-name="wgrave" unicode="&#x1e81;" horiz-adv-x="950" 
d="M506 42q-17 17 -31 39q-14 -22 -31 -39q-32 -32 -73 -48.5t-86 -16.5t-86 16.5t-73 48.5t-49 73t-17 86v299h70v-299q0 -32 12.5 -60t33.5 -49t49 -33t60 -12q31 0 58.5 11.5t48.5 31.5t33.5 46.5t14.5 57.5v306h70v-306q1 -31 13.5 -57.5t33.5 -46.5t49 -31.5t59 -11.5
q32 0 60 12t49 33t33.5 49t12.5 60v299h70v-299q0 -45 -17 -86t-49 -73t-73 -48.5t-86 -16.5t-86 16.5t-73 48.5zM375 792h74l63 -200h-74z" />
    <glyph glyph-name="yacute" unicode="&#xfd;" horiz-adv-x="570" 
d="M440 38q-32 -29 -71.5 -45t-83.5 -16q-45 0 -86 16.5t-73 48.5t-49 73t-17 86v299h70v-299q0 -32 12.5 -60t33.5 -49t49 -33t60 -12q31 0 58.5 11.5t48.5 31.5t33.5 46.5t14.5 57.5v306h70v-512q0 -50 -14 -90.5t-40 -70t-63.5 -45.5t-84.5 -16v70q35 0 60 12.5t41 33.5
t23.5 48.5t7.5 57.5v50zM322 592h-74l63 200h74z" />
    <glyph glyph-name="ycircumflex" unicode="&#x177;" horiz-adv-x="570" 
d="M440 38q-32 -29 -71.5 -45t-83.5 -16q-45 0 -86 16.5t-73 48.5t-49 73t-17 86v299h70v-299q0 -32 12.5 -60t33.5 -49t49 -33t60 -12q31 0 58.5 11.5t48.5 31.5t33.5 46.5t14.5 57.5v306h70v-512q0 -50 -14 -90.5t-40 -70t-63.5 -45.5t-84.5 -16v70q35 0 60 12.5t41 33.5
t23.5 48.5t7.5 57.5v50zM329 722l92 -130h-76l-60 84l-61 -84h-75l91 130h89z" />
    <glyph glyph-name="ydieresis" unicode="&#xff;" horiz-adv-x="570" 
d="M440 38q-32 -29 -71.5 -45t-83.5 -16q-45 0 -86 16.5t-73 48.5t-49 73t-17 86v299h70v-299q0 -32 12.5 -60t33.5 -49t49 -33t60 -12q31 0 58.5 11.5t48.5 31.5t33.5 46.5t14.5 57.5v306h70v-512q0 -50 -14 -90.5t-40 -70t-63.5 -45.5t-84.5 -16v70q35 0 60 12.5t41 33.5
t23.5 48.5t7.5 57.5v50zM163 648q0 18 12 30.5t30 12.5t30.5 -12.5t12.5 -30.5t-12.5 -30t-30.5 -12t-30 12t-12 30zM323 648q0 18 12 30.5t30 12.5t30.5 -12.5t12.5 -30.5t-12.5 -30t-30.5 -12t-30 12t-12 30z" />
    <glyph glyph-name="ygrave" unicode="&#x1ef3;" horiz-adv-x="570" 
d="M440 38q-32 -29 -71.5 -45t-83.5 -16q-45 0 -86 16.5t-73 48.5t-49 73t-17 86v299h70v-299q0 -32 12.5 -60t33.5 -49t49 -33t60 -12q31 0 58.5 11.5t48.5 31.5t33.5 46.5t14.5 57.5v306h70v-512q0 -50 -14 -90.5t-40 -70t-63.5 -45.5t-84.5 -16v70q35 0 60 12.5t41 33.5
t23.5 48.5t7.5 57.5v50zM185 792h74l63 -200h-74z" />
    <glyph glyph-name="zacute" unicode="&#x17a;" horiz-adv-x="466" 
d="M60 0l228 430h-228v70h346l-229 -430h229v-70h-346zM270 592h-74l63 200h74z" />
    <glyph glyph-name="zcaron" unicode="&#x17e;" horiz-adv-x="466" 
d="M60 0l228 430h-228v70h346l-229 -430h229v-70h-346zM107 792h77l48 -112l49 112h77l-87 -200h-77z" />
    <glyph glyph-name="zdotaccent" unicode="&#x17c;" horiz-adv-x="466" 
d="M60 0l228 430h-228v70h346l-229 -430h229v-70h-346zM191 648q0 18 12 30.5t30 12.5t30.5 -12.5t12.5 -30.5t-12.5 -30t-30.5 -12t-30 12t-12 30z" />
    <glyph glyph-name="Eth" unicode="&#xd0;" horiz-adv-x="771" 
d="M126 0v273h-66v70h66v357h235q73 0 136 -28q62 -25 112 -75q48 -48 75 -111q27 -65 27 -136q0 -72 -27 -136q-27 -63 -75 -111q-50 -50 -112 -75q-63 -28 -136 -28h-235zM196 70h165q57 0 107.5 21t90.5 61t61 90.5t21 107.5t-21 107.5t-61 90.5t-90.5 61t-107.5 21h-165
v-287h66v-70h-66v-203z" />
    <glyph glyph-name="zero.slash" horiz-adv-x="866" 
d="M433 -23q-75 0 -145 29q-68 28 -119 80q-52 51 -80 119q-29 70 -29 145t29 145q28 67 80 119q51 51 119 80q70 29 145 29t145 -29q67 -29 119 -80q51 -52 80 -119q29 -70 29 -145t-29 -145q-29 -68 -80 -119q-52 -52 -119 -80q-70 -29 -145 -29zM433 47q61 0 116 22.5
t98 66.5q44 43 66.5 98t22.5 116t-22.5 116t-66.5 98q-40 40 -88 62l-186 -573q28 -6 60 -6zM433 653q-61 0 -116 -22.5t-98 -66.5q-44 -43 -66.5 -98t-22.5 -116t22.5 -116t66.5 -98q40 -40 87 -62l187 573q-30 6 -60 6z" />
    <glyph glyph-name="uni021A" unicode="&#x21a;" horiz-adv-x="586" 
d="M284 -139q-11 3 -18.5 12.5t-7.5 21.5q0 14 10.5 24.5t24.5 10.5t24.5 -10.5t10.5 -24.5q0 -8 -4 -16l-28 -57h-22zM60 630v70h466v-70h-198v-630h-70v630h-198z" />
    <glyph glyph-name="uni021B" unicode="&#x21b;" horiz-adv-x="372" 
d="M60 430v70h51v200h70v-200h131v-70h-131v-430h-70v430h-51zM143 -155q-14 3 -23 15t-9 27q0 17 12.5 30t30.5 13t30.5 -13t12.5 -30q0 -3 -0.5 -7t-3.5 -15l-8.5 -31.5l-15.5 -55.5h-33z" />
    <glyph glyph-name="apple" unicode="&#xf8ff;" horiz-adv-x="0" 
 />
    <glyph glyph-name="aacute" unicode="&#xe1;" horiz-adv-x="666" 
d="M526 444q39 -39 59.5 -89t20.5 -105v-250h-70v75q-20 -28 -44 -46.5t-50.5 -30t-54.5 -16.5t-54 -5q-55 0 -105 21t-88 59q-39 39 -59.5 89t-20.5 104q0 55 20.5 105t59.5 89q38 38 88 59t105 21t105 -21t88 -59zM333 47q42 0 79 16t64.5 43.5t43.5 64.5t16 79t-16 79.5
t-43.5 65t-64.5 43.5t-79 16t-79 -16t-64.5 -43.5t-43.5 -65t-16 -79.5t16 -79t43.5 -64.5t64.5 -43.5t79 -16zM349 592h-74l63 200h74z" />
    <glyph glyph-name="Gcommaaccent" unicode="&#x122;" horiz-adv-x="866" 
d="M806 343q0 -71 -29 -138q-14 -34 -34 -63.5t-46 -55.5q-51 -51 -118 -80q-70 -29 -146 -29q-75 0 -145 29q-67 29 -118 80q-53 51 -80 119q-30 69 -30 145t30 145q27 68 80 119q51 51 118 80q70 29 145 29q76 0 146 -29q67 -29 118 -80q38 -38 66 -88h-83q-7 11 -15 20
t-17 18q-43 44 -98.5 66.5t-116.5 22.5t-116 -22.5t-98 -66.5q-43 -43 -66 -98t-23 -116t23 -116t66 -98q43 -44 98 -66.5t116 -22.5t116.5 22.5t98.5 66.5q29 29 48.5 64t30.5 73h-294v70h373v0zM422 -155q-14 3 -23 15t-9 27q0 17 12.5 30t30.5 13t30.5 -13t12.5 -30
q0 -3 -0.5 -7t-3.5 -15l-8.5 -31.5l-15.5 -55.5h-33z" />
    <glyph glyph-name="Kcommaaccent" unicode="&#x136;" horiz-adv-x="587" 
d="M437 0l-262 326l-45 -55v-271h-70v700h70v-318l260 318h90l-260 -318l307 -382h-90v0zM272 -155q-14 3 -23 15t-9 27q0 17 12.5 30t30.5 13t30.5 -13t12.5 -30q0 -3 -0.5 -7t-3.5 -15l-8.5 -31.5l-15.5 -55.5h-33z" />
    </font>
</defs>
</svg>
